<svg width="20" height="20" viewBox="0 0 20 20" fill="none" xmlns="http://www.w3.org/2000/svg">
<path d="M10.4279 9.2755V19.9999H17.3687C18.2385 19.9999 18.9477 19.2918 18.9477 18.421V9.2755H10.4279Z" fill="#9CA2AA"/>
<path d="M9.57327 9.2755H1.05275V18.421C1.05275 19.2918 1.76083 19.9999 2.63173 19.9999H9.57327V9.2755Z" fill="#9CA2AA"/>
<path d="M19.4734 4.21061H16.3154C16.6463 3.7706 16.8417 3.22392 16.8417 2.63163C16.8417 1.18143 15.6617 0 14.2101 0C12.7462 0 11.5195 1.15967 10.9192 1.85021C10.5539 2.26882 10.2406 2.71725 10.0002 3.15094C9.75844 2.71725 9.4451 2.26952 9.08124 1.85021C8.47947 1.16073 7.25208 0 5.78959 0C4.33868 0 3.15796 1.18143 3.15796 2.63163C3.15796 3.22392 3.3541 3.7706 3.68499 4.21061H0.526326C0.235092 4.21061 0 4.44781 0 4.73694V7.8949C0 8.18613 0.235092 8.42122 0.526326 8.42122H19.4734C19.7632 8.42122 19.9997 8.18613 19.9997 7.8949V4.73694C19.9997 4.44781 19.7632 4.21061 19.4734 4.21061ZM5.78959 4.21061C4.9187 4.21061 4.21061 3.50253 4.21061 2.63163C4.21061 1.76144 4.9187 1.05265 5.78959 1.05265C6.55311 1.05265 7.46366 1.59547 8.28754 2.5411C8.79386 3.12427 9.16334 3.74604 9.3451 4.21061H5.78959ZM14.2101 4.21061H10.6546C10.8371 3.74604 11.2048 3.12427 11.7129 2.5411C12.5346 1.59547 13.4455 1.05265 14.2101 1.05265C15.08 1.05265 15.7891 1.76144 15.7891 2.63163C15.7891 3.50253 15.08 4.21061 14.2101 4.21061Z" fill="#9CA2AA"/>
</svg>
