<svg width="6" height="9" viewBox="0 0 6 9" fill="none" xmlns="http://www.w3.org/2000/svg">
<path d="M0.455037 4.62351C0.997291 5.34445 1.85976 5.81102 2.83108 5.81102C3.8024 5.81102 4.66488 5.34445 5.20713 4.62349C5.49498 5.06728 5.66217 5.59677 5.66217 6.16535C5.66217 7.73089 4.39465 9 2.83109 9C1.26752 9 -5.54747e-08 7.73089 -1.23906e-07 6.16535C-1.4876e-07 5.59677 0.167192 5.06729 0.455037 4.62351Z" fill="white"/>
<path d="M5.14764 4.46457C4.6353 3.73591 3.78872 3.25984 2.83109 3.25984C2.32234 3.25984 1.84494 3.3942 1.43235 3.62941C1.311 3.69859 1.19525 3.77649 1.08596 3.86227C1.07093 3.87406 1.05603 3.88601 1.04125 3.89809C0.841039 4.06185 0.663629 4.25251 0.514529 4.46456C1.02687 5.19322 1.87345 5.66929 2.83109 5.66929C3.78872 5.66929 4.6353 5.19323 5.14764 4.46457Z" fill="white"/>
<path d="M-2.69496e-07 2.83465C-2.4535e-07 3.38704 0.157808 3.90253 0.430748 4.33839C0.971328 3.59885 1.84513 3.11811 2.83108 3.11811C3.81704 3.11811 4.69084 3.59885 5.23142 4.3384C5.50436 3.90254 5.66217 3.38705 5.66217 2.83465C5.66217 1.26912 4.39465 8.13057e-07 2.83109 8.81403e-07C1.26752 9.49748e-07 -3.37928e-07 1.26912 -2.69496e-07 2.83465Z" fill="white"/>
</svg>
