<svg width="41" height="40" viewBox="0 0 41 40" fill="none" xmlns="http://www.w3.org/2000/svg">
<path d="M31.0002 20.0296C31.0013 20.227 30.9635 20.4226 30.8889 20.6053C30.8142 20.788 30.7043 20.9542 30.5653 21.0943L24.5666 27.093C24.4268 27.2328 24.2608 27.3437 24.0781 27.4194C23.8954 27.4951 23.6996 27.534 23.5019 27.534C23.3041 27.534 23.1083 27.4951 22.9256 27.4194C22.743 27.3437 22.577 27.2328 22.4371 27.093C22.2973 26.9531 22.1864 26.7872 22.1107 26.6045C22.035 26.4218 21.9961 26.226 21.9961 26.0282C21.9961 25.8305 22.035 25.6347 22.1107 25.452C22.1864 25.2693 22.2973 25.1033 22.4371 24.9635L27.401 20.0296L22.6321 15.0807C22.4787 14.9428 22.3554 14.7746 22.2699 14.5869C22.1845 14.3991 22.1387 14.1957 22.1354 13.9894C22.1321 13.7831 22.1715 13.5784 22.2509 13.388C22.3304 13.1976 22.4483 13.0257 22.5973 12.8829C22.7462 12.7402 22.923 12.6297 23.1166 12.5584C23.3102 12.4871 23.5164 12.4565 23.7224 12.4686C23.9284 12.4806 24.1296 12.535 24.3136 12.6284C24.4976 12.7217 24.6603 12.8521 24.7916 13.0112L30.5803 19.0098C30.8447 19.2841 30.9948 19.6487 31.0002 20.0296Z" fill="#2791B5"/>
</svg>
