<svg width="38" height="38" viewBox="0 0 38 38" fill="none" xmlns="http://www.w3.org/2000/svg">
<path d="M0.262792 11.3599C0.445682 5.98011 4.56031 1.55535 9.91265 0.982672L14.4742 0.494605C17.5472 0.165817 20.6465 0.167551 23.7191 0.499778L28.099 0.973369C33.4461 1.55154 37.5541 5.97411 37.7368 11.3493L38 19.09L37.7402 26.7335C37.556 32.1507 33.3869 36.5933 27.9923 37.1207L23.2063 37.5887C20.4088 37.8623 17.5912 37.8623 14.7937 37.5887L10.0077 37.1207C4.6131 36.5933 0.444006 32.1507 0.259844 26.7335L0 19.09L0.262792 11.3599Z" fill="#132F38"/>
<path fill-rule="evenodd" clip-rule="evenodd" d="M23.2562 27.8384C22.1854 28.2914 20.9005 28.5179 19.4015 28.5179C17.993 28.5179 16.7616 28.312 15.7074 27.9001C14.6613 27.4883 13.8377 26.8911 13.2364 26.1087C12.6351 25.3262 12.2974 24.3913 12.2233 23.3041L12.2109 23.1064H15.7444L15.7691 23.2423C15.8515 23.6954 16.0574 24.0907 16.3869 24.4284C16.7163 24.7661 17.1488 25.0297 17.6841 25.2191C18.2195 25.4003 18.8249 25.4909 19.5003 25.4909C20.1922 25.4909 20.7852 25.3962 21.2794 25.2068C21.7818 25.0173 22.1689 24.7538 22.4408 24.4161C22.7208 24.0701 22.8608 23.6706 22.8608 23.2176V23.2053C22.8608 22.604 22.622 22.1345 22.1442 21.7968C21.6748 21.4509 20.884 21.1626 19.7721 20.932L17.8942 20.5613C16.1233 20.2072 14.7972 19.61 13.9159 18.7699C13.8659 18.7218 13.8174 18.6729 13.7703 18.6232H23.7718C24.3814 18.9019 24.885 19.2267 25.2824 19.5977C26.1554 20.3966 26.592 21.4962 26.592 22.8964V22.9088C26.592 24.0536 26.3037 25.0462 25.7271 25.8863C25.1588 26.7264 24.3352 27.3771 23.2562 27.8384ZM12.628 16.1018C12.6053 15.8981 12.5939 15.6878 12.5939 15.4711V15.4588C12.5939 14.3716 12.8863 13.4244 13.4711 12.6172C14.0559 11.8018 14.859 11.1717 15.8803 10.7269C16.9017 10.2739 18.0713 10.0474 19.3891 10.0474C20.7646 10.0474 21.9507 10.2656 22.9473 10.7022C23.9522 11.1305 24.7346 11.7359 25.2947 12.5183C25.8548 13.2926 26.1678 14.1986 26.2337 15.2364L26.2461 15.4588L22.7249 15.4588L22.7002 15.3105C22.6343 14.841 22.4572 14.4416 22.1689 14.1121C21.8807 13.7826 21.4977 13.5273 21.0199 13.3461C20.5505 13.1649 20.0069 13.0743 19.3891 13.0743C18.7549 13.0743 18.2072 13.1649 17.7459 13.3461C17.2929 13.5273 16.9428 13.7826 16.6957 14.1121C16.4487 14.4333 16.3251 14.8081 16.3251 15.2364V15.2488C16.3251 15.5683 16.4006 15.8526 16.5516 16.1018H12.628Z" fill="white"/>
</svg>
