<svg width="66" height="66" viewBox="0 0 66 66" fill="none" xmlns="http://www.w3.org/2000/svg">
<mask id="mask0_0_3394" style="mask-type:alpha" maskUnits="userSpaceOnUse" x="0" y="0" width="66" height="66">
<path opacity="0.9" d="M46.0909 0.450351C55.5373 0.771487 63.3067 7.99635 64.3123 17.3945L65.1315 25.0514C65.7088 30.4471 65.7058 35.8893 65.1224 41.2844L64.3286 48.626C63.3134 58.015 55.5478 65.2281 46.1095 65.549L32.8436 66L19.7486 65.5548C10.2365 65.2315 2.43579 57.9109 1.50958 48.4385L0.722181 40.3858C0.241873 35.4736 0.241873 30.5264 0.722182 25.6142L1.50958 17.5615C2.43579 8.08906 10.2365 0.768543 19.7486 0.445173L32.8436 -1.44931e-06L46.0909 0.450351Z" fill="#132F38"/>
</mask>
<g mask="url(#mask0_0_3394)">
<g clip-path="url(#clip0_0_3394)">
<path d="M33 70C53.9868 70 71 52.9868 71 32C71 11.0132 53.9868 -6 33 -6C12.0132 -6 -5 11.0132 -5 32C-5 52.9868 12.0132 70 33 70Z" fill="#D80027"/>
<path d="M54.478 22.2049H40.7139C41.5636 21.3152 42.0866 20.1106 42.0866 18.7831C42.0866 16.0458 39.8674 13.8267 37.1301 13.8267C35.4055 13.8267 33.8875 14.7078 32.9997 16.0439C32.1118 14.7078 30.5936 13.8267 28.8692 13.8267C26.1319 13.8267 23.9128 16.0458 23.9128 18.7831C23.9128 20.1106 24.4357 21.3153 25.2854 22.2049H11.5215C11.5215 25.8548 14.7006 28.8135 18.3502 28.8135H18.1299C18.1299 32.4636 21.0887 35.4224 24.7388 35.4224C24.7388 36.6045 25.0504 37.7128 25.5943 38.6723L20.1125 44.1542L24.3183 48.3598L30.2843 42.3939C30.5179 42.4796 30.7597 42.5483 31.0094 42.595L27.4043 50.7346L32.9997 56.7831L38.595 50.7343L34.9899 42.5947C35.2397 42.548 35.4814 42.4794 35.715 42.3936L41.681 48.3595L45.8868 44.1538L40.4049 38.6718C40.9489 37.7125 41.2605 36.6041 41.2605 35.4219C44.9104 35.4219 47.8692 32.4633 47.8692 28.8131H47.6491C51.2987 28.8134 54.478 25.8548 54.478 22.2049Z" fill="black"/>
</g>
</g>
<defs>
<clipPath id="clip0_0_3394">
<rect width="76" height="76" fill="white" transform="translate(-5 -6)"/>
</clipPath>
</defs>
</svg>
