<svg width="67" height="66" viewBox="0 0 67 66" fill="none" xmlns="http://www.w3.org/2000/svg">
<path d="M0.461965 19.5312C0.78347 10.074 8.01662 2.29567 17.4256 1.28896L25.4445 0.430982C30.8464 -0.146999 36.2948 -0.143951 41.6961 0.440076L49.3957 1.27261C58.7955 2.28898 66.0169 10.0635 66.3381 19.5126L66.8007 33.1202L66.344 46.5567C66.0202 56.0797 58.6913 63.8893 49.208 64.8166L40.7946 65.6392C35.8768 66.1201 30.9239 66.1201 26.0061 65.6392L17.5927 64.8166C8.10944 63.8893 0.780524 56.0797 0.456783 46.5567L0 33.1202L0.461965 19.5312Z" fill="#132F38"/>
<path fill-rule="evenodd" clip-rule="evenodd" d="M40.7741 47.8468C38.8918 48.6432 36.633 49.0414 33.9978 49.0414C31.5219 49.0414 29.3572 48.6794 27.5039 47.9554C25.6651 47.217 24.2171 46.1673 23.1602 44.8062C22.1032 43.4307 21.5095 41.7801 21.3792 39.8543L21.3575 39.5068H27.5473L27.5908 39.7457C27.7356 40.5566 28.0976 41.2588 28.6767 41.8525C29.2704 42.4316 30.0378 42.8877 30.9789 43.2207C31.9201 43.5393 32.9843 43.6986 34.1716 43.6986C35.3878 43.6986 36.4303 43.5393 37.2991 43.2207C38.1823 42.8877 38.8628 42.4244 39.3406 41.8307C39.8329 41.2226 40.0791 40.5204 40.0791 39.724V39.7023C40.0791 38.6453 39.6592 37.82 38.8194 37.2264C37.9941 36.6182 36.6041 36.1115 34.6494 35.706L31.3481 35.0545C28.5461 34.4888 26.3715 33.5705 24.8244 32.2997H42.8832C43.4341 32.6315 43.9183 32.9924 44.336 33.3821C45.8708 34.7866 46.6382 36.7196 46.6382 39.181V39.2028C46.6382 41.2154 46.1314 42.9601 45.1178 44.437C44.1188 45.8994 42.6709 47.036 40.7741 47.8468ZM22.183 27.8674C22.0815 27.3235 22.0308 26.751 22.0308 26.1498V26.1281C22.0308 24.2168 22.5448 22.5517 23.5728 21.1327C24.6008 19.6993 26.0126 18.5917 27.808 17.8098C29.6034 17.0134 31.6594 16.6152 33.9761 16.6152C36.3941 16.6152 38.4791 16.9917 40.2311 17.7446C41.9976 18.4975 43.3731 19.5618 44.3577 20.9373C45.3423 22.3128 45.8852 23.9128 45.9866 25.7371L46.0083 26.1498H39.8185L39.7967 25.8892C39.6809 25.0638 39.3696 24.3616 38.8628 23.7824C38.3561 23.1888 37.6828 22.7327 36.843 22.4142C36.0177 22.0956 35.062 21.9363 33.9761 21.9363C32.8612 21.9363 31.8983 22.1029 31.0875 22.4359C30.2767 22.7544 29.6541 23.196 29.2197 23.7607C28.7998 24.3254 28.5899 24.9842 28.5899 25.7371V25.7588C28.5899 26.5986 28.8953 27.3015 29.5063 27.8674H22.183Z" fill="white"/>
</svg>
