<svg width="84" height="84" viewBox="0 0 84 84" fill="none" xmlns="http://www.w3.org/2000/svg">
<path d="M71.6984 12.3015C63.8219 4.42498 53.139 0 41.9999 0C30.8609 0 20.178 4.42498 12.3015 12.3015C4.42498 20.178 0 30.8609 0 41.9999C0 53.139 4.42498 63.8219 12.3015 71.6984C20.178 79.5749 30.8609 83.9999 41.9999 83.9999C53.139 83.9999 63.8219 79.5749 71.6984 71.6984C79.5749 63.8219 83.9999 53.139 83.9999 41.9999C83.9999 30.8609 79.5749 20.178 71.6984 12.3015ZM41.9999 78.3705C21.9455 78.3705 5.62937 62.0547 5.62937 41.9999C5.62937 21.9452 21.9452 5.62937 41.9999 5.62937C62.0547 5.62937 78.3705 21.9452 78.3705 41.9999C78.3705 62.0547 62.0547 78.3705 41.9999 78.3705Z" fill="#2791B5"/>
<path d="M35.6706 50.8053L22.7561 37.891L18.7756 41.8714L35.6706 58.7664L65.1365 29.3007L61.1558 25.3202L35.6706 50.8053Z" fill="#2791B5"/>
</svg>
