<svg width="15" height="17" viewBox="0 0 15 17" fill="none" xmlns="http://www.w3.org/2000/svg">
<path d="M2.16944 16.6736H9.16498C9.68709 16.6736 10.1878 16.4662 10.557 16.097C10.9262 15.7278 11.1336 15.2271 11.1336 14.7049V5.48684C11.1336 4.96472 10.9262 4.46399 10.557 4.09479C10.1878 3.7256 9.68709 3.51819 9.16498 3.51819H2.16944C1.64732 3.51819 1.14658 3.7256 0.777389 4.09479C0.408196 4.46399 0.200785 4.96472 0.200785 5.48684V14.7049C0.200785 15.2271 0.408196 15.7278 0.777389 16.097C1.14658 16.4662 1.64732 16.6736 2.16944 16.6736ZM1.6949 5.01231C1.82084 4.88638 1.99153 4.81546 2.16962 4.81509H9.16479C9.34288 4.81546 9.51357 4.88638 9.63951 5.01231C9.76548 5.13829 9.8364 5.30905 9.83673 5.48721V14.7046C9.8364 14.8827 9.76548 15.0535 9.63951 15.1795C9.51353 15.3055 9.34276 15.3764 9.16461 15.3767H2.16981C1.99165 15.3764 1.82088 15.3055 1.6949 15.1795C1.56897 15.0535 1.49806 14.8829 1.49768 14.7048V5.48703C1.49806 5.30894 1.56897 5.13824 1.6949 5.01231Z" fill="#2791B5" stroke="#2791B5" stroke-width="0.4"/>
<path d="M6.36366 1.49778H6.36365C6.2402 1.49777 6.12176 1.54658 6.03416 1.63355C5.94669 1.72039 5.89705 1.83823 5.896 1.96146C5.896 1.96166 5.896 1.96186 5.896 1.96206L6.36366 1.49778ZM6.36366 1.49778H12.8367C13.0148 1.49815 13.1855 1.56906 13.3114 1.695C13.4374 1.82097 13.5083 1.99174 13.5087 2.1699V10.8584C13.5084 10.9825 13.4589 11.1014 13.3712 11.1891C13.2835 11.2769 13.1646 11.3263 13.0405 11.3266H12.6424C12.4711 11.3266 12.3068 11.3946 12.1856 11.5158C12.0645 11.6369 11.9964 11.8013 11.9964 11.9726C11.9964 12.1439 12.0645 12.3083 12.1856 12.4294C12.3068 12.5506 12.4711 12.6186 12.6424 12.6186H13.0342L6.36366 1.49778Z" fill="#2791B5" stroke="#2791B5" stroke-width="0.4"/>
</svg>
