<svg width="16" height="10" viewBox="0 0 16 10" fill="none" xmlns="http://www.w3.org/2000/svg">
<path d="M7.96841 9.56078C7.75884 9.562 7.55109 9.52183 7.35708 9.44258C7.16307 9.36334 6.98661 9.24658 6.83782 9.09899L0.468305 2.72948C0.319834 2.58101 0.202061 2.40475 0.121709 2.21076C0.0413571 2.01678 3.12879e-09 1.80886 0 1.59889C-3.12879e-09 1.38892 0.0413571 1.18101 0.121709 0.987022C0.202061 0.793036 0.319834 0.616775 0.468305 0.468304C0.616776 0.319833 0.793037 0.202059 0.987024 0.121707C1.18101 0.0413556 1.38892 -3.12879e-09 1.59889 0C1.80886 3.1288e-09 2.01678 0.0413556 2.21076 0.121707C2.40475 0.202059 2.58101 0.319833 2.72948 0.468304L7.96841 5.73908L13.2233 0.675314C13.3697 0.51243 13.5483 0.381522 13.7476 0.290779C13.947 0.200036 14.163 0.151409 14.382 0.147938C14.6011 0.144468 14.8185 0.186229 15.0206 0.27061C15.2228 0.354992 15.4054 0.48018 15.5569 0.638342C15.7085 0.796504 15.8258 0.984238 15.9015 1.18981C15.9772 1.39537 16.0097 1.61435 15.9969 1.83304C15.9841 2.05173 15.9264 2.26543 15.8272 2.46078C15.7281 2.65612 15.5897 2.82891 15.4207 2.96834L9.05122 9.11492C8.76002 9.39568 8.37287 9.55509 7.96841 9.56078Z" fill="#21897E"/>
</svg>
