<svg width="18" height="19" viewBox="0 0 18 19" fill="none" xmlns="http://www.w3.org/2000/svg">
<path d="M8.21516 0H9.78488C9.92441 0 9.99418 0.0697655 9.99418 0.209297V18.6274C9.99418 18.7669 9.92441 18.8367 9.78488 18.8367H8.21516C8.07562 18.8367 8.00586 18.7669 8.00586 18.6274V0.209297C8.00586 0.0697655 8.07562 0 8.21516 0Z" fill="#004852"/>
<path d="M0.209297 8.4248H17.7902C17.9297 8.4248 17.9995 8.49457 17.9995 8.6341V10.2038C17.9995 10.3434 17.9297 10.4131 17.7902 10.4131H0.209297C0.0697655 10.4131 0 10.3434 0 10.2038V8.6341C0 8.49457 0.0697655 8.4248 0.209297 8.4248Z" fill="#004852"/>
</svg>
