<svg width="289" height="165" viewBox="0 0 289 165" fill="none" xmlns="http://www.w3.org/2000/svg">
<g opacity="0.1">
<rect x="1.55436" y="32.4662" width="287.061" height="131.79" stroke="#FFAE58" stroke-width="0.768751"/>
<line x1="0.3842" y1="164.64" x2="0.3842" y2="32.0809" stroke="#FFAE58" stroke-width="0.768751"/>
<line x1="58.4596" y1="164.64" x2="58.4596" y2="32.0809" stroke="#FFAE58" stroke-width="0.768751"/>
<line x1="116.532" y1="164.64" x2="116.532" y2="32.0809" stroke="#FFAE58" stroke-width="0.768751"/>
<line x1="174.607" y1="164.64" x2="174.607" y2="32.0809" stroke="#FFAE58" stroke-width="0.768751"/>
<line x1="232.682" y1="164.64" x2="232.682" y2="32.0809" stroke="#FFAE58" stroke-width="0.768751"/>
<line x1="29.4209" y1="164.64" x2="29.4209" y2="32.0809" stroke="#FFAE58" stroke-width="0.768751"/>
<line x1="87.4944" y1="164.64" x2="87.4944" y2="32.0809" stroke="#FFAE58" stroke-width="0.768751"/>
<line x1="145.57" y1="164.64" x2="145.57" y2="32.0809" stroke="#FFAE58" stroke-width="0.768751"/>
<line x1="203.645" y1="164.64" x2="203.645" y2="32.0809" stroke="#FFAE58" stroke-width="0.768751"/>
<line x1="261.73" y1="132.559" x2="261.73" y2="1.52596e-05" stroke="#FFAE58" stroke-width="0.768751"/>
<line x1="1.16999" y1="62.5243" x2="289" y2="62.5243" stroke="#FFAE58" stroke-width="0.768751"/>
<line x1="1.16999" y1="93.3521" x2="289" y2="93.3521" stroke="#FFAE58" stroke-width="0.768751"/>
<line x1="1.16999" y1="124.18" x2="289" y2="124.18" stroke="#FFAE58" stroke-width="0.768751"/>
<line x1="1.16999" y1="164.256" x2="289" y2="164.256" stroke="#FFAE58" stroke-width="0.768751"/>
</g>
</svg>
