<svg width="12" height="8" viewBox="0 0 12 8" fill="none" xmlns="http://www.w3.org/2000/svg">
<path d="M5.83522 0.606706C4.87397 1.3297 4.25189 2.47963 4.25189 3.7747C4.25189 5.06978 4.87398 6.21972 5.83523 6.94271C5.24353 7.3265 4.53756 7.54942 3.77946 7.54942C1.69212 7.54942 0 5.85943 0 3.77471C0 1.69 1.69212 0 3.77946 0C4.53755 0 5.24351 0.222919 5.83522 0.606706Z" fill="white"/>
<path d="M6.04713 6.86339C7.01866 6.18029 7.6534 5.05153 7.6534 3.77471C7.6534 3.0964 7.47426 2.45988 7.16065 1.90976C7.06841 1.74796 6.96454 1.59363 6.85018 1.44792C6.83446 1.42789 6.81853 1.40802 6.80241 1.38831C6.58407 1.12136 6.32987 0.884822 6.04714 0.686026C5.07561 1.36913 4.44086 2.49789 4.44086 3.77471C4.44086 5.05153 5.0756 6.18029 6.04713 6.86339Z" fill="white"/>
<path d="M8.22032 0C7.48381 0 6.7965 0.210407 6.21537 0.57432C7.2014 1.29508 7.84237 2.46012 7.84237 3.7747C7.84237 5.08929 7.2014 6.25433 6.21535 6.97509C6.79649 7.33901 7.4838 7.54942 8.22032 7.54942C10.3077 7.54942 11.9998 5.85943 11.9998 3.77471C11.9998 1.69 10.3077 0 8.22032 0Z" fill="white"/>
</svg>
