<svg width="32" height="32" viewBox="0 0 32 32" fill="none" xmlns="http://www.w3.org/2000/svg">
<g clip-path="url(#clip0_1_10844)">
<path d="M8.2978 20.005C8.74776 20.0548 9.19766 20.2045 9.59753 20.4042C9.9974 20.604 10.3972 20.9037 10.747 21.2535C11.0968 21.6033 11.3965 22.0031 11.5963 22.4029C11.796 22.8028 11.9457 23.2527 11.9954 23.7027C12.0951 24.3026 12.6448 24.7522 13.2448 24.6519C13.8449 24.5515 14.2952 24.0012 14.1956 23.4013C14.096 22.7014 13.8964 22.1015 13.5969 21.4017C13.2973 20.7019 12.8477 20.1522 12.348 19.6525C11.8483 19.1528 11.2486 18.7532 10.5988 18.4036C9.99897 18.104 9.29911 17.9044 8.59918 17.8049C7.99925 17.7053 7.44897 18.1556 7.3486 18.7556C7.24822 19.3557 7.69787 19.9054 8.2978 20.005Z" fill="white"/>
<path d="M9.60042 15.8043C11.1502 16.1533 12.6497 16.9523 13.8489 18.1516C15.0481 19.3508 15.8472 20.8503 16.1962 22.4C16.2958 23 16.9456 23.3496 17.5457 23.2492C18.1957 23.0988 18.4961 22.4986 18.3965 21.8987C17.9477 19.949 16.9989 18.0996 15.4499 16.5506C13.9508 15.0515 12.0515 14.0527 10.1018 13.604C9.50187 13.5044 8.85165 13.8548 8.75128 14.4548C8.6509 15.0549 8.95052 15.6547 9.60042 15.8043Z" fill="white"/>
<path d="M11.0032 11.4034C13.2528 11.952 15.352 13.1507 17.1009 14.8996C18.8498 16.6485 19.9984 18.7977 20.597 20.9973C20.7966 21.5972 21.3464 21.9468 21.9965 21.7964C22.5966 21.596 22.947 21.0458 22.7974 20.3959C22.149 17.7464 20.8006 15.2972 18.7519 13.2486C16.7032 11.1999 14.2541 9.85142 11.6045 9.20309C11.0047 9.00347 10.4044 9.40384 10.2041 10.004C10.0536 10.654 10.4033 11.2038 11.0032 11.4034Z" fill="white"/>
<path d="M12.4059 7.00263C15.3054 7.8008 18.1044 9.29902 20.4029 11.5976C22.7014 13.8961 24.2497 16.6451 24.9978 19.5946C25.1975 20.1944 25.7472 20.5441 26.3973 20.3937C26.9974 20.1933 27.3478 19.6431 27.1982 18.9932C26.3003 15.6938 24.6022 12.5949 22.0039 9.99656C19.4056 7.39823 16.3067 5.70019 13.0073 4.80228C12.4074 4.60266 11.8072 5.00303 11.6068 5.60315C11.4064 6.20327 11.806 6.80301 12.4059 7.00263Z" fill="white"/>
</g>
<defs>
<clipPath id="clip0_1_10844">
<rect width="22.119" height="22.0912" fill="white" transform="translate(0 16.0099) scale(1.02362) rotate(-45)"/>
</clipPath>
</defs>
</svg>
