<svg width="23" height="19" viewBox="0 0 23 19" fill="none" xmlns="http://www.w3.org/2000/svg">
<path fill-rule="evenodd" clip-rule="evenodd" d="M3.41288 14.4607C3.41288 16.1257 4.76794 17.4807 6.43392 17.4807H7.68568C8.10496 17.4807 8.44525 17.821 8.44525 18.2403C8.44525 18.6596 8.10496 18.9999 7.68568 18.9999H6.43392C3.93039 18.9999 1.89375 16.9632 1.89375 14.4607L1.89284 11.0937L0.759565 11.0946C0.340285 11.0946 0 10.7543 0 10.335C0 9.91576 0.340285 9.57548 0.759565 9.57548L2.63881 9.5743C2.64364 9.57421 2.64847 9.57416 2.65331 9.57416L2.66759 9.57457L20.1182 9.57432C20.1233 9.57421 20.1284 9.57416 20.1335 9.57416L20.1477 9.57457L22.0274 9.57548C22.4467 9.57548 22.7869 9.91576 22.7869 10.335C22.7869 10.7543 22.4467 11.0946 22.0274 11.0946L20.8931 11.0937V14.4607C20.8931 16.9632 18.8564 18.9999 16.3529 18.9999H15.1326C14.7133 18.9999 14.373 18.6596 14.373 18.2403C14.373 17.821 14.7133 17.4807 15.1326 17.4807H16.3529C18.0189 17.4807 19.374 16.1257 19.374 14.4607V11.0937H3.41197L3.41288 14.4607ZM16.3528 0C18.8563 0 20.893 2.03665 20.893 4.53815V6.07145C20.893 6.49073 20.5527 6.83102 20.1334 6.83102C19.7142 6.83102 19.3739 6.49073 19.3739 6.07145V4.53815C19.3739 2.87419 18.0188 1.51913 16.3528 1.51913H15.1325C14.7132 1.51913 14.3729 1.17884 14.3729 0.759565C14.3729 0.340285 14.7132 0 15.1325 0H16.3528ZM7.68588 0C8.10516 0 8.44545 0.340285 8.44545 0.759565C8.44545 1.17884 8.10516 1.51913 7.68588 1.51913H6.43412C4.76814 1.51913 3.41308 2.87419 3.41308 4.53815V6.07145C3.41308 6.49073 3.07279 6.83102 2.65351 6.83102C2.23423 6.83102 1.89395 6.49073 1.89395 6.07145V4.53815C1.89395 2.03665 3.9306 0 6.43412 0H7.68588Z" fill="#1F2C37"/>
</svg>
