<svg width="14" height="16" viewBox="0 0 14 16" fill="none" xmlns="http://www.w3.org/2000/svg">
<path d="M6.00083 0.99993L6.00083 12.8591L1.64114 9.22936C1.43693 9.05963 1.17367 8.97797 0.909264 9.00235C0.644857 9.02673 0.400962 9.15514 0.231236 9.35935C0.0615091 9.56355 -0.0201471 9.82681 0.00423095 10.0912C0.028609 10.3556 0.157024 10.5995 0.361227 10.7692L6.36081 15.7689C6.40853 15.8025 6.45866 15.8326 6.51079 15.8589C6.56079 15.8589 6.59079 15.8589 6.64079 15.9289C6.75544 15.9742 6.87748 15.9979 7.00076 15.9989C7.12404 15.9979 7.24608 15.9742 7.36074 15.9289C7.41073 15.9289 7.44073 15.9289 7.49073 15.8589C7.54286 15.8326 7.59299 15.8025 7.64072 15.7689L13.6403 10.7692C13.7532 10.6752 13.8439 10.5575 13.9062 10.4244C13.9684 10.2914 14.0005 10.1462 14.0003 9.9993C14.0007 9.76567 13.9194 9.53925 13.7703 9.35935C13.6863 9.25809 13.5832 9.1744 13.4669 9.11305C13.3506 9.0517 13.2233 9.01391 13.0923 9.00183C12.9613 8.98976 12.8293 9.00364 12.7037 9.04268C12.5781 9.08172 12.4614 9.14516 12.3604 9.22936L8.00069 12.8591L8.00069 0.99993C8.00069 0.734732 7.89534 0.480395 7.70782 0.292872C7.52029 0.105349 7.26596 -3.17606e-07 7.00076 -3.06013e-07C6.73556 -2.94421e-07 6.48123 0.105349 6.2937 0.292872C6.10618 0.480395 6.00083 0.734732 6.00083 0.99993Z" fill="white"/>
</svg>
