<svg width="6" height="4" viewBox="0 0 6 4" fill="none" xmlns="http://www.w3.org/2000/svg">
<path fill-rule="evenodd" clip-rule="evenodd" d="M-8.43025e-08 1.92849C-8.67865e-08 1.87166 0.0225737 1.81716 0.0627554 1.77698C0.102937 1.7368 0.157435 1.71422 0.214261 1.71422L5.26781 1.71422L3.91926 0.366096C3.87902 0.325863 3.85642 0.271296 3.85642 0.214399C3.85642 0.157502 3.87902 0.102935 3.91926 0.0627025C3.95949 0.0224698 4.01406 -0.000132336 4.07095 -0.000132338C4.12785 -0.000132341 4.18242 0.0224698 4.22265 0.0627024L5.93674 1.77679C5.95669 1.79669 5.97252 1.82034 5.98332 1.84637C5.99412 1.8724 5.99968 1.9003 5.99968 1.92848C5.99968 1.95667 5.99412 1.98457 5.98332 2.0106C5.97252 2.03663 5.95669 2.06028 5.93674 2.08018L4.22265 3.79427C4.18242 3.8345 4.12785 3.8571 4.07095 3.8571C4.01406 3.8571 3.95949 3.8345 3.91926 3.79427C3.87903 3.75403 3.85642 3.69947 3.85642 3.64257C3.85642 3.58567 3.87903 3.53111 3.91926 3.49087L5.26781 2.14275L0.214261 2.14275C0.157435 2.14275 0.102937 2.12017 0.0627554 2.07999C0.0225737 2.03981 -8.18186e-08 1.98531 -8.43025e-08 1.92849Z" fill="white"/>
</svg>
