<svg width="20" height="20" viewBox="0 0 20 20" fill="none" xmlns="http://www.w3.org/2000/svg">
<path d="M18.5293 15.2205C19.4933 13.6501 20.0023 11.8428 19.9997 10.0001L19.9998 9.99988L19.9997 9.9997C20.0023 8.15695 19.4932 6.34967 18.5293 4.77916L18.5238 4.77059C17.6294 3.31294 16.3762 2.10899 14.8839 1.27378C13.3916 0.438568 11.71 6.98821e-06 9.99991 0C8.28977 -6.98804e-06 6.60821 0.438541 5.11589 1.27374C3.62357 2.10894 2.37036 3.31288 1.47602 4.77052L1.47046 4.7792C0.508869 6.35079 7.13753e-06 8.15742 0 9.99985C-7.13738e-06 11.8423 0.508841 13.6489 1.47042 15.2205L1.47607 15.2293C2.37042 16.6869 3.62362 17.8909 5.11593 18.726C6.60824 19.5612 8.28979 19.9998 9.99992 19.9998C11.71 19.9997 13.3916 19.5612 14.8839 18.726C16.3762 17.8908 17.6294 16.6869 18.5237 15.2292L18.5293 15.2205ZM11.2781 18.2859C11.0875 18.4698 10.8682 18.6212 10.6288 18.7344C10.4323 18.8277 10.2174 18.8762 9.99987 18.8762C9.7823 18.8762 9.56746 18.8277 9.37095 18.7344C8.91534 18.5016 8.52532 18.1584 8.23656 17.7361C7.64683 16.8839 7.20979 15.9357 6.94498 14.9337C7.96225 14.8711 8.98055 14.8392 9.99988 14.8381C11.0188 14.8381 12.0371 14.87 13.0549 14.9337C12.9084 15.4489 12.7253 15.953 12.5071 16.4421C12.2198 17.13 11.8025 17.756 11.2781 18.2859V18.2859ZM1.14313 10.5617H5.17657C5.20283 11.6871 5.32482 12.8083 5.54122 13.9131C4.43864 14.0102 3.33887 14.1434 2.24192 14.3129C1.59957 13.1605 1.22408 11.8786 1.14313 10.5617ZM2.24191 5.68685C3.33843 5.85677 4.43859 5.99006 5.54238 6.08671C5.32555 7.19142 5.20329 8.31261 5.17693 9.43809H1.14313C1.22407 8.12121 1.59956 6.83929 2.24191 5.68685H2.24191ZM8.72165 1.71383C8.9122 1.52997 9.13153 1.37849 9.37095 1.26539C9.56746 1.17201 9.7823 1.12357 9.99987 1.12357C10.2174 1.12357 10.4323 1.17201 10.6288 1.26539C11.0844 1.49811 11.4744 1.84132 11.7632 2.26365C12.3529 3.11583 12.7899 4.06408 13.0548 5.06601C12.0375 5.12861 11.0192 5.1605 9.99988 5.16168C8.98097 5.16166 7.96261 5.12977 6.9448 5.066C7.09137 4.55085 7.27446 4.04679 7.49267 3.55766C7.77999 2.86976 8.19727 2.24372 8.72165 1.71383ZM18.8566 9.43809H14.8232C14.7969 8.31261 14.6749 7.19141 14.4585 6.08661C15.5611 5.98959 16.6609 5.85633 17.7578 5.68684C18.4002 6.83928 18.7757 8.12121 18.8566 9.43809ZM6.67128 13.8258C6.45155 12.7508 6.32745 11.6585 6.30044 10.5617H13.6994C13.6727 11.6585 13.5488 12.7508 13.3293 13.8258C12.2207 13.7531 11.1109 13.716 9.99988 13.7145C8.88967 13.7145 7.78014 13.7516 6.67128 13.8258ZM13.3285 6.17396C13.5482 7.24892 13.6723 8.34123 13.6993 9.43809H6.30031C6.32708 8.34124 6.45095 7.24891 6.67048 6.17391C7.77906 6.24665 8.88886 6.28376 9.99988 6.28524C11.1101 6.28524 12.2196 6.24815 13.3285 6.17397V6.17396ZM14.8228 10.5617H18.8566C18.7757 11.8786 18.4002 13.1605 17.7578 14.3129C16.6613 14.143 15.5612 14.0097 14.4574 13.913C14.6742 12.8083 14.7965 11.6872 14.8228 10.5617ZM17.0842 4.6527C16.1254 4.79102 15.1639 4.90054 14.1994 4.98124C14.0261 4.33587 13.8025 3.70506 13.5308 3.09456C13.2827 2.53276 12.9705 2.00151 12.6005 1.51137C14.3887 2.0598 15.958 3.15924 17.0842 4.6527ZM3.72336 3.72336C4.74917 2.69658 6.01119 1.9371 7.3988 1.5115C7.37774 1.53877 7.35609 1.56483 7.33534 1.59266C6.62211 2.61938 6.10259 3.76784 5.8024 4.98141C4.83789 4.89972 3.87563 4.79015 2.9156 4.6527C3.1632 4.32474 3.43309 4.01423 3.72336 3.72336ZM2.91559 15.347C3.8743 15.2087 4.83588 15.0992 5.80034 15.0185C5.97368 15.6639 6.19724 16.2947 6.46898 16.9052C6.71707 17.467 7.02923 17.9982 7.39926 18.4884C5.611 17.94 4.04175 16.8405 2.91559 15.3471V15.347ZM16.2764 16.2764C15.2506 17.3032 13.9886 18.0627 12.6009 18.4882C12.622 18.461 12.6436 18.4349 12.6644 18.4071C13.3776 17.3804 13.8972 16.2319 14.1974 15.0183C15.1619 15.1 16.1241 15.2096 17.0842 15.3471C16.8366 15.675 16.5667 15.9855 16.2764 16.2764V16.2764Z" fill="#1F2C37"/>
</svg>
