<svg width="20" height="20" viewBox="0 0 20 20" fill="none" xmlns="http://www.w3.org/2000/svg">
<path d="M10.4277 9.27539V20H17.3687C18.2385 20 18.9477 19.2919 18.9477 18.421V9.27539H10.4277Z" fill="#9CA2AA"/>
<path d="M9.57337 9.27539H1.05273V18.421C1.05273 19.2919 1.76083 20 2.63174 20H9.57337V9.27539Z" fill="#9CA2AA"/>
<path d="M19.4736 4.21067H16.3156C16.6465 3.77065 16.842 3.22397 16.842 2.63167C16.842 1.18144 15.6619 0 14.2103 0C12.7464 0 11.5197 1.15969 10.9193 1.85024C10.554 2.26885 10.2407 2.71728 10.0003 3.15098C9.75857 2.71728 9.44523 2.26955 9.08136 1.85024C8.47958 1.16074 7.25217 0 5.78967 0C4.33874 0 3.158 1.18144 3.158 2.63167C3.158 3.22397 3.35415 3.77065 3.68504 4.21067H0.526334C0.235096 4.21067 0 4.44787 0 4.737V7.895C0 8.18624 0.235096 8.42134 0.526334 8.42134H19.4736C19.7635 8.42134 20 8.18624 20 7.895V4.737C20 4.44787 19.7635 4.21067 19.4736 4.21067ZM5.78967 4.21067C4.91876 4.21067 4.21067 3.50257 4.21067 2.63167C4.21067 1.76146 4.91876 1.05267 5.78967 1.05267C6.5532 1.05267 7.46376 1.59549 8.28765 2.54114C8.79398 3.12432 9.16347 3.74609 9.34523 4.21067H5.78967ZM14.2103 4.21067H10.6547C10.8372 3.74609 11.2049 3.12432 11.713 2.54114C12.5348 1.59549 13.4457 1.05267 14.2103 1.05267C15.0802 1.05267 15.7893 1.76146 15.7893 2.63167C15.7893 3.50257 15.0802 4.21067 14.2103 4.21067Z" fill="#9CA2AA"/>
</svg>
