<svg width="23" height="19" viewBox="0 0 23 19" fill="none" xmlns="http://www.w3.org/2000/svg">
<g clip-path="url(#clip0_0_562)">
<path d="M19.9085 2.76465L19.0058 1.86193C18.6914 1.54754 18.6914 1.03781 19.0058 0.72342C19.3202 0.409029 19.8299 0.409028 20.1443 0.72342L22.9906 3.5697L20.1443 6.41599C19.8299 6.73038 19.3202 6.73038 19.0058 6.41599C18.6914 6.10159 18.6914 5.59186 19.0058 5.27747L19.9085 4.37475L1.35885 4.37476C0.914231 4.37475 0.553797 4.01432 0.553797 3.5697C0.553797 3.12509 0.914232 2.76465 1.35885 2.76465L19.9085 2.76465Z" fill="white"/>
<path d="M3.30241 15.6748L4.20513 16.5775C4.51952 16.8919 4.51952 17.4016 4.20513 17.716C3.89074 18.0304 3.38101 18.0304 3.06662 17.716L0.220336 14.8698L3.06662 12.0235C3.38101 11.7091 3.89074 11.7091 4.20513 12.0235C4.51952 12.3379 4.51952 12.8476 4.20513 13.162L3.30241 14.0647L21.8521 14.0647C22.2967 14.0647 22.6571 14.4251 22.6571 14.8697C22.6571 15.3144 22.2967 15.6748 21.8521 15.6748L3.30241 15.6748Z" fill="white"/>
</g>
<defs>
<clipPath id="clip0_0_562">
<rect width="23" height="19" fill="white"/>
</clipPath>
</defs>
</svg>
