<svg width="76" height="76" viewBox="0 0 76 76" fill="none" xmlns="http://www.w3.org/2000/svg">
<path d="M70.8682 24.2483C77.3334 31.1685 77.7192 41.7919 71.7731 49.1629L66.7054 55.4449C63.2916 59.6768 59.4337 63.5303 55.198 66.9394L49.16 71.7991C41.7886 77.7319 31.1763 77.3405 24.262 70.8809L14.3048 61.5784L5.11925 51.7464C-1.39092 44.778 -1.73112 34.0647 4.32383 26.6973L9.69566 20.1612C12.8356 16.3406 16.3407 12.8355 20.1612 9.69559L26.6974 4.32377C34.0648 -1.73118 44.7781 -1.39099 51.7465 5.11918L61.5785 14.3047L70.8682 24.2483Z" fill="#132F38"/>
<path fill-rule="evenodd" clip-rule="evenodd" d="M22.3014 32.7378C23.0699 30.8422 24.3866 28.9619 26.2515 27.097C28.0036 25.3448 29.7917 24.0691 31.6156 23.2699C33.4395 22.4911 35.207 22.2094 36.9182 22.4245C38.6397 22.65 40.2279 23.398 41.6829 24.6686L41.9442 24.8991L37.5638 29.2796L37.364 29.1412C36.6877 28.6699 35.9346 28.4291 35.1046 28.4188C34.2746 28.4291 33.4088 28.6494 32.5071 29.0798C31.6156 29.5204 30.7497 30.1608 29.9095 31.001C29.0488 31.8617 28.4238 32.7122 28.0344 33.5524C27.645 34.4131 27.4913 35.2226 27.5733 35.9809C27.6553 36.7596 27.978 37.4308 28.5416 37.9944L28.557 38.0097C29.305 38.7577 30.1862 39.0446 31.2006 38.8704C32.215 38.7167 33.5573 38.0917 35.2275 36.9953L38.0249 35.1202C40.4082 33.5375 42.5969 32.6485 44.5911 32.453L31.8112 45.2329C31.1865 45.3879 30.5885 45.4752 30.0171 45.4949C27.937 45.5871 26.026 44.7623 24.2841 43.0203L24.2687 43.005C22.8444 41.5807 21.9684 39.9873 21.6405 38.2249C21.3126 36.483 21.5329 34.6539 22.3014 32.7378ZM49.5971 33.7203C50.0538 34.0334 50.4949 34.4027 50.9203 34.8281L50.9357 34.8435C52.2882 36.1961 53.1029 37.7382 53.3795 39.4699C53.6664 41.2118 53.4512 42.9947 52.734 44.8186C52.027 46.6528 50.8537 48.3896 49.2142 50.0291C47.503 51.7403 45.7611 52.9494 43.9884 53.6564C42.2055 54.3736 40.479 54.5939 38.8088 54.3173C37.1385 54.0406 35.622 53.2926 34.2592 52.0733L33.9518 51.7966L38.3323 47.4162L38.5321 47.5852C39.1981 48.0873 39.9154 48.364 40.6839 48.4152C41.4626 48.4767 42.2619 48.323 43.0816 47.9541C43.8911 47.5955 44.6801 47.0319 45.4486 46.2634C46.2376 45.4744 46.8012 44.6752 47.1393 43.8657C47.4877 43.0665 47.6158 42.3133 47.5235 41.6063C47.4211 40.9095 47.1034 40.2947 46.5706 39.7619L46.5552 39.7465C45.9609 39.1522 45.2473 38.871 44.4145 38.9029L49.5971 33.7203Z" fill="white"/>
</svg>
