<svg width="22" height="22" viewBox="0 0 22 22" fill="none" xmlns="http://www.w3.org/2000/svg">
<path fill-rule="evenodd" clip-rule="evenodd" d="M6.84306 0.978311C7.91831 0.928811 8.26114 0.917811 11.0001 0.917811C13.7391 0.917811 14.082 0.929728 15.1563 0.978311C16.2306 1.02689 16.964 1.19831 17.6056 1.44673C18.2776 1.70064 18.8871 2.09756 19.3913 2.61089C19.9046 3.11414 20.3006 3.72281 20.5536 4.39564C20.803 5.03731 20.9735 5.77064 21.023 6.84314C21.0725 7.92022 21.0835 8.26306 21.0835 11.0011C21.0835 13.7401 21.0715 14.083 21.023 15.1582C20.9744 16.2307 20.803 16.9641 20.5536 17.6057C20.3006 18.2786 19.904 18.8883 19.3913 19.3923C18.8871 19.9056 18.2776 20.3016 17.6056 20.5546C16.964 20.804 16.2306 20.9745 15.1581 21.024C14.082 21.0735 13.7391 21.0845 11.0001 21.0845C8.26114 21.0845 7.91831 21.0725 6.84306 21.024C5.77056 20.9754 5.03723 20.804 4.39556 20.5546C3.72265 20.3016 3.11298 19.9049 2.60898 19.3923C2.09599 18.8887 1.69902 18.2794 1.44573 17.6066C1.19731 16.965 1.02681 16.2316 0.977312 15.1591C0.927812 14.0821 0.916812 13.7392 0.916812 11.0011C0.916812 8.26214 0.928729 7.91931 0.977312 6.84497C1.0259 5.77064 1.19731 5.03731 1.44573 4.39564C1.69939 3.72288 2.09667 3.11351 2.60989 2.60998C3.11318 2.0971 3.72224 1.70013 4.39464 1.44673C5.03631 1.19831 5.76964 1.02781 6.84214 0.978311H6.84306ZM15.0747 2.79331C14.0114 2.74473 13.6924 2.73464 11.0001 2.73464C8.30789 2.73464 7.98889 2.74473 6.92556 2.79331C5.94198 2.83823 5.40848 3.00231 5.05281 3.14073C4.58256 3.32406 4.24614 3.54131 3.89323 3.89423C3.55869 4.21969 3.30123 4.6159 3.13973 5.05381C3.00131 5.40947 2.83723 5.94297 2.79231 6.92656C2.74373 7.98989 2.73364 8.30889 2.73364 11.0011C2.73364 13.6934 2.74373 14.0124 2.79231 15.0757C2.83723 16.0593 3.00131 16.5928 3.13973 16.9485C3.30106 17.3857 3.55864 17.7826 3.89323 18.108C4.21864 18.4426 4.61556 18.7002 5.05281 18.8616C5.40848 19 5.94198 19.164 6.92556 19.209C7.98889 19.2575 8.30697 19.2676 11.0001 19.2676C13.6933 19.2676 14.0114 19.2575 15.0747 19.209C16.0583 19.164 16.5918 19 16.9475 18.8616C17.4177 18.6782 17.7541 18.461 18.1071 18.108C18.4416 17.7826 18.6992 17.3857 18.8606 16.9485C18.999 16.5928 19.1631 16.0593 19.208 15.0757C19.2566 14.0124 19.2666 13.6934 19.2666 11.0011C19.2666 8.30889 19.2566 7.98989 19.208 6.92656C19.1631 5.94297 18.999 5.40947 18.8606 5.05381C18.6772 4.58356 18.46 4.24714 18.1071 3.89423C17.7816 3.55971 17.3854 3.30225 16.9475 3.14073C16.5918 3.00231 16.0583 2.83823 15.0747 2.79331ZM9.71222 14.1096C10.4315 14.409 11.2324 14.4494 11.9782 14.2239C12.7239 13.9984 13.3682 13.521 13.8011 12.8732C14.234 12.2254 14.4285 11.4474 14.3515 10.6722C14.2745 9.89687 13.9307 9.17236 13.3789 8.62239C13.0271 8.27083 12.6017 8.00163 12.1334 7.83419C11.6651 7.66675 11.1655 7.60522 10.6706 7.65404C10.1757 7.70285 9.6977 7.8608 9.27113 8.11651C8.84456 8.37222 8.47999 8.71932 8.20367 9.13284C7.92735 9.54635 7.74615 10.016 7.67311 10.5079C7.60008 10.9999 7.63703 11.5019 7.7813 11.9779C7.92558 12.4538 8.17358 12.8919 8.50747 13.2605C8.84135 13.6291 9.25281 13.9191 9.71222 14.1096ZM7.33531 7.33631C7.81658 6.85503 8.38793 6.47327 9.01675 6.21281C9.64556 5.95234 10.3195 5.81828 11.0001 5.81828C11.6808 5.81828 12.3547 5.95234 12.9835 6.21281C13.6123 6.47327 14.1837 6.85503 14.665 7.33631C15.1462 7.81758 15.528 8.38893 15.7885 9.01775C16.0489 9.64656 16.183 10.3205 16.183 11.0011C16.183 11.6818 16.0489 12.3557 15.7885 12.9845C15.528 13.6133 15.1462 14.1847 14.665 14.666C13.693 15.6379 12.3747 16.184 11.0001 16.184C9.62556 16.184 8.30728 15.6379 7.33531 14.666C6.36333 13.694 5.81729 12.3757 5.81729 11.0011C5.81729 9.62656 6.36333 8.30828 7.33531 7.33631ZM17.3325 6.59014C17.4517 6.47764 17.5472 6.34235 17.6132 6.19228C17.6793 6.04222 17.7145 5.88043 17.7169 5.71649C17.7193 5.55256 17.6888 5.38981 17.6272 5.23788C17.5655 5.08596 17.474 4.94794 17.3581 4.83201C17.2422 4.71608 17.1042 4.62459 16.9522 4.56295C16.8003 4.50131 16.6376 4.47079 16.4736 4.47318C16.3097 4.47557 16.1479 4.51082 15.9978 4.57686C15.8478 4.6429 15.7125 4.73838 15.6 4.85764C15.3812 5.08959 15.2614 5.39767 15.266 5.71649C15.2707 6.03532 15.3994 6.33978 15.6249 6.56525C15.8503 6.79071 16.1548 6.91943 16.4736 6.92408C16.7924 6.92873 17.1005 6.80894 17.3325 6.59014Z" fill="#2791B5"/>
</svg>
