<svg width="12" height="20" viewBox="0 0 12 20" fill="none" xmlns="http://www.w3.org/2000/svg">
<path d="M11.624 13.6601V13.9694L8.04144 13.2478C7.80947 14.021 6.88162 14.6138 5.79911 14.6138C4.71661 14.6138 3.78875 14.021 3.55679 13.222L0 13.9179V13.6086C0 11.856 0.489703 10.593 1.59798 9.53632C1.21137 4.5362 3.45369 1.36601 5.67025 0.0773213L5.79911 0L5.92798 0.0773213C8.14453 1.36601 10.3611 4.5362 10.0003 9.53632C11.1343 10.593 11.624 11.856 11.624 13.6601ZM6.93316 7.42287C7.60328 6.80429 7.65483 5.74757 7.03626 5.07745C6.41769 4.40733 5.36096 4.35578 4.69084 4.97435C4.02072 5.59292 3.96917 6.64965 4.58774 7.31977C5.20632 7.98989 6.26304 8.04144 6.93316 7.42287Z" fill="#050C0E"/>
<path d="M6.64959 16.3153C6.64959 17.0628 5.82482 18.2226 5.82482 18.2226C5.82482 18.2226 5.00006 16.9854 5.00006 16.3153C5.00006 15.7483 5.3609 15.2844 5.82482 15.2844C6.28875 15.2844 6.64959 15.7483 6.64959 16.3153Z" fill="#050C0E"/>
<path d="M9.07257 18.969H2.55179V20H9.07257V18.969Z" fill="#050C0E"/>
</svg>
