<svg width="16" height="15" viewBox="0 0 16 15" fill="none" xmlns="http://www.w3.org/2000/svg">
<path fill-rule="evenodd" clip-rule="evenodd" d="M11.1889 2.86821L10.1515 1.74388C9.96276 1.53927 9.90517 1.24578 10.0026 0.984977C10.1001 0.724176 10.336 0.540686 10.6126 0.510127C11.9799 0.358835 13.9915 0.13634 15.184 0.00445979C15.4161 -0.0213263 15.6467 0.0649788 15.805 0.236618C15.9634 0.408258 16.0309 0.645015 15.9865 0.874307C15.7603 2.04641 15.3798 4.01916 15.1194 5.36932C15.0657 5.6467 14.8607 5.87038 14.5891 5.94769C14.3177 6.02479 14.0256 5.94279 13.834 5.7351L12.811 4.62637L9.8661 7.34342C9.67205 7.52246 9.36909 7.51027 9.19004 7.31621L8.21677 6.26132C8.03773 6.06727 8.04993 5.76431 8.24398 5.58526L11.1889 2.86821Z" fill="#050C0E"/>
<path d="M6.62006 7.10409C6.73757 7.10759 6.85157 7.14037 6.95054 7.20448C6.99055 7.23023 7.02655 7.2609 7.06009 7.29463C7.39631 7.65004 7.72769 8.0099 8.05489 8.37361C8.10277 8.42952 8.14173 8.49162 8.16814 8.56041C8.23421 8.73132 8.2216 8.92718 8.1336 9.08803C8.10111 9.14808 8.05854 9.20116 8.00881 9.24823L5.1722 11.8635C5.49123 12.2095 5.81906 12.5475 6.12865 12.9018C6.13875 12.9136 6.14864 12.9257 6.1583 12.9379C6.2292 13.0316 6.28227 13.1368 6.31277 13.2506C6.33095 13.3188 6.34102 13.3889 6.3428 13.4596C6.34821 13.6966 6.2562 13.9299 6.0906 14.0997C6.03408 14.1575 5.97005 14.2075 5.90028 14.2479C5.80253 14.3047 5.69505 14.3407 5.58368 14.358C4.0543 14.5678 2.51466 14.6968 0.979956 14.866C0.868214 14.8767 0.755944 14.8692 0.647556 14.839C0.421569 14.7761 0.226346 14.6226 0.111909 14.4181C0.0700889 14.3432 0.0395148 14.2624 0.0209053 14.1787C-0.00382383 14.0685 -0.00540111 13.9561 0.0109751 13.8446C0.281594 12.3233 0.557927 10.802 0.891107 9.29301C0.917624 9.18193 0.963154 9.07691 1.02813 8.98284C1.07487 8.91575 1.13044 8.85516 1.19329 8.8029C1.38599 8.64313 1.64205 8.57015 1.89012 8.60498C1.97114 8.6161 2.05023 8.63836 2.12509 8.67102C2.23509 8.71887 2.33257 8.78842 2.41606 8.87413L2.4264 8.88534L3.34802 9.88495C4.29729 9.00975 5.23541 8.12245 6.19603 7.25956C6.22826 7.23187 6.26206 7.20722 6.2991 7.18608C6.38358 7.13787 6.47776 7.11165 6.57495 7.10502C6.58979 7.10435 6.60503 7.10412 6.62006 7.10409ZM6.59903 7.40331C6.54306 7.40569 6.48828 7.42082 6.43991 7.44996C6.4206 7.46166 6.40289 7.47555 6.38598 7.49073L3.44078 10.2061C3.42592 10.2178 3.4228 10.2219 3.40574 10.2303C3.36039 10.2526 3.30588 10.2504 3.26249 10.2245C3.24617 10.2147 3.24339 10.2104 3.22952 10.1976C2.8815 9.82009 2.54914 9.42739 2.18482 9.06577C2.12759 9.01075 2.06082 8.96657 1.98687 8.93754C1.94252 8.91987 1.89625 8.90762 1.8489 8.90126C1.68352 8.87804 1.51268 8.92655 1.38413 9.03327C1.34209 9.06796 1.3051 9.10857 1.27387 9.15322C1.22867 9.21889 1.19733 9.29253 1.18042 9.37035C0.875974 10.8752 0.575094 12.3809 0.306341 13.8928C0.295311 13.9664 0.29651 14.0409 0.312811 14.1138C0.343945 14.2538 0.427279 14.38 0.544087 14.4634C0.594888 14.4995 0.651728 14.5277 0.711295 14.546C0.782758 14.5683 0.856546 14.5751 0.931017 14.5703C2.4733 14.423 4.0196 14.2968 5.55068 14.0606C5.62783 14.0472 5.70129 14.0202 5.76752 13.9786C5.80725 13.9538 5.84399 13.9244 5.87646 13.8908C5.99591 13.7685 6.05684 13.5968 6.04133 13.4264C6.03651 13.3731 6.02426 13.3206 6.00534 13.2705C5.97858 13.2 5.9382 13.1364 5.88757 13.0805L4.85102 11.9563C4.83935 11.9414 4.83524 11.9383 4.82684 11.9212C4.80455 11.8759 4.80677 11.8214 4.83265 11.778C4.84241 11.7617 4.84676 11.7589 4.8596 11.745C5.8458 10.8358 6.86692 9.96305 7.81778 9.01723C7.84232 8.99135 7.86317 8.96278 7.87865 8.93061C7.91793 8.84926 7.92186 8.7525 7.8893 8.66822C7.87648 8.6349 7.85802 8.60474 7.83565 8.57696C7.51748 8.20451 7.18508 7.84398 6.83965 7.49666C6.78015 7.44008 6.70486 7.40781 6.62315 7.40344C6.61512 7.40311 6.60707 7.40321 6.59903 7.40331Z" fill="#050C0E"/>
</svg>
