<svg width="66" height="66" viewBox="0 0 66 66" fill="none" xmlns="http://www.w3.org/2000/svg">
<mask id="mask0_0_3051" style="mask-type:alpha" maskUnits="userSpaceOnUse" x="0" y="0" width="66" height="66">
<path opacity="0.9" d="M46.0909 0.450351C55.5373 0.771487 63.3067 7.99635 64.3123 17.3945L65.1315 25.0514C65.7088 30.4471 65.7058 35.8893 65.1224 41.2844L64.3286 48.626C63.3134 58.015 55.5478 65.2281 46.1095 65.549L32.8436 66L19.7486 65.5548C10.2365 65.2315 2.43579 57.9109 1.50958 48.4385L0.722181 40.3858C0.241873 35.4736 0.241873 30.5264 0.722182 25.6142L1.50958 17.5615C2.43579 8.08906 10.2365 0.768543 19.7486 0.445173L32.8436 -1.44931e-06L46.0909 0.450351Z" fill="#132F38"/>
</mask>
<g mask="url(#mask0_0_3051)">
<g clip-path="url(#clip0_0_3051)">
<path d="M35.5 83C60.0767 83 80 63.0767 80 38.5C80 13.9233 60.0767 -6 35.5 -6C10.9233 -6 -9 13.9233 -9 38.5C-9 63.0767 10.9233 83 35.5 83Z" fill="#F0F0F0"/>
<path d="M33.5664 38.4994H80.0011C80.0011 34.4829 79.4657 30.5919 78.4681 26.8906H33.5664V38.4994Z" fill="#D80027"/>
<path d="M33.5664 15.2826H73.4697C70.7456 10.8375 67.2626 6.90842 63.2017 3.67383H33.5664V15.2826Z" fill="#D80027"/>
<path d="M-2.46739 61.7174H73.4698C75.6567 58.1489 77.3527 54.2482 78.4682 50.1086H-7.46582C-6.35037 54.2482 -4.65432 58.1489 -2.46739 61.7174Z" fill="#D80027"/>
<path d="M11.6132 0.949301H15.6685L11.8964 3.6897L13.3373 8.12388L9.56536 5.38348L5.79347 8.12388L7.03808 4.29323C3.71692 7.05971 0.805992 10.3009 -1.59284 13.9124H-0.29347L-2.69456 15.6567C-3.06864 16.2808 -3.42742 16.9147 -3.77125 17.5581L-2.62468 21.0869L-4.76381 19.5327C-5.29555 20.6593 -5.78192 21.8113 -6.2191 22.9872L-4.95589 26.8754H-0.29347L-4.06554 29.6158L-2.62468 34.05L-6.39658 31.3096L-8.65599 32.9512C-8.88214 34.7691 -9 36.6207 -9 38.5H35.5C35.5 13.9235 35.5 11.0261 35.5 -6C26.7092 -6 18.5144 -3.44994 11.6132 0.949301ZM13.3373 34.05L9.56536 31.3096L5.79347 34.05L7.23433 29.6158L3.46226 26.8754H8.12468L9.56536 22.4412L11.0061 26.8754H15.6685L11.8964 29.6158L13.3373 34.05ZM11.8964 16.6528L13.3373 21.0869L9.56536 18.3465L5.79347 21.0869L7.23433 16.6528L3.46226 13.9124H8.12468L9.56536 9.47818L11.0061 13.9124H15.6685L11.8964 16.6528ZM29.2992 34.05L25.5273 31.3096L21.7554 34.05L23.1963 29.6158L19.4242 26.8754H24.0866L25.5273 22.4412L26.968 26.8754H31.6304L27.8583 29.6158L29.2992 34.05ZM27.8583 16.6528L29.2992 21.0869L25.5273 18.3465L21.7554 21.0869L23.1963 16.6528L19.4242 13.9124H24.0866L25.5273 9.47818L26.968 13.9124H31.6304L27.8583 16.6528ZM27.8583 3.6897L29.2992 8.12388L25.5273 5.38348L21.7554 8.12388L23.1963 3.6897L19.4242 0.949301H24.0866L25.5273 -3.48488L26.968 0.949301H31.6304L27.8583 3.6897Z" fill="#0052B4"/>
</g>
</g>
<defs>
<clipPath id="clip0_0_3051">
<rect width="89" height="89" fill="white" transform="translate(-9 -6)"/>
</clipPath>
</defs>
</svg>
