<svg width="20" height="20" viewBox="0 0 20 20" fill="none" xmlns="http://www.w3.org/2000/svg">
<path d="M10.4277 9.27539V19.9997H17.3685C18.2383 19.9997 18.9475 19.2916 18.9475 18.4207V9.27539H10.4277Z" fill="#2791B5"/>
<path d="M9.57315 9.27539H1.05273V18.4207C1.05273 19.2916 1.76081 19.9997 2.63169 19.9997H9.57315V9.27539Z" fill="#2791B5"/>
<path d="M19.4731 4.21056H16.3152C16.6461 3.77056 16.8415 3.22389 16.8415 2.6316C16.8415 1.18141 15.6615 0 14.2099 0C12.7461 0 11.5194 1.15966 10.919 1.85019C10.5538 2.26879 10.2404 2.71721 10.0001 3.1509C9.75832 2.71721 9.44499 2.26949 9.08113 1.85019C8.47937 1.16071 7.25199 0 5.78952 0C4.33863 0 3.15792 1.18141 3.15792 2.6316C3.15792 3.22389 3.35406 3.77056 3.68494 4.21056H0.52632C0.23509 4.21056 0 4.44775 0 4.73688V7.8948C0 8.18603 0.23509 8.42112 0.52632 8.42112H19.4731C19.763 8.42112 19.9995 8.18603 19.9995 7.8948V4.73688C19.9995 4.44775 19.763 4.21056 19.4731 4.21056ZM5.78952 4.21056C4.91864 4.21056 4.21056 3.50248 4.21056 2.6316C4.21056 1.76142 4.91864 1.05264 5.78952 1.05264C6.55303 1.05264 7.46357 1.59545 8.28743 2.54107C8.79375 3.12424 9.16323 3.74599 9.34499 4.21056H5.78952ZM14.2099 4.21056H10.6545C10.8369 3.74599 11.2047 3.12424 11.7127 2.54107C12.5345 1.59545 13.4454 1.05264 14.2099 1.05264C15.0798 1.05264 15.7889 1.76142 15.7889 2.6316C15.7889 3.50248 15.0798 4.21056 14.2099 4.21056Z" fill="#2791B5"/>
</svg>
