<svg width="22" height="22" viewBox="0 0 22 22" fill="none" xmlns="http://www.w3.org/2000/svg">
<path d="M8.70801 12.6039C8.70801 13.4931 9.39552 14.2081 10.2389 14.2081H11.9622C12.6955 14.2081 13.2913 13.5847 13.2913 12.8056C13.2913 11.9714 12.9247 11.6689 12.3839 11.4764L9.62467 10.5139C9.08384 10.3214 8.71718 10.0281 8.71718 9.18473C8.71718 8.41473 9.313 7.78223 10.0463 7.78223H11.7697C12.613 7.78223 13.3005 8.49723 13.3005 9.38639" stroke="#F75555" stroke-width="1.5" stroke-linecap="round" stroke-linejoin="round"/>
<path d="M11 6.875V15.125" stroke="#F75555" stroke-width="1.5" stroke-linecap="round" stroke-linejoin="round"/>
<path d="M20.1663 10.9997C20.1663 16.0597 16.0597 20.1663 10.9997 20.1663C5.93967 20.1663 1.83301 16.0597 1.83301 10.9997C1.83301 5.93967 5.93967 1.83301 10.9997 1.83301" stroke="#F75555" stroke-width="1.5" stroke-linecap="round" stroke-linejoin="round"/>
<path d="M20.1667 5.49967V1.83301H16.5" stroke="#F75555" stroke-width="1.5" stroke-linecap="round" stroke-linejoin="round"/>
<path d="M15.583 6.41634L20.1663 1.83301" stroke="#F75555" stroke-width="1.5" stroke-linecap="round" stroke-linejoin="round"/>
</svg>
