<svg width="33" height="48" viewBox="0 0 33 48" fill="none" xmlns="http://www.w3.org/2000/svg">
<path d="M13.875 31C14.3582 31 14.75 31.3918 14.75 31.875C14.75 32.3582 14.3582 32.75 13.875 32.75H11.25C9.317 32.75 7.75 31.183 7.75 29.25V18.75C7.75 16.817 9.317 15.25 11.25 15.25H21.75C23.683 15.25 25.25 16.817 25.25 18.75V23.125C25.25 23.6082 24.8582 24 24.375 24C23.8918 24 23.5 23.6082 23.5 23.125V18.75C23.5 17.7835 22.7165 17 21.75 17H11.25C10.2835 17 9.5 17.7835 9.5 18.75V29.25C9.5 30.2165 10.2835 31 11.25 31H13.875ZM12.125 22.25C11.6418 22.25 11.25 21.8582 11.25 21.375C11.25 20.8918 11.6418 20.5 12.125 20.5H20.875C21.3582 20.5 21.75 20.8918 21.75 21.375C21.75 21.8582 21.3582 22.25 20.875 22.25H12.125ZM12.125 25.75C11.6418 25.75 11.25 25.3582 11.25 24.875C11.25 24.3918 11.6418 24 12.125 24H20.875C21.3582 24 21.75 24.3918 21.75 24.875C21.75 25.3582 21.3582 25.75 20.875 25.75H12.125ZM19.5933 30.125L18.103 32.3604C17.835 32.7625 17.2917 32.8711 16.8896 32.603C16.4875 32.335 16.3789 31.7917 16.647 31.3896L18.371 28.8036C18.5495 28.5358 18.85 28.375 19.1718 28.375H22.1567L23.647 26.1396C23.915 25.7375 24.4583 25.6289 24.8604 25.897C25.2625 26.165 25.3711 26.7083 25.103 27.1104L23.379 29.6964C23.2005 29.9642 22.9 30.125 22.5782 30.125H19.5933Z" fill="#1C1C1C"/>
</svg>
