<svg width="10" height="46" viewBox="0 0 10 46" fill="none" xmlns="http://www.w3.org/2000/svg">
<path d="M9.00408 23.0295C9.00522 23.2269 8.96739 23.4225 8.89276 23.6052C8.81813 23.788 8.70817 23.9541 8.56918 24.0943L2.57055 30.0929C2.43072 30.2327 2.26473 30.3436 2.08204 30.4193C1.89935 30.495 1.70354 30.5339 1.50579 30.5339C1.30805 30.5339 1.11224 30.495 0.92955 30.4193C0.746859 30.3436 0.580862 30.2327 0.441036 30.0929C0.30121 29.9531 0.190294 29.7871 0.114621 29.6044C0.0389475 29.4217 -6.01233e-08 29.2259 -6.58203e-08 29.0281C-7.15174e-08 28.8304 0.0389475 28.6346 0.114621 28.4519C0.190294 28.2692 0.30121 28.1032 0.441036 27.9634L5.4049 23.0295L0.635991 18.0806C0.482592 17.9427 0.359307 17.7746 0.273847 17.5868C0.188387 17.399 0.142592 17.1956 0.139324 16.9893C0.136056 16.7831 0.175384 16.5783 0.254853 16.3879C0.334321 16.1975 0.452219 16.0256 0.601172 15.8828C0.750125 15.7401 0.926928 15.6296 1.12053 15.5583C1.31412 15.487 1.52035 15.4564 1.72631 15.4685C1.93226 15.4805 2.13352 15.5349 2.31749 15.6283C2.50146 15.7217 2.66419 15.852 2.7955 16.0111L8.58418 22.0097C8.84859 22.284 8.99872 22.6486 9.00408 23.0295Z" fill="#21897E"/>
</svg>
