<svg width="66" height="66" viewBox="0 0 66 66" fill="none" xmlns="http://www.w3.org/2000/svg">
<mask id="mask0_0_3334" style="mask-type:alpha" maskUnits="userSpaceOnUse" x="0" y="0" width="66" height="66">
<path opacity="0.9" d="M46.0909 0.450351C55.5373 0.771487 63.3067 7.99635 64.3123 17.3945L65.1315 25.0514C65.7088 30.4471 65.7058 35.8893 65.1224 41.2844L64.3286 48.626C63.3134 58.015 55.5478 65.2281 46.1095 65.549L32.8436 66L19.7486 65.5548C10.2365 65.2315 2.43579 57.9109 1.50958 48.4385L0.722181 40.3858C0.241873 35.4736 0.241873 30.5264 0.722182 25.6142L1.50958 17.5615C2.43579 8.08906 10.2365 0.768543 19.7486 0.445173L32.8436 -1.44931e-06L46.0909 0.450351Z" fill="#132F38"/>
</mask>
<g mask="url(#mask0_0_3334)">
<g clip-path="url(#clip0_0_3334)">
<path d="M33.499 76.0005C56.9711 76.0005 75.999 56.9726 75.999 33.5005C75.999 10.0284 56.9711 -8.99951 33.499 -8.99951C10.0269 -8.99951 -9.00098 10.0284 -9.00098 33.5005C-9.00098 56.9726 10.0269 76.0005 33.499 76.0005Z" fill="#F0F0F0"/>
<path d="M75.9997 33.5001C75.9997 15.2266 64.4663 -0.351494 48.2822 -6.35645V73.3568C64.4663 67.3517 75.9997 51.7736 75.9997 33.5001Z" fill="#D80027"/>
<path d="M-9 33.5001C-9 51.7736 2.5336 67.3517 18.7175 73.3566V-6.35645C2.5336 -0.351493 -9 15.2266 -9 33.5001Z" fill="#0052B4"/>
</g>
</g>
<defs>
<clipPath id="clip0_0_3334">
<rect width="85" height="85" fill="white" transform="translate(-9 -9)"/>
</clipPath>
</defs>
</svg>
