<svg width="22" height="20" viewBox="0 0 22 20" fill="none" xmlns="http://www.w3.org/2000/svg">
<path fill-rule="evenodd" clip-rule="evenodd" d="M17.3448 5.97951H21.9988C21.9988 2.20501 19.7598 0 15.9662 0H6.03255C2.23899 0 0 2.20501 0 5.93137V14.0677C0 17.7941 2.23899 19.9991 6.03255 19.9991H15.9662C19.7598 19.9991 21.9988 17.7941 21.9988 14.0677V13.7211H17.3448C15.1849 13.7211 13.4339 11.9967 13.4339 9.86957C13.4339 7.74242 15.1849 6.01803 17.3448 6.01803V5.97951ZM17.3458 7.6354H21.1785C21.6321 7.6354 21.9998 7.99753 21.9998 8.44423V11.2558C21.9945 11.7004 21.6299 12.0595 21.1785 12.0647H17.4338C16.3404 12.0792 15.3842 11.3419 15.1362 10.293C15.012 9.64185 15.1863 8.96996 15.6125 8.45737C16.0387 7.94479 16.6732 7.64392 17.3458 7.6354ZM17.511 10.5914H17.8728C18.3371 10.5914 18.7136 10.2206 18.7136 9.76329C18.7136 9.30595 18.3371 8.93521 17.8728 8.93521H17.511C17.2889 8.93263 17.075 9.01773 16.917 9.17149C16.759 9.32526 16.6701 9.53491 16.6702 9.75366C16.6701 10.2126 17.045 10.5861 17.511 10.5914ZM5.21174 5.98019H11.4203C11.8847 5.98019 12.2611 5.60944 12.2611 5.15211C12.2611 4.69477 11.8847 4.32403 11.4203 4.32403H5.21174C4.75115 4.324 4.37626 4.68891 4.3709 5.14248C4.37087 5.6014 4.74578 5.97491 5.21174 5.98019Z" fill="#9CA2AA"/>
</svg>
