<svg width="40" height="40" viewBox="0 0 40 40" fill="none" xmlns="http://www.w3.org/2000/svg">
<circle cx="20" cy="20" r="15" fill="#E5F1F5"/>
<path d="M26.4 17.75V17C26.4 16.1716 25.6837 15.5 24.8 15.5H15.2C14.3163 15.5 13.6 16.1716 13.6 17V17.75H26.4ZM26.4 19.25H13.6V23C13.6 23.8284 14.3163 24.5 15.2 24.5H24.8C25.6837 24.5 26.4 23.8284 26.4 23V19.25ZM15.2 14H24.8C26.5673 14 28 15.3431 28 17V23C28 24.6569 26.5673 26 24.8 26H15.2C13.4327 26 12 24.6569 12 23V17C12 15.3431 13.4327 14 15.2 14ZM16 23C15.5582 23 15.2 22.6642 15.2 22.25C15.2 21.8358 15.5582 21.5 16 21.5H17.6C18.0418 21.5 18.4 21.8358 18.4 22.25C18.4 22.6642 18.0418 23 17.6 23H16Z" fill="#2B6173"/>
</svg>
