<svg width="10" height="16" viewBox="0 0 10 16" fill="none" xmlns="http://www.w3.org/2000/svg">
<path d="M9.561 8.03142C9.56221 8.24099 9.52204 8.44874 9.44279 8.64275C9.36355 8.83677 9.24678 9.01323 9.0992 9.16203L2.72954 15.5317C2.58107 15.6802 2.4048 15.7979 2.21081 15.8783C2.01682 15.9586 1.8089 16 1.59893 16C1.38895 16 1.18104 15.9586 0.987044 15.8783C0.793053 15.7979 0.616789 15.6802 0.468315 15.5317C0.319841 15.3832 0.202064 15.2069 0.12171 15.013C0.0413564 14.819 -6.3842e-08 14.611 -6.98914e-08 14.4011C-7.59408e-08 14.1911 0.0413564 13.9832 0.12171 13.7892C0.202064 13.5952 0.31984 13.4189 0.468315 13.2705L5.7392 8.03142L0.675328 2.77645C0.512441 2.62996 0.38153 2.45144 0.290785 2.25205C0.200039 2.05266 0.151411 1.83669 0.147941 1.61765C0.144471 1.39861 0.186232 1.1812 0.270616 0.979038C0.354999 0.776872 0.48019 0.594295 0.638355 0.44272C0.796521 0.291145 0.98426 0.173832 1.18983 0.0981237C1.3954 0.0224162 1.61438 -0.0100609 1.83308 0.00272296C2.05178 0.0155068 2.26548 0.073278 2.46083 0.172423C2.65618 0.271566 2.82898 0.40995 2.9684 0.578921L9.11512 6.94857C9.39589 7.23979 9.5553 7.62694 9.561 8.03142Z" fill="#2791B5"/>
</svg>
