<svg width="20" height="17" viewBox="0 0 20 17" fill="none" xmlns="http://www.w3.org/2000/svg">
<path d="M9.55774 13.3271H10.463C10.6315 13.3271 10.7788 13.1797 10.7788 13.0113V12.2113L10.863 12.1902C11.8315 11.9376 12.5473 11.1375 12.6526 10.1901C12.7157 9.53748 12.5052 8.88483 12.0631 8.42166C11.621 7.93743 11.0104 7.66374 10.3578 7.66374H9.66301C9.45247 7.66374 9.24194 7.57953 9.09457 7.4111C8.94719 7.24267 8.88403 7.03214 8.90509 6.82161C8.94719 6.44265 9.3051 6.1479 9.70511 6.1479H10.5051C10.7367 6.1479 10.9262 6.31633 10.9683 6.52686C10.9894 6.67423 11.1367 6.7795 11.2841 6.7795H12.1894C12.2736 6.7795 12.3789 6.7374 12.421 6.67424C12.4841 6.61108 12.5052 6.52686 12.5052 6.44265C12.421 5.53736 11.7262 4.80049 10.842 4.65312L10.7578 4.63206V3.85309C10.7578 3.68467 10.6104 3.53729 10.442 3.53729H9.53669C9.36826 3.53729 9.22089 3.68467 9.22089 3.85309V4.63206L9.13667 4.65312C7.9998 4.90576 7.24188 5.97948 7.34714 7.11635C7.45241 8.27429 8.50507 9.17958 9.72617 9.17958H10.3157C10.5262 9.17958 10.7367 9.26379 10.8841 9.43222C11.0315 9.60064 11.0946 9.79012 11.0736 10.0217C11.0315 10.4007 10.6736 10.6954 10.2736 10.6954H9.47353C9.24194 10.6954 9.05246 10.527 9.01035 10.3165C8.9893 10.1691 8.84193 10.0638 8.69455 10.0638H7.78926C7.70505 10.0638 7.59978 10.1059 7.53662 10.1691C7.47346 10.2322 7.45241 10.3165 7.45241 10.4007C7.53662 11.306 8.23138 12.0428 9.11562 12.1902L9.19983 12.2113V12.9902C9.22089 13.1797 9.36826 13.3271 9.55774 13.3271Z" fill="#050C0E"/>
<path d="M4.69456 8.0214H3.55768C3.76822 4.65287 6.54725 1.9791 9.97894 1.9791C11.4948 1.9791 12.9475 2.50544 14.1054 3.47389C14.2528 3.60021 14.4633 3.57915 14.5896 3.45283L15.4739 2.50544C15.6002 2.35806 15.6002 2.12648 15.4528 2.00016C13.937 0.694852 12.0001 9.29498e-05 9.97894 9.29498e-05C5.45248 -0.0209604 1.7892 3.53705 1.57867 8.0214H0.589167C0.125994 8.0214 -0.147699 8.52668 0.0838873 8.92669L2.12606 12.2952C2.35764 12.6742 2.90503 12.6742 3.13662 12.2952L5.17879 8.92669C5.43143 8.50563 5.15773 8.0214 4.69456 8.0214Z" fill="#050C0E"/>
<path d="M19.9163 7.93687L17.8741 4.56834C17.6426 4.18938 17.0952 4.18938 16.8636 4.56834L14.8214 7.93687C14.5898 8.33688 14.8635 8.84216 15.3267 8.84216H16.4636C16.253 12.2107 13.474 14.8845 10.0423 14.8845C8.52647 14.8845 7.07379 14.3581 5.91586 13.3897C5.76849 13.2634 5.55795 13.2844 5.43163 13.4107L4.52634 14.3581C4.40002 14.5055 4.40002 14.7371 4.5474 14.8634C6.06323 16.1687 8.00014 16.8635 10.0213 16.8635C14.5477 16.8635 18.211 13.2844 18.4215 8.82111H19.411C19.8742 8.82111 20.1479 8.33688 19.9163 7.93687Z" fill="#050C0E"/>
</svg>
