<svg width="187" height="187" viewBox="0 0 187 187" fill="none" xmlns="http://www.w3.org/2000/svg">
<path d="M12.5297 182.088L3.57571 173.134L0.309618 176.4C-0.0341816 176.744 -0.166645 177.246 0.308788 177.722C0.784222 178.197 1.28647 178.065 1.63026 177.721L3.57405 175.777L11.2074 183.411L9.2636 185.354C8.9198 185.698 8.78734 186.2 9.26277 186.676C9.73821 187.151 10.2405 187.019 10.5843 186.675L15.7941 181.465C16.1379 181.121 16.2704 180.619 15.795 180.144L12.4669 176.816C12.0839 176.433 11.6347 176.327 11.1455 176.816C10.6562 177.306 10.7616 177.755 11.1446 178.138L13.8123 180.806L12.5297 182.088Z" fill="#F2F4F5"/>
<path d="M16.2854 172.02L20.0143 168.291C20.4507 167.855 20.6888 167.484 20.7156 166.85C20.7425 166.137 20.4256 165.74 19.9501 165.265L17.2428 162.558C16.7674 162.082 16.3711 161.765 15.6575 161.792C15.0232 161.819 14.653 162.057 14.2167 162.493L9.8266 166.883C9.4828 167.227 9.35034 167.729 9.82577 168.205C10.3012 168.68 10.8035 168.548 11.1473 168.204L15.696 163.655L18.8523 166.812L15.1367 170.527C14.1449 171.519 14.1443 172.523 15.1348 173.514L19.4401 177.819L25.3111 171.948C25.6549 171.604 25.7874 171.102 25.312 170.627C24.8365 170.151 24.3343 170.284 23.9905 170.628L19.4417 175.176L16.2854 172.02Z" fill="#F2F4F5"/>
<path d="M25.213 154.138L27.4052 156.331C28.1448 157.07 28.0784 157.586 27.7082 157.956L25.1164 160.548C24.7726 160.891 24.6402 161.394 25.1156 161.869C25.591 162.344 26.0933 162.212 26.4371 161.868L29.0288 159.277C29.3991 158.906 29.9145 158.84 30.654 159.579L32.8463 161.772L28.2976 166.32C27.9538 166.664 27.8213 167.166 28.2967 167.642C28.7722 168.117 29.2744 167.985 29.6182 167.641L34.167 163.092C34.9207 162.339 34.9214 161.202 34.1686 160.449L31.633 157.914C31.1047 157.386 30.6159 157.108 29.8362 157.148C29.8764 156.369 29.5992 155.88 29.0709 155.352L26.5353 152.816C25.7825 152.063 24.646 152.064 23.8923 152.818L19.3436 157.366C18.9998 157.71 18.8673 158.212 19.3428 158.688C19.8182 159.163 20.3204 159.031 20.6642 158.687L25.213 154.138Z" fill="#F2F4F5"/>
<path d="M35.7824 152.127L30.8432 147.187C30.513 146.857 30.0242 146.686 29.5217 147.188C29.0193 147.691 29.1907 148.18 29.5209 148.51L35.7808 154.77L39.6683 150.882L42.3625 153.576C42.7851 153.999 43.2079 154.051 43.6839 153.575C44.16 153.099 44.1074 152.676 43.6848 152.254L40.9907 149.56C41.3344 149.216 41.4669 148.714 40.9915 148.238C40.516 147.763 40.0138 147.895 39.67 148.239L35.8533 144.422C35.5232 144.092 35.0343 143.921 34.5319 144.423C34.0294 144.926 34.2009 145.415 34.531 145.745L38.3477 149.561L35.7824 152.127Z" fill="#F2F4F5"/>
<path d="M51.1854 128.166L54.4251 124.926C54.7689 124.582 54.9013 124.08 54.4259 123.605C53.9505 123.129 53.4482 123.262 53.1044 123.606L48.5425 128.168L54.3401 133.965L58.2409 130.064L61.3973 133.221L58.3427 136.275C58.1312 136.487 57.6422 136.606 57.3778 136.712L56.8094 136.937C56.5979 137.016 56.4393 137.096 56.2806 137.254C55.9368 137.598 55.9629 138.206 56.3062 138.549C56.7685 139.012 57.284 138.734 57.7995 138.535L58.5265 138.257C59.0023 138.072 59.2931 137.966 59.6369 137.622L62.5725 134.687C63.0485 134.211 63.3395 133.814 63.2738 133.087C63.2214 132.48 62.9705 132.149 62.5611 131.74L59.7349 128.914C59.2727 128.452 58.9161 128.174 58.2024 128.201C57.5813 128.215 57.198 128.466 56.7748 128.889L54.3418 131.322L51.1854 128.166Z" fill="#F2F4F5"/>
<path d="M59.3933 119.958C59.7768 119.575 59.7904 119.033 59.3942 118.637C59.0508 118.293 58.4562 118.254 58.1124 118.598L57.319 119.391C56.8562 119.854 57.107 120.316 57.4107 120.62L66.193 129.402C66.8005 130.01 67.263 129.996 67.8845 129.375L72.6977 124.562C73.2927 123.967 73.3459 123.491 72.7252 122.87L69.7669 119.912C69.1594 119.304 68.7499 119.159 68.0887 119.82L63.6722 124.237L59.3933 119.958ZM68.8805 121.67L70.9142 123.704L67.0267 127.591L64.9929 125.558L68.8805 121.67Z" fill="#F2F4F5"/>
<path d="M72.7979 106.553L74.6204 108.376C75.2015 108.957 75.2147 108.917 75.1613 109.737L74.9081 113.133C74.8681 113.754 74.8945 113.807 75.3303 114.243L78.5131 117.426C78.9357 117.848 79.3585 117.901 79.8345 117.425C80.3106 116.949 80.258 116.526 79.8354 116.103L77.2733 113.541C76.8111 113.079 76.8111 113.026 76.8512 112.379L77.1044 108.929C77.1577 108.242 77.0917 108.203 76.6294 107.74L72.7996 103.91L66.9285 109.782C66.5054 110.205 66.6371 110.812 66.9277 111.103L67.588 111.763C67.8786 112.054 68.4864 112.186 68.9095 111.762C69.3326 111.339 69.2009 110.732 68.9103 110.441L72.7979 106.553Z" fill="#F2F4F5"/>
<path d="M82.906 102.758L79.7496 99.6017L80.9926 98.3588L84.1489 101.515L82.906 102.758ZM77.7678 98.9422C77.3182 99.3918 77.4236 99.9203 77.767 100.264L81.5837 104.08C81.1737 104.49 81.0017 104.953 80.9882 105.415C80.9746 105.878 81.1858 106.327 81.5952 106.737L84.7383 109.88C85.5439 110.685 86.5615 110.698 87.3813 109.878L91.2689 105.99C92.0887 105.171 92.0761 104.153 91.2705 103.347L88.1274 100.204C87.718 99.7949 87.2688 99.5838 86.8063 99.5973C86.3438 99.6108 85.8811 99.7829 85.4712 100.193L81.6546 96.3761C81.3112 96.0328 80.7827 95.9274 80.3331 96.377L77.7678 98.9422ZM86.0606 108.557L82.9043 105.401L86.7919 101.513L89.9482 104.67L86.0606 108.557Z" fill="#F2F4F5"/>
<path d="M108.982 85.6358C108.599 86.0193 108.585 86.5611 108.981 86.9573C109.338 87.3139 109.906 87.3532 110.303 86.9565L110.964 86.2953C111.361 85.8986 111.321 85.3304 110.965 84.9738L102.011 76.0198C101.667 75.6765 101.06 75.6504 100.689 76.0207L95.4795 81.2306C95.1092 81.6008 95.1353 82.2087 95.4786 82.552L98.8595 85.9329C99.2029 86.2763 99.8107 86.3023 100.181 85.9321L104.73 81.3833L108.982 85.6358ZM99.5215 83.9503L97.4613 81.8901L101.349 78.0025L103.409 80.0627L99.5215 83.9503Z" fill="#F2F4F5"/>
<path d="M105.658 71.0524C104.93 71.7797 104.93 72.969 105.656 73.6954L113.289 81.3287C114.029 82.0683 115.179 82.0808 115.932 81.3271L119.82 77.4395C120.574 76.6858 120.561 75.5361 119.821 74.7965L112.188 67.1632C111.462 66.4368 110.272 66.4376 109.545 67.1648L105.658 71.0524ZM114.612 80.0064L106.978 72.3731L110.866 68.4855L118.499 76.1188L114.612 80.0064Z" fill="#F2F4F5"/>
<path d="M115.175 61.5354C114.447 62.2627 114.447 63.452 115.173 64.1784L122.806 71.8117C123.546 72.5513 124.696 72.5638 125.449 71.8101L129.337 67.9225C130.091 67.1688 130.078 66.0191 129.338 65.2795L121.705 57.6462C120.979 56.9198 119.789 56.9206 119.062 57.6479L115.175 61.5354ZM124.129 70.4894L116.495 62.8561L120.383 58.9685L128.016 66.6018L124.129 70.4894Z" fill="#F2F4F5"/>
<path d="M124.692 52.0184C123.964 52.7457 123.964 53.935 124.69 54.6614L132.323 62.2947C133.063 63.0343 134.213 63.0468 134.966 62.2931L138.854 58.4055C139.608 57.6518 139.595 56.5021 138.855 55.7626L131.222 48.1292C130.496 47.4029 129.306 47.4036 128.579 48.1309L124.692 52.0184ZM133.646 60.9724L126.012 53.3391L129.9 49.4515L137.533 57.0849L133.646 60.9724Z" fill="#F2F4F5"/>
<path d="M143.726 32.9845C142.998 33.7117 142.998 34.9011 143.724 35.6274L151.357 43.2608C152.097 44.0003 153.246 44.0128 154 43.2591L157.888 39.3715C158.641 38.6178 158.629 37.4682 157.889 36.7286L150.256 29.0953C149.53 28.3689 148.34 28.3696 147.613 29.0969L143.726 32.9845ZM152.68 41.9385L145.046 34.3051L148.934 30.4175L156.567 38.0509L152.68 41.9385Z" fill="#F2F4F5"/>
<path d="M153.243 23.4675C152.515 24.1948 152.515 25.3841 153.241 26.1105L160.874 33.7438C161.614 34.4834 162.763 34.4958 163.517 33.7421L167.405 29.8545C168.158 29.1008 168.146 27.9512 167.406 27.2116L159.773 19.5783C159.047 18.8519 157.857 18.8526 157.13 19.5799L153.243 23.4675ZM162.197 32.4215L154.563 24.7881L158.451 20.9006L166.084 28.5339L162.197 32.4215Z" fill="#F2F4F5"/>
<path d="M162.76 13.9505C162.032 14.6778 162.032 15.8671 162.758 16.5935L170.391 24.2268C171.131 24.9664 172.28 24.9788 173.034 24.2251L176.922 20.3376C177.675 19.5838 177.663 18.4342 176.923 17.6946L169.29 10.0613C168.564 9.33492 167.374 9.33565 166.647 10.0629L162.76 13.9505ZM171.714 22.9045L164.08 15.2711L167.968 11.3836L175.601 19.0169L171.714 22.9045Z" fill="#F2F4F5"/>
<path d="M172.277 4.43351C171.549 5.16079 171.549 6.35012 172.275 7.07648L179.908 14.7098C180.648 15.4494 181.797 15.4619 182.551 14.7081L186.439 10.8206C187.192 10.0669 187.18 8.91719 186.44 8.17763L178.807 0.54429C178.081 -0.182066 176.891 -0.181334 176.164 0.545939L172.277 4.43351ZM181.231 13.3875L173.597 5.75416L177.485 1.86659L185.118 9.49992L181.231 13.3875Z" fill="#F2F4F5"/>
</svg>
