<svg width="49" height="31" viewBox="0 0 49 31" fill="none" xmlns="http://www.w3.org/2000/svg">
<path d="M23.8275 2.47742C19.9024 5.42968 17.3622 10.1253 17.3622 15.4136C17.3622 20.7019 19.9024 25.3976 23.8276 28.3499C21.4114 29.9171 18.5287 30.8273 15.433 30.8273C6.90961 30.8273 0 23.9264 0 15.4137C0 6.90093 6.90961 0 15.433 0C18.5286 0 21.4114 0.910269 23.8275 2.47742Z" fill="white"/>
<path d="M24.6929 28.026C28.66 25.2366 31.2519 20.6274 31.2519 15.4137C31.2519 12.6439 30.5204 10.0447 29.2398 7.79832C28.8632 7.13763 28.439 6.50745 27.972 5.91244C27.9078 5.83063 27.8428 5.7495 27.777 5.66904C26.8854 4.57898 25.8474 3.61308 24.6929 2.80132C20.7258 5.59071 18.1338 10.1999 18.1338 15.4137C18.1338 20.6274 20.7257 25.2366 24.6929 28.026Z" fill="white"/>
<path d="M33.5669 0C30.5594 0 27.7528 0.859178 25.3799 2.34518C29.4062 5.28833 32.0236 10.0457 32.0236 15.4136C32.0236 20.7816 29.4062 25.539 25.3798 28.4821C27.7528 29.9681 30.5594 30.8273 33.5669 30.8273C42.0903 30.8273 48.9999 23.9264 48.9999 15.4137C48.9999 6.90093 42.0903 0 33.5669 0Z" fill="white"/>
</svg>
