<svg width="25" height="25" viewBox="0 0 25 25" fill="none" xmlns="http://www.w3.org/2000/svg">
<g clip-path="url(#clip0_1_14716)">
<path d="M3.3593 9.59794C3.6718 9.98808 3.90618 10.4562 4.06243 10.9244C4.21868 11.3926 4.29681 11.9388 4.29681 12.485C4.29681 13.0312 4.21868 13.5774 4.06243 14.0455C3.90618 14.5137 3.6718 14.9819 3.3593 15.372C2.96867 15.9182 3.04679 16.6985 3.59367 17.0886C4.14056 17.4788 4.92182 17.4007 5.31245 16.8545C5.7812 16.2303 6.09371 15.6061 6.40621 14.8258C6.71871 14.0455 6.79684 13.2653 6.79684 12.485C6.79684 11.7047 6.64059 10.9244 6.40621 10.1441C6.17183 9.44188 5.7812 8.73963 5.31245 8.11541C4.92182 7.56921 4.14056 7.49119 3.59367 7.88133C3.04679 8.27147 2.96867 9.05175 3.3593 9.59794Z" fill="white"/>
<path d="M7.65623 7.33512C8.59374 8.81766 9.14062 10.6123 9.14062 12.485C9.14062 14.3576 8.59374 16.1523 7.65623 17.6348C7.2656 18.181 7.49997 18.9613 8.04686 19.3514C8.67186 19.7416 9.375 19.5075 9.76563 18.9613C10.9375 17.0886 11.6407 14.9038 11.6407 12.485C11.6407 10.1441 10.9375 7.88132 9.76563 6.00865C9.375 5.46246 8.59374 5.22837 8.04686 5.61851C7.49997 6.00865 7.2656 6.7109 7.65623 7.33512Z" fill="white"/>
<path d="M12.1875 4.99429C13.5157 7.17907 14.2188 9.75399 14.2188 12.485C14.2188 15.2159 13.4375 17.7909 12.1875 19.9757C11.875 20.5999 12.0313 21.3021 12.6563 21.6923C13.2813 22.0044 13.9844 21.8483 14.3751 21.2241C15.9376 18.6492 16.797 15.6841 16.797 12.485C16.797 9.28583 15.9376 6.32077 14.3751 3.74584C14.0626 3.12162 13.2813 2.96556 12.6563 3.27768C12.0313 3.66782 11.875 4.37007 12.1875 4.99429Z" fill="white"/>
<path d="M16.7188 2.65345C18.3595 5.54049 19.3751 8.89569 19.3751 12.485C19.3751 16.0743 18.4376 19.4295 16.7188 22.3165C16.4063 22.9407 16.5626 23.643 17.1876 24.0331C17.8126 24.3452 18.5157 24.1892 18.9063 23.5649C20.7814 20.2878 21.8751 16.5424 21.8751 12.485C21.8751 8.42752 20.7814 4.68218 18.9063 1.40501C18.5938 0.780783 17.8126 0.624727 17.1876 0.936838C16.5626 1.24895 16.4063 2.02923 16.7188 2.65345Z" fill="white"/>
</g>
<defs>
<clipPath id="clip0_1_14716">
<rect width="24.4837" height="24.453" fill="white" transform="scale(1.0211)"/>
</clipPath>
</defs>
</svg>
