<svg width="11" height="11" viewBox="0 0 11 11" fill="none" xmlns="http://www.w3.org/2000/svg">
<path d="M0.249117 9.48245C-0.0807948 9.81236 -0.0875277 10.3981 0.25585 10.7415C0.605961 11.0849 1.19172 11.0781 1.5149 10.755L5.50078 6.76909L9.47992 10.7482C9.81656 11.0849 10.3956 11.0849 10.739 10.7415C11.0823 10.3914 11.0823 9.81909 10.7457 9.48245L6.76656 5.50331L10.7457 1.51743C11.0823 1.18079 11.0891 0.601759 10.739 0.258381C10.3956 -0.0849966 9.81656 -0.0849966 9.47992 0.251648L5.50078 4.23079L1.5149 0.251648C1.19172 -0.0782637 0.599228 -0.0917295 0.25585 0.258381C-0.0875277 0.601759 -0.0807948 1.19425 0.249117 1.51743L4.22826 5.50331L0.249117 9.48245Z" fill="#3C3C43" fill-opacity="0.6"/>
</svg>
