<svg width="3" height="46" viewBox="0 0 3 46" fill="none" xmlns="http://www.w3.org/2000/svg">
<path d="M2.31606 44.9842L-4.44034e-08 44.9842L-7.47532e-09 45.829C-3.58815e-09 45.9179 0.0478242 46 0.170801 46C0.293778 46 0.341602 45.9179 0.341602 45.829L0.341602 45.3262L2.31606 45.3262L2.31606 45.829C2.31606 45.9179 2.36388 46 2.48686 46C2.60984 46 2.65766 45.9179 2.65766 45.829L2.65766 44.4814C2.65766 44.3925 2.60984 44.3104 2.48686 44.3104L1.62602 44.3104C1.52696 44.3104 1.45522 44.3548 1.45522 44.4814C1.45522 44.6079 1.52696 44.6524 1.62602 44.6524L2.31606 44.6524L2.31606 44.9842Z" fill="white"/>
<path d="M1.49963 43.1963L1.49963 42.2318C1.49963 42.1189 1.48255 42.0402 1.40398 41.9547C1.31517 41.8589 1.22293 41.8487 1.09996 41.8487L0.399674 41.8487C0.276697 41.8487 0.184465 41.8589 0.0956483 41.9547C0.0170799 42.0402 -1.69649e-07 42.1189 -1.64715e-07 42.2318L-1.15079e-07 43.3673C-1.11192e-07 43.4562 0.0478241 43.5383 0.170801 43.5383C0.293777 43.5383 0.341602 43.4562 0.341602 43.3673L0.341602 42.1907L1.15803 42.1907L1.15803 43.1518C1.15803 43.4083 1.28784 43.5383 1.54404 43.5383L2.65766 43.5383L2.65766 42.0197C2.65766 41.9308 2.60984 41.8487 2.48686 41.8487C2.36388 41.8487 2.31606 41.9308 2.31606 42.0197L2.31606 43.1963L1.49963 43.1963Z" fill="white"/>
<path d="M0.341602 39.729L0.90866 39.729C1.09996 39.729 1.15803 39.8043 1.15803 39.9L1.15803 40.5704C1.15803 40.6593 1.20585 40.7414 1.32883 40.7414C1.45181 40.7414 1.49963 40.6593 1.49963 40.5704L1.49963 39.9C1.49963 39.8043 1.5577 39.729 1.749 39.729L2.31606 39.729L2.31606 40.9056C2.31606 40.9945 2.36388 41.0766 2.48686 41.0766C2.60984 41.0766 2.65766 40.9945 2.65766 40.9056L2.65766 39.729C2.65766 39.5341 2.51077 39.387 2.31606 39.387L1.66018 39.387C1.52354 39.387 1.42448 39.4144 1.32883 39.5204C1.23318 39.4144 1.13412 39.387 0.997477 39.387L0.341601 39.387C0.146889 39.387 -2.82635e-07 39.5341 -2.74113e-07 39.729L-2.22683e-07 40.9056C-2.18796e-07 40.9945 0.047824 41.0766 0.170801 41.0766C0.293777 41.0766 0.341602 40.9945 0.341602 40.9056L0.341602 39.729Z" fill="white"/>
<path d="M1.44839 38.1019L0.170801 38.1019C0.0854002 38.1019 -3.43443e-07 38.1429 -3.37762e-07 38.2729C-3.32081e-07 38.4029 0.0854002 38.4439 0.170801 38.4439L1.78999 38.4439L1.78999 37.4384L2.48686 37.4384C2.59617 37.4384 2.65766 37.3905 2.65766 37.2673C2.65766 37.1442 2.59617 37.0963 2.48686 37.0963L1.78999 37.0963C1.78999 37.0074 1.74217 36.9253 1.61919 36.9253C1.49622 36.9253 1.44839 37.0074 1.44839 37.0963L0.461162 37.0963C0.375762 37.0963 0.290361 37.1374 0.290361 37.2673C0.290361 37.3973 0.375762 37.4384 0.461162 37.4384L1.44839 37.4384L1.44839 38.1019Z" fill="white"/>
<path d="M0.341601 33.0109L0.341601 32.1729C0.341601 32.084 0.293777 32.0019 0.1708 32.0019C0.0478236 32.0019 -6.08287e-07 32.084 -6.044e-07 32.1729L-5.5282e-07 33.353L1.49963 33.353L1.49963 32.344L2.31606 32.344L2.31606 33.1341C2.31606 33.1888 2.26824 33.2674 2.24774 33.3153L2.20333 33.4179C2.18625 33.4556 2.176 33.4863 2.176 33.5274C2.176 33.6163 2.25799 33.6916 2.3468 33.6916C2.46636 33.6916 2.49711 33.589 2.5381 33.4966L2.59617 33.3666C2.63375 33.2811 2.65766 33.2298 2.65766 33.1409L2.65766 32.3816C2.65766 32.2585 2.644 32.1695 2.54152 32.084C2.45612 32.0122 2.38096 32.0019 2.27507 32.0019L1.54404 32.0019C1.42448 32.0019 1.34249 32.0122 1.25368 32.108C1.17511 32.1901 1.15803 32.2721 1.15803 32.3816L1.15803 33.0109L0.341601 33.0109Z" fill="white"/>
<path d="M0.341601 30.8878C0.341601 30.7887 0.273281 30.7168 0.1708 30.7168C0.0819839 30.7168 -6.64909e-07 30.7887 -6.61022e-07 30.8776L-6.52051e-07 31.0828C-6.46819e-07 31.2025 0.0922318 31.2299 0.1708 31.2299L2.44245 31.2299C2.59959 31.2299 2.65766 31.1683 2.65766 31.0076L2.65766 29.7626C2.65766 29.6087 2.603 29.5402 2.44245 29.5402L1.67726 29.5402C1.52013 29.5402 1.44839 29.5745 1.44839 29.7455L1.44839 30.8878L0.341601 30.8878ZM1.78999 29.8823L2.31606 29.8823L2.31606 30.8878L1.78999 30.8878L1.78999 29.8823Z" fill="white"/>
<path d="M0.341601 27.4206L0.813011 27.4206C0.963316 27.4206 0.9599 27.4137 1.05896 27.5266L1.46547 27.9986C1.54062 28.0841 1.55087 28.0876 1.6636 28.0876L2.48686 28.0876C2.59617 28.0876 2.65766 28.0397 2.65766 27.9165C2.65766 27.7934 2.59617 27.7455 2.48686 27.7455L1.82415 27.7455C1.70459 27.7455 1.69776 27.7387 1.61919 27.6498L1.20585 27.1709C1.12387 27.0751 1.1102 27.0786 0.990644 27.0786L-8.27083e-07 27.0786L-7.60702e-07 28.5972C-7.55917e-07 28.7066 0.0956477 28.7682 0.1708 28.7682L0.341601 28.7682C0.416753 28.7682 0.512402 28.7066 0.512402 28.5972C0.512402 28.4877 0.416753 28.4262 0.341601 28.4262L0.341601 27.4206Z" fill="white"/>
<path d="M1.15803 25.6224L0.341601 25.6224L0.341601 25.3009L1.15803 25.3009L1.15803 25.6224ZM-8.83256e-07 25.7935C-8.78173e-07 25.9097 0.0819837 25.9645 0.1708 25.9645L1.15803 25.9645C1.15803 26.0705 1.19561 26.1526 1.25368 26.2142C1.31175 26.2757 1.39715 26.3065 1.50305 26.3065L2.31606 26.3065C2.52444 26.3065 2.65766 26.1765 2.65766 25.9645L2.65766 24.9589C2.65766 24.7468 2.52444 24.6169 2.31606 24.6169L1.50305 24.6169C1.39715 24.6169 1.31175 24.6477 1.25368 24.7092C1.19561 24.7708 1.15803 24.8529 1.15803 24.9589L0.1708 24.9589C0.0819836 24.9589 -9.17343e-07 25.0136 -9.1226e-07 25.1299L-8.83256e-07 25.7935ZM2.31606 25.9645L1.49963 25.9645L1.49963 24.9589L2.31606 24.9589L2.31606 25.9645Z" fill="white"/>
<path d="M2.31606 20.0355C2.31606 20.1347 2.38438 20.2065 2.48686 20.2065C2.57909 20.2065 2.65766 20.1381 2.65766 20.0355L2.65766 19.8645C2.65766 19.7619 2.57909 19.6935 2.48686 19.6935L0.1708 19.6935C0.0819834 19.6935 -1.1466e-06 19.7687 -1.14242e-06 19.8645L-1.08351e-06 21.2121C-1.07933e-06 21.3079 0.0819835 21.3831 0.1708 21.3831L1.0453 21.3831C1.13412 21.3831 1.2161 21.3079 1.2161 21.2121L1.2161 20.0355L2.31606 20.0355ZM0.874499 21.0411L0.341601 21.0411L0.341601 20.0355L0.874499 20.0355L0.874499 21.0411Z" fill="white"/>
<path d="M-1.19859e-06 18.5794C-1.19037e-06 18.7675 0.15372 18.9214 0.341601 18.9214L2.31606 18.9214C2.50736 18.9214 2.65766 18.7744 2.65766 18.5794L2.65766 17.5738C2.65766 17.3789 2.50736 17.2318 2.31606 17.2318L0.341601 17.2318C0.15372 17.2318 -1.25077e-06 17.3857 -1.24255e-06 17.5738L-1.19859e-06 18.5794ZM2.31606 18.5794L0.341601 18.5794L0.341601 17.5738L2.31606 17.5738L2.31606 18.5794Z" fill="white"/>
<path d="M-1.3062e-06 16.1177C-1.29797e-06 16.3058 0.153719 16.4598 0.3416 16.4598L2.31606 16.4598C2.50736 16.4598 2.65766 16.3127 2.65766 16.1177L2.65766 15.1122C2.65766 14.9172 2.50736 14.7701 2.31606 14.7701L0.3416 14.7701C0.153719 14.7701 -1.35837e-06 14.924 -1.35015e-06 15.1122L-1.3062e-06 16.1177ZM2.31606 16.1177L0.3416 16.1177L0.3416 15.1122L2.31606 15.1122L2.31606 16.1177Z" fill="white"/>
<path d="M-1.4138e-06 13.656C-1.40558e-06 13.8442 0.153719 13.9981 0.3416 13.9981L2.31606 13.9981C2.50736 13.9981 2.65766 13.851 2.65766 13.656L2.65766 12.6505C2.65766 12.4555 2.50736 12.3084 2.31606 12.3084L0.3416 12.3084C0.153719 12.3084 -1.46598e-06 12.4624 -1.45775e-06 12.6505L-1.4138e-06 13.656ZM2.31606 13.656L0.3416 13.656L0.3416 12.6505L2.31606 12.6505L2.31606 13.656Z" fill="white"/>
<path d="M-1.62901e-06 8.73267C-1.62078e-06 8.92078 0.153719 9.0747 0.3416 9.0747L2.31606 9.0747C2.50736 9.0747 2.65766 8.92762 2.65766 8.73267L2.65766 7.7271C2.65766 7.53214 2.50736 7.38507 2.31606 7.38507L0.3416 7.38507C0.153719 7.38507 -1.68118e-06 7.53898 -1.67296e-06 7.7271L-1.62901e-06 8.73267ZM2.31606 8.73267L0.3416 8.73267L0.3416 7.7271L2.31606 7.7271L2.31606 8.73267Z" fill="white"/>
<path d="M-1.73661e-06 6.27098C-1.72839e-06 6.4591 0.153719 6.61301 0.3416 6.61301L2.31606 6.61301C2.50736 6.61301 2.65766 6.46593 2.65766 6.27098L2.65766 5.26541C2.65766 5.07045 2.50736 4.92338 2.31606 4.92338L0.3416 4.92338C0.153719 4.92338 -1.78879e-06 5.07729 -1.78057e-06 5.26541L-1.73661e-06 6.27098ZM2.31606 6.27098L0.3416 6.27098L0.3416 5.26541L2.31606 5.26541L2.31606 6.27098Z" fill="white"/>
<path d="M-1.84421e-06 3.80929C-1.83599e-06 3.99741 0.153719 4.15133 0.3416 4.15133L2.31606 4.15133C2.50735 4.15133 2.65766 4.00425 2.65766 3.80929L2.65766 2.80372C2.65766 2.60876 2.50735 2.46169 2.31606 2.46169L0.3416 2.46169C0.153719 2.46169 -1.89639e-06 2.6156 -1.88817e-06 2.80372L-1.84421e-06 3.80929ZM2.31606 3.80929L0.3416 3.80929L0.3416 2.80372L2.31606 2.80372L2.31606 3.80929Z" fill="white"/>
<path d="M-1.95182e-06 1.3476C-1.9436e-06 1.53572 0.153719 1.68964 0.3416 1.68964L2.31606 1.68964C2.50735 1.68964 2.65766 1.54256 2.65766 1.3476L2.65766 0.342033C2.65766 0.147076 2.50735 3.77145e-06 2.31606 3.77981e-06L0.3416 3.86611e-06C0.153719 3.87433e-06 -2.004e-06 0.153918 -1.99577e-06 0.342033L-1.95182e-06 1.3476ZM2.31606 1.3476L0.3416 1.3476L0.3416 0.342033L2.31606 0.342033L2.31606 1.3476Z" fill="white"/>
</svg>
