<svg width="22" height="22" viewBox="0 0 22 22" fill="none" xmlns="http://www.w3.org/2000/svg">
<g clip-path="url(#clip0_1_15698)">
<path d="M21.6727 4.5248C20.9073 4.86396 20.085 5.09313 19.2206 5.19671C20.1125 4.66302 20.7798 3.82306 21.098 2.83355C20.26 3.33129 19.3429 3.68164 18.3865 3.86938C17.7433 3.18267 16.8914 2.72751 15.9631 2.57456C15.0348 2.42162 14.0819 2.57944 13.2524 3.02353C12.423 3.46762 11.7633 4.17313 11.3759 5.03052C10.9885 5.88792 10.895 6.84923 11.11 7.76521C9.41201 7.67996 7.75096 7.23863 6.23461 6.46987C4.71825 5.70112 3.38049 4.62211 2.30814 3.30288C1.94147 3.93538 1.73064 4.66871 1.73064 5.44971C1.73023 6.15279 1.90337 6.8451 2.23469 7.46522C2.56602 8.08533 3.04528 8.61408 3.62997 9.00454C2.95189 8.98297 2.28877 8.79975 1.6958 8.47013V8.52513C1.69574 9.51122 2.03683 10.467 2.66122 11.2302C3.28561 11.9934 4.15483 12.5171 5.12139 12.7125C4.49235 12.8827 3.83286 12.9078 3.19272 12.7858C3.46543 13.6343 3.99663 14.3762 4.71197 14.9078C5.42731 15.4394 6.29098 15.734 7.18205 15.7503C5.6694 16.9378 3.80128 17.5819 1.87822 17.579C1.53757 17.5791 1.19721 17.5592 0.858887 17.5195C2.81091 18.7745 5.0832 19.4406 7.40388 19.438C15.2597 19.438 19.5543 12.9315 19.5543 7.28854C19.5543 7.10521 19.5497 6.92004 19.5415 6.73671C20.3768 6.13261 21.0979 5.38453 21.6709 4.52755L21.6727 4.5248Z" fill="#2791B5"/>
</g>
<defs>
<clipPath id="clip0_1_15698">
<rect width="21.5122" height="21.5122" fill="white" transform="scale(1.02268)"/>
</clipPath>
</defs>
</svg>
