<svg width="10" height="11" viewBox="0 0 10 11" fill="none" xmlns="http://www.w3.org/2000/svg">
<path d="M4.12586 0.68751L4.12586 8.84125L1.12836 6.34563C0.987961 6.22893 0.806955 6.17279 0.625162 6.18955C0.44337 6.20631 0.275681 6.29461 0.158986 6.435C0.0422904 6.5754 -0.0138521 6.75641 0.00290898 6.9382C0.01967 7.11999 0.107962 7.28768 0.248361 7.40438L4.37336 10.8419C4.40617 10.865 4.44064 10.8857 4.47648 10.9037C4.51086 10.9037 4.53148 10.9037 4.56586 10.9519C4.64468 10.983 4.72859 10.9994 4.81336 11C4.89812 10.9994 4.98203 10.983 5.06086 10.9519C5.09523 10.9519 5.11586 10.9519 5.15023 10.9037C5.18608 10.8857 5.22055 10.865 5.25336 10.8419L9.37835 7.40438C9.45596 7.33974 9.51837 7.25879 9.56115 7.1673C9.60392 7.0758 9.62602 6.97601 9.62585 6.875C9.62616 6.71437 9.57022 6.55869 9.46773 6.435C9.41001 6.36539 9.33913 6.30784 9.25914 6.26566C9.17915 6.22349 9.09163 6.1975 9.00158 6.1892C8.91154 6.1809 8.82074 6.19044 8.73438 6.21728C8.64803 6.24413 8.56782 6.28774 8.49835 6.34563L5.50086 8.84125L5.50085 0.68751C5.50085 0.505174 5.42842 0.330306 5.29949 0.201375C5.17056 0.0724435 4.99569 1.12755e-05 4.81336 1.12834e-05C4.63102 1.12914e-05 4.45615 0.0724435 4.32722 0.201375C4.19829 0.330306 4.12586 0.505174 4.12586 0.68751Z" fill="#004852"/>
</svg>
