<svg width="22" height="22" viewBox="0 0 22 22" fill="none" xmlns="http://www.w3.org/2000/svg">
<path d="M17.9572 6.13279C17.0434 5.93185 16.2168 5.44661 15.5959 4.74669C14.9751 4.04678 14.5919 3.16817 14.5014 2.23696V1.83362H11.3389V14.3645C11.3395 14.9205 11.1652 15.4626 10.8406 15.914C10.516 16.3655 10.0576 16.7033 9.53035 16.8798C9.00308 17.0562 8.43365 17.0623 7.90274 16.8971C7.37182 16.7319 6.90634 16.4039 6.57222 15.9595C6.27288 15.5661 6.08958 15.0968 6.04305 14.6046C5.99652 14.1125 6.08862 13.6171 6.30893 13.1746C6.52924 12.7321 6.86897 12.36 7.2897 12.1005C7.71043 11.841 8.19539 11.7044 8.68971 11.7061C8.9631 11.7046 9.23512 11.7447 9.49638 11.8253V8.61695C9.19236 8.5793 8.88598 8.56398 8.57971 8.57112C7.45158 8.60127 6.35672 8.95973 5.42921 9.60262C4.5017 10.2455 3.78178 11.1449 3.35763 12.1907C2.93347 13.2365 2.82349 14.3833 3.04114 15.4906C3.25879 16.598 3.79463 17.6178 4.58305 18.4253C5.39108 19.2468 6.42508 19.8096 7.55368 20.0421C8.68228 20.2746 9.85453 20.1664 10.9215 19.7312C11.9884 19.2959 12.9019 18.5533 13.5459 17.5978C14.1898 16.6422 14.5352 15.5168 14.538 14.3645V7.94779C15.8135 8.85891 17.3431 9.3463 18.9105 9.34112V6.22446C18.6026 6.22573 18.2954 6.19501 17.9939 6.13279H17.9572Z" fill="#2791B5"/>
</svg>
