<svg width="10" height="10" viewBox="0 0 10 10" fill="none" xmlns="http://www.w3.org/2000/svg">
<circle cx="5" cy="5" r="4.5" fill="#0094FF" stroke="white"/>
<path fill-rule="evenodd" clip-rule="evenodd" d="M1.93359 4.99274C1.93359 4.94384 1.95302 4.89695 1.9876 4.86237C2.02217 4.82779 2.06907 4.80837 2.11797 4.80837L6.46662 4.80837L5.30617 3.64828C5.27155 3.61366 5.2521 3.56671 5.2521 3.51775C5.2521 3.46878 5.27155 3.42183 5.30617 3.38721C5.34079 3.35259 5.38775 3.33314 5.43671 3.33314C5.48567 3.33314 5.53262 3.35259 5.56725 3.38721L7.04224 4.8622C7.05941 4.87933 7.07303 4.89968 7.08233 4.92208C7.09162 4.94448 7.09641 4.96849 7.09641 4.99274C7.09641 5.01699 7.09162 5.04101 7.08233 5.06341C7.07303 5.08581 7.05941 5.10615 7.04224 5.12328L5.56725 6.59827C5.53262 6.63289 5.48567 6.65234 5.43671 6.65234C5.38775 6.65234 5.34079 6.63289 5.30617 6.59827C5.27155 6.56365 5.2521 6.5167 5.2521 6.46774C5.2521 6.41878 5.27155 6.37182 5.30617 6.3372L6.46662 5.17712L2.11797 5.17712C2.06907 5.17712 2.02217 5.15769 1.9876 5.12311C1.95302 5.08854 1.93359 5.04164 1.93359 4.99274Z" fill="white"/>
</svg>
