<svg width="17" height="20" viewBox="0 0 17 20" fill="none" xmlns="http://www.w3.org/2000/svg">
<path fill-rule="evenodd" clip-rule="evenodd" d="M8.3745 0C10.6304 0 12.6444 1.43297 13.3834 3.56691C13.5194 3.9579 13.3114 4.38489 12.9194 4.52089C12.5284 4.65789 12.1014 4.44889 11.9654 4.0569C11.4364 2.52794 9.99146 1.49996 8.3715 1.49996H8.3575C6.26555 1.49996 4.56159 3.19392 4.55259 5.28387L4.55189 6.62584L12.1837 6.62654C14.6876 6.62654 16.7256 8.66449 16.7256 11.1694V15.4573C16.7256 17.9623 14.6876 20.0002 12.1837 20.0002H4.54189C2.03695 20.0002 0 17.9623 0 15.4573V11.1694C0 9.18608 1.27697 7.4955 3.05214 6.87744L3.05263 5.30087C3.06563 2.36294 5.44157 0 8.3545 0H8.3745ZM12.1837 8.1265H4.54189C2.86393 8.1265 1.49996 9.49147 1.49996 11.1694V15.4573C1.49996 17.1353 2.86393 18.5002 4.54189 18.5002H12.1837C13.8607 18.5002 15.2256 17.1353 15.2256 15.4573V11.1694C15.2256 9.49147 13.8607 8.1265 12.1837 8.1265ZM8.3631 11.4522C8.77709 11.4522 9.11308 11.7882 9.11308 12.2022V14.4241C9.11308 14.8381 8.77709 15.1741 8.3631 15.1741C7.94911 15.1741 7.61311 14.8381 7.61311 14.4241V12.2022C7.61311 11.7882 7.94911 11.4522 8.3631 11.4522Z" fill="#1F2C37"/>
</svg>
