<svg width="50" height="50" viewBox="0 0 50 50" fill="none" xmlns="http://www.w3.org/2000/svg">
<path d="M3.42381 48.6051L1.04386 46.2252L0.175733 47.0933C0.084352 47.1847 0.0491436 47.3181 0.175513 47.4445C0.301882 47.5709 0.435378 47.5357 0.526759 47.4443L1.04341 46.9276L3.07234 48.9566L2.55569 49.4732C2.46431 49.5646 2.4291 49.6981 2.55547 49.8245C2.68184 49.9508 2.81533 49.9156 2.90671 49.8243L4.29149 48.4395C4.38287 48.3481 4.41808 48.2146 4.29171 48.0882L3.40713 47.2036C3.30533 47.1018 3.18592 47.0738 3.05588 47.2039C2.92584 47.3339 2.95386 47.4533 3.05566 47.5551L3.76473 48.2642L3.42381 48.6051Z" fill="#F2F4F5"/>
<path d="M4.42207 45.9289L5.4132 44.9378C5.52919 44.8218 5.59247 44.7234 5.5996 44.5548C5.60675 44.3652 5.52251 44.2598 5.39615 44.1335L4.67654 43.4139C4.55017 43.2875 4.44485 43.2033 4.25518 43.2104C4.08657 43.2175 3.98818 43.2808 3.8722 43.3968L2.70533 44.5637C2.61395 44.6551 2.57874 44.7886 2.70511 44.9149C2.83148 45.0413 2.96498 45.0061 3.05636 44.9147L4.2654 43.7057L5.10435 44.5446L4.11673 45.5322C3.85313 45.7958 3.85296 46.0628 4.11623 46.326L5.26058 47.4704L6.82109 45.9099C6.91247 45.8185 6.94768 45.685 6.82131 45.5586C6.69494 45.4323 6.56144 45.4675 6.47006 45.5589L5.26102 46.7679L4.42207 45.9289Z" fill="#F2F4F5"/>
<path d="M6.795 41.1761L7.3777 41.7588C7.57428 41.9553 7.55663 42.0923 7.45822 42.1907L6.76934 42.8796C6.67796 42.971 6.64275 43.1045 6.76912 43.2309C6.89549 43.3572 7.02899 43.322 7.12037 43.2306L7.80924 42.5418C7.90765 42.4434 8.04465 42.4257 8.24122 42.6223L8.82393 43.205L7.61488 44.414C7.5235 44.5054 7.48829 44.6389 7.61466 44.7653C7.74103 44.8916 7.87453 44.8564 7.96591 44.7651L9.17495 43.556C9.37529 43.3557 9.37548 43.0536 9.17539 42.8535L8.50142 42.1796C8.36101 42.0391 8.2311 41.9655 8.02386 41.9761C8.03452 41.7689 7.96085 41.639 7.82043 41.4986L7.14647 40.8246C6.94638 40.6245 6.64431 40.6247 6.44397 40.825L5.23493 42.0341C5.14355 42.1255 5.10834 42.259 5.23471 42.3853C5.36108 42.5117 5.49457 42.4765 5.58595 42.3851L6.795 41.1761Z" fill="#F2F4F5"/>
<path d="M9.60434 40.6414L8.29151 39.3285C8.20375 39.2408 8.07382 39.1952 7.94026 39.3287C7.8067 39.4623 7.85228 39.5922 7.94004 39.68L9.6039 41.3439L10.6372 40.3105L11.3533 41.0266C11.4656 41.139 11.578 41.1529 11.7046 41.0264C11.8311 40.8999 11.8171 40.7875 11.7048 40.6752L10.9887 39.9591C11.0801 39.8677 11.1153 39.7342 10.9889 39.6078C10.8625 39.4815 10.729 39.5167 10.6377 39.6081L9.62319 38.5936C9.53543 38.5058 9.4055 38.4602 9.27194 38.5938C9.13839 38.7274 9.18397 38.8573 9.27172 38.9451L10.2862 39.9595L9.60434 40.6414Z" fill="#F2F4F5"/>
<path d="M13.6984 34.2726L14.5595 33.4115C14.6509 33.3202 14.6861 33.1867 14.5597 33.0603C14.4334 32.9339 14.2999 32.9691 14.2085 33.0605L12.9959 34.2731L14.5369 35.8141L15.5738 34.7772L16.4127 35.6162L15.6008 36.4281C15.5446 36.4843 15.4146 36.516 15.3444 36.5442L15.1933 36.604C15.1371 36.6251 15.0949 36.6462 15.0527 36.6883C14.9613 36.7797 14.9683 36.9413 15.0595 37.0326C15.1824 37.1554 15.3194 37.0816 15.4564 37.0288L15.6497 36.9549C15.7762 36.9057 15.8534 36.8775 15.9448 36.7861L16.7251 36.0059C16.8516 35.8794 16.929 35.7739 16.9115 35.5808C16.8976 35.4192 16.8309 35.3314 16.7221 35.2226L15.9709 34.4714C15.848 34.3486 15.7532 34.2748 15.5635 34.282C15.3985 34.2856 15.2966 34.3524 15.1841 34.4649L14.5374 35.1116L13.6984 34.2726Z" fill="#F2F4F5"/>
<path d="M15.8801 32.091C15.982 31.9891 15.9856 31.845 15.8803 31.7397C15.789 31.6485 15.631 31.638 15.5396 31.7294L15.3287 31.9403C15.2057 32.0633 15.2724 32.1862 15.3531 32.2669L17.6874 34.6013C17.8489 34.7627 17.9718 34.7591 18.137 34.5939L19.4164 33.3146C19.5745 33.1564 19.5886 33.03 19.4237 32.865L18.6374 32.0787C18.4759 31.9172 18.367 31.8787 18.1913 32.0544L17.0174 33.2283L15.8801 32.091ZM18.4017 32.546L18.9423 33.0866L17.909 34.1199L17.3684 33.5793L18.4017 32.546Z" fill="#F2F4F5"/>
<path d="M19.443 28.5281L19.9274 29.0125C20.0819 29.1669 20.0854 29.1564 20.0712 29.3742L20.0039 30.2769C19.9932 30.442 20.0003 30.4561 20.1161 30.5719L20.9621 31.4179C21.0744 31.5302 21.1868 31.5442 21.3133 31.4176C21.4398 31.2911 21.4259 31.1787 21.3135 31.0664L20.6325 30.3854C20.5097 30.2626 20.5097 30.2485 20.5203 30.0764L20.5877 29.1596C20.6018 28.9769 20.5843 28.9664 20.4614 28.8436L19.4434 27.8256L17.8829 29.3861C17.7704 29.4986 17.8055 29.6601 17.8827 29.7373L18.0582 29.9128C18.1354 29.9901 18.297 30.0251 18.4095 29.9126C18.5219 29.8002 18.4869 29.6386 18.4097 29.5614L19.443 28.5281Z" fill="#F2F4F5"/>
<path d="M22.1297 27.5193L21.2907 26.6803L21.6211 26.3499L22.4601 27.1889L22.1297 27.5193ZM20.764 26.505C20.6445 26.6245 20.6725 26.765 20.7638 26.8563L21.7782 27.8707C21.6693 27.9797 21.6235 28.1027 21.6199 28.2256C21.6164 28.3485 21.6725 28.4679 21.7813 28.5767L22.6167 29.4122C22.8309 29.6263 23.1013 29.6296 23.3192 29.4117L24.3525 28.3784C24.5704 28.1605 24.5671 27.8901 24.353 27.6759L23.5175 26.8405C23.4087 26.7317 23.2893 26.6755 23.1664 26.6791C23.0435 26.6827 22.9205 26.7285 22.8115 26.8374L21.7971 25.823C21.7058 25.7317 21.5653 25.7037 21.4458 25.8232L20.764 26.505ZM22.9682 29.0607L22.1293 28.2218L23.1626 27.1884L24.0015 28.0274L22.9682 29.0607Z" fill="#F2F4F5"/>
<path d="M29.0607 22.9682C28.9588 23.0701 28.9552 23.2141 29.0605 23.3194C29.1553 23.4142 29.3063 23.4247 29.4117 23.3192L29.5875 23.1435C29.6929 23.0381 29.6825 22.887 29.5877 22.7923L27.2077 20.4123C27.1165 20.321 26.9549 20.3141 26.8565 20.4125L25.4717 21.7973C25.3733 21.8957 25.3802 22.0573 25.4715 22.1485L26.3701 23.0472C26.4614 23.1384 26.623 23.1454 26.7214 23.0469L27.9304 21.8379L29.0607 22.9682ZM26.5461 22.5202L25.9985 21.9726L27.0318 20.9393L27.5794 21.4869L26.5461 22.5202Z" fill="#F2F4F5"/>
<path d="M28.177 19.092C27.9837 19.2853 27.9835 19.6014 28.1766 19.7945L30.2055 21.8234C30.4021 22.02 30.7077 22.0233 30.908 21.8229L31.9413 20.7896C32.1417 20.5893 32.1383 20.2837 31.9418 20.0871L29.9128 18.0582C29.7198 17.8651 29.4037 17.8653 29.2104 18.0587L28.177 19.092ZM30.557 21.4719L28.5281 19.443L29.5614 18.4097L31.5903 20.4386L30.557 21.4719Z" fill="#F2F4F5"/>
<path d="M30.7066 16.5624C30.5133 16.7557 30.5131 17.0718 30.7062 17.2649L32.7351 19.2938C32.9317 19.4904 33.2373 19.4937 33.4376 19.2933L34.4709 18.26C34.6713 18.0597 34.6679 17.7541 34.4714 17.5575L32.4424 15.5286C32.2494 15.3355 31.9333 15.3357 31.74 15.5291L30.7066 16.5624ZM33.0866 18.9423L31.0577 16.9134L32.091 15.8801L34.1199 17.909L33.0866 18.9423Z" fill="#F2F4F5"/>
<path d="M33.2362 14.0328C33.0429 14.2261 33.0427 14.5422 33.2358 14.7353L35.2647 16.7642C35.4613 16.9608 35.7669 16.9641 35.9672 16.7637L37.0005 15.7304C37.2009 15.5301 37.1975 15.2245 37.001 15.0279L34.972 12.999C34.779 12.806 34.4629 12.8062 34.2695 12.9995L33.2362 14.0328ZM35.6162 16.4127L33.5873 14.3838L34.6206 13.3505L36.6495 15.3794L35.6162 16.4127Z" fill="#F2F4F5"/>
<path d="M38.2954 8.97357C38.1021 9.16688 38.1019 9.483 38.295 9.67607L40.3239 11.705C40.5205 11.9016 40.8261 11.9049 41.0264 11.7046L42.0597 10.6712C42.2601 10.4709 42.2567 10.1653 42.0602 9.96875L40.0312 7.93982C39.8382 7.74676 39.5221 7.74695 39.3287 7.94026L38.2954 8.97357ZM40.6754 11.3535L38.6465 9.3246L39.6798 8.29129L41.7087 10.3202L40.6754 11.3535Z" fill="#F2F4F5"/>
<path d="M40.825 6.44397C40.6317 6.63728 40.6315 6.9534 40.8246 7.14647L42.8535 9.1754C43.0501 9.37197 43.3557 9.37529 43.556 9.17495L44.5893 8.14164C44.7897 7.94131 44.7863 7.63573 44.5898 7.43915L42.5608 5.41023C42.3678 5.21716 42.0516 5.21736 41.8583 5.41066L40.825 6.44397ZM43.205 8.82393L41.1761 6.795L42.2094 5.76169L44.2383 7.79062L43.205 8.82393Z" fill="#F2F4F5"/>
<path d="M43.3546 3.91438C43.1613 4.10768 43.1611 4.42381 43.3542 4.61687L45.3831 6.6458C45.5797 6.84237 45.8853 6.84569 46.0856 6.64536L47.1189 5.61205C47.3193 5.41171 47.3159 5.10613 47.1194 4.90955L45.0904 2.88063C44.8974 2.68756 44.5812 2.68776 44.3879 2.88107L43.3546 3.91438ZM45.7346 6.29433L43.7057 4.2654L44.739 3.23209L46.7679 5.26102L45.7346 6.29433Z" fill="#F2F4F5"/>
<path d="M45.8842 1.38478C45.6909 1.57808 45.6907 1.89421 45.8838 2.08727L47.9127 4.1162C48.1093 4.31277 48.4149 4.31609 48.6152 4.11576L49.6485 3.08245C49.8489 2.88211 49.8455 2.57653 49.649 2.37996L47.62 0.351027C47.427 0.157963 47.1108 0.158159 46.9175 0.351467L45.8842 1.38478ZM48.2642 3.76473L46.2353 1.7358L47.2686 0.702493L49.2975 2.73142L48.2642 3.76473Z" fill="#F2F4F5"/>
</svg>
