<svg width="17" height="21" viewBox="0 0 17 21" fill="none" xmlns="http://www.w3.org/2000/svg">
<path d="M0 18.3051C0 20.0425 0.856235 20.9154 2.57702 20.9154H10.3912C12.112 20.9154 12.9682 20.0342 12.9682 18.3051V16.7672H14.423C16.1355 16.7672 17 15.8861 17 14.157V7.40685C17 6.38435 16.7922 5.73594 16.1687 5.09584L11.9707 0.831296C11.3804 0.22445 10.6822 0 9.79267 0H6.6088C4.89633 0 4.03178 0.881174 4.03178 2.61027V4.14817H2.57702C0.864548 4.14817 0 5.02103 0 6.75844V18.3051ZM12.1785 9.60147L7.59804 4.9379C6.96626 4.28949 6.44254 4.14817 5.51149 4.14817H5.37017V2.63521C5.37017 1.81222 5.81076 1.33839 6.67531 1.33839H10.3496V5.60293C10.3496 6.56724 10.8152 7.02445 11.7711 7.02445H15.6616V14.132C15.6616 14.9633 15.2127 15.4289 14.3482 15.4289H12.9682V11.8127C12.9682 10.7487 12.8435 10.2831 12.1785 9.60147ZM11.555 5.40342V1.99511L15.3125 5.81907H11.9623C11.6714 5.81907 11.555 5.69438 11.555 5.40342ZM1.33839 18.2802V6.77506C1.33839 5.96039 1.77897 5.48655 2.64352 5.48655H5.37017V10.3081C5.37017 11.3555 5.9022 11.8792 6.93301 11.8792H11.6298V18.2802C11.6298 19.1115 11.1809 19.577 10.3247 19.577H2.63521C1.77897 19.577 1.33839 19.1115 1.33839 18.2802ZM7.09095 10.624C6.75844 10.624 6.62543 10.491 6.62543 10.1584V5.79413L11.3721 10.624H7.09095Z" fill="black"/>
</svg>
