<svg width="40" height="40" viewBox="0 0 40 40" fill="none" xmlns="http://www.w3.org/2000/svg">
<circle cx="20" cy="20" r="15" fill="#E5F1F5"/>
<path d="M20.0003 18.4919C19.5861 18.4919 19.2503 18.1561 19.2503 17.7419C19.2503 17.3276 19.5861 16.9918 20.0003 16.9918C20.4146 16.9918 20.7504 17.3276 20.7504 17.7419C20.7504 18.1561 20.4146 18.4919 20.0003 18.4919ZM20.7504 23.7421C20.7504 24.1564 20.4146 24.4922 20.0003 24.4922C19.5861 24.4922 19.2503 24.1564 19.2503 23.7421V20.742C19.2503 20.3278 19.5861 19.992 20.0003 19.992C20.4146 19.992 20.7504 20.3278 20.7504 20.742V23.7421ZM17.0002 23.7421C17.0002 24.1564 16.6644 24.4922 16.2502 24.4922C15.8359 24.4922 15.5001 24.1564 15.5001 23.7421V20.742C15.5001 20.3278 15.8359 19.992 16.2502 19.992C16.6644 19.992 17.0002 20.3278 17.0002 20.742V23.7421ZM24.5005 23.7421C24.5005 24.1564 24.1647 24.4922 23.7505 24.4922C23.3363 24.4922 23.0005 24.1564 23.0005 23.7421V20.742C23.0005 20.3278 23.3363 19.992 23.7505 19.992C24.1647 19.992 24.5005 20.3278 24.5005 20.742V23.7421ZM15.5001 27.4923C13.8432 27.4923 12.5 26.1491 12.5 24.4922V17.2167C12.5 16.3274 13.0237 15.5216 13.8362 15.1605L20.0003 12.4209L26.1644 15.1605C26.977 15.5216 27.5007 16.3274 27.5007 17.2167V24.4922C27.5007 26.1491 26.1574 27.4923 24.5005 27.4923H15.5001ZM20.0003 14.0624L14.4455 16.5313C14.1746 16.6516 14.0001 16.9202 14.0001 17.2167V24.4922C14.0001 25.3206 14.6717 25.9922 15.5001 25.9922H24.5005C25.329 25.9922 26.0006 25.3206 26.0006 24.4922V17.2167C26.0006 16.9202 25.826 16.6516 25.5552 16.5313L20.0003 14.0624Z" fill="#2B6173"/>
</svg>
