<svg width="49" height="49" viewBox="0 0 49 49" fill="none" xmlns="http://www.w3.org/2000/svg">
<g clip-path="url(#clip0_1_11543)">
<path d="M-8 0H57.3333V49H-8V0Z" fill="#012169"/>
<path d="M-0.34375 0L24.5646 18.4771L49.3708 0H57.3333V6.32917L32.8333 24.6021L57.3333 42.7729V49H49.1667L24.6667 30.7271L0.26875 49H-8V42.875L16.3979 24.7042L-8 6.53333V0H-0.34375Z" fill="white"/>
<path d="M35.2833 28.6854L57.3333 44.9167V49L29.6688 28.6854H35.2833ZM16.5 30.7271L17.1125 34.3L-2.4875 49H-8L16.5 30.7271ZM57.3333 0V0.30625L31.9146 19.4979L32.1188 15.0063L52.2292 0H57.3333ZM-8 0L16.3979 17.9667H10.2729L-8 4.2875V0Z" fill="#C8102E"/>
<path d="M16.6021 0V49H32.9354V0H16.6021ZM-8 16.3333V32.6667H57.3333V16.3333H-8Z" fill="white"/>
<path d="M-8 19.7021V29.5021H57.3333V19.7021H-8ZM19.8688 0V49H29.6688V0H19.8688Z" fill="#C8102E"/>
</g>
<defs>
<clipPath id="clip0_1_11543">
<rect width="49" height="49" rx="24.5" fill="white"/>
</clipPath>
</defs>
</svg>
