<svg width="20" height="20" viewBox="0 0 20 20" fill="none" xmlns="http://www.w3.org/2000/svg">
<path fill-rule="evenodd" clip-rule="evenodd" d="M5.33 0H14.669C18.07 0 19.99 1.929 20 5.33V14.67C20 18.07 18.07 20 14.669 20H5.33C1.929 20 0 18.07 0 14.67V5.33C0 1.929 1.929 0 5.33 0ZM10.0494 15.8604C10.4804 15.8604 10.8394 15.5404 10.8794 15.1104V4.92043C10.9194 4.61043 10.7704 4.29943 10.5004 4.13043C10.2194 3.96043 9.87939 3.96043 9.61039 4.13043C9.33939 4.29943 9.19039 4.61043 9.21939 4.92043V15.1104C9.27039 15.5404 9.62939 15.8604 10.0494 15.8604ZM14.6499 15.8596C15.0699 15.8596 15.4289 15.5396 15.4799 15.1096V11.8296C15.5089 11.5086 15.3599 11.2096 15.0889 11.0396C14.8199 10.8696 14.4799 10.8696 14.1999 11.0396C13.9289 11.2096 13.7799 11.5086 13.8199 11.8296V15.1096C13.8599 15.5396 14.2189 15.8596 14.6499 15.8596ZM6.21945 15.1097C6.17945 15.5397 5.82045 15.8597 5.38945 15.8597C4.95945 15.8597 4.59945 15.5397 4.56045 15.1097V8.19973C4.53045 7.88873 4.67945 7.57973 4.95045 7.40973C5.21945 7.23973 5.56045 7.23973 5.83045 7.40973C6.09945 7.57973 6.25045 7.88873 6.21945 8.19973V15.1097Z" fill="#9CA2AA"/>
</svg>
