<svg width="66" height="66" viewBox="0 0 66 66" fill="none" xmlns="http://www.w3.org/2000/svg">
<mask id="mask0_0_3385" style="mask-type:alpha" maskUnits="userSpaceOnUse" x="0" y="0" width="66" height="66">
<path opacity="0.9" d="M46.0909 0.450351C55.5373 0.771487 63.3067 7.99635 64.3123 17.3945L65.1315 25.0514C65.7088 30.4471 65.7058 35.8893 65.1224 41.2844L64.3286 48.626C63.3134 58.015 55.5478 65.2281 46.1095 65.549L32.8436 66L19.7486 65.5548C10.2365 65.2315 2.43579 57.9109 1.50958 48.4385L0.722181 40.3858C0.241873 35.4736 0.241873 30.5264 0.722182 25.6142L1.50958 17.5615C2.43579 8.08906 10.2365 0.768543 19.7486 0.445173L32.8436 -1.44931e-06L46.0909 0.450351Z" fill="#132F38"/>
</mask>
<g mask="url(#mask0_0_3385)">
<g clip-path="url(#clip0_0_3385)">
<path d="M33.5 78C56.9721 78 76 58.9721 76 35.5C76 12.0279 56.9721 -7 33.5 -7C10.0279 -7 -9 12.0279 -9 35.5C-9 58.9721 10.0279 78 33.5 78Z" fill="#F0F0F0"/>
<path d="M76 35.5C76 58.972 56.972 78 33.5 78C10.028 78 -9 58.972 -9 35.5" fill="#D80027"/>
</g>
</g>
<defs>
<clipPath id="clip0_0_3385">
<rect width="85" height="85" fill="white" transform="translate(-9 -7)"/>
</clipPath>
</defs>
</svg>
