<svg width="5" height="5" viewBox="0 0 5 5" fill="none" xmlns="http://www.w3.org/2000/svg">
<g clip-path="url(#clip0_0_507)">
<path d="M1.89918 4.32764C1.97641 4.26514 2.06908 4.21826 2.16175 4.18701C2.25442 4.15576 2.36254 4.14014 2.47066 4.14014C2.57878 4.14014 2.68689 4.15576 2.77957 4.18701C2.87224 4.21826 2.96491 4.26514 3.04214 4.32764C3.15025 4.40576 3.30471 4.39014 3.38194 4.28076C3.45916 4.17139 3.44372 4.01514 3.3356 3.93701C3.21204 3.84326 3.08847 3.78076 2.93402 3.71826C2.77957 3.65577 2.62511 3.64014 2.47066 3.64014C2.3162 3.64014 2.16175 3.67139 2.0073 3.71826C1.86829 3.76514 1.72928 3.84326 1.60572 3.93701C1.4976 4.01514 1.48215 4.17139 1.55938 4.28076C1.63661 4.39014 1.79106 4.40576 1.89918 4.32764Z" fill="white"/>
<path d="M1.45126 3.46827C1.74472 3.28077 2.09997 3.17139 2.47066 3.17139C2.84135 3.17139 3.19659 3.28077 3.49005 3.46827C3.59817 3.54639 3.75262 3.49952 3.82985 3.39014C3.90708 3.26514 3.86074 3.12452 3.75262 3.04639C3.38193 2.81202 2.94946 2.67139 2.47066 2.67139C2.0073 2.67139 1.55938 2.81202 1.18869 3.04639C1.08057 3.12452 1.03424 3.28077 1.11146 3.39014C1.18869 3.49952 1.3277 3.54639 1.45126 3.46827Z" fill="white"/>
<path d="M0.987901 2.56202C1.42037 2.29639 1.93007 2.15577 2.47066 2.15577C3.01125 2.15577 3.52094 2.31202 3.95341 2.56202C4.07698 2.62452 4.21599 2.59327 4.29321 2.46827C4.35499 2.34327 4.3241 2.20264 4.20054 2.12452C3.69084 1.81202 3.10392 1.64014 2.47066 1.64014C1.8374 1.64014 1.25047 1.81202 0.740775 2.12452C0.617212 2.18702 0.586321 2.34327 0.648103 2.46827C0.725329 2.59327 0.864338 2.62452 0.987901 2.56202Z" fill="white"/>
<path d="M0.52454 1.65578C1.09602 1.32765 1.76017 1.12453 2.47066 1.12453C3.18114 1.12453 3.8453 1.31203 4.41678 1.65578C4.54034 1.71828 4.67935 1.68703 4.75657 1.56203C4.81835 1.43703 4.78746 1.2964 4.6639 1.21828C4.0152 0.843277 3.27382 0.624527 2.47066 0.624527C1.6675 0.624527 0.926119 0.843277 0.277413 1.21828C0.15385 1.28078 0.12296 1.43703 0.184741 1.56203C0.246523 1.68703 0.400976 1.71828 0.52454 1.65578Z" fill="white"/>
</g>
<defs>
<clipPath id="clip0_0_507">
<rect width="4.31628" height="4.26667" fill="white" transform="translate(0 5) scale(1.1584) rotate(-90)"/>
</clipPath>
</defs>
</svg>
