<svg width="53" height="53" viewBox="0 0 53 53" fill="none" xmlns="http://www.w3.org/2000/svg">
<g filter="url(#filter0_d_1_11571)">
<path d="M6.3814 18.2966C6.57777 12.5202 10.9957 7.76925 16.7427 7.15435L21.6406 6.6303C24.9401 6.27727 28.2679 6.27914 31.567 6.63586L36.2698 7.14436C42.0112 7.76516 46.422 12.5138 46.6182 18.2853L46.9008 26.5967L46.6218 34.8036C46.424 40.6202 41.9476 45.3903 36.1552 45.9567L31.0164 46.4592C28.0126 46.7529 24.9874 46.7529 21.9836 46.4592L16.8448 45.9567C11.0524 45.3903 6.57597 40.6202 6.37823 34.8036L6.09923 26.5967L6.3814 18.2966Z" fill="#132F38"/>
<path fill-rule="evenodd" clip-rule="evenodd" d="M31.03 35.7489C29.8803 36.2353 28.5051 36.4785 26.9043 36.4785C25.3832 36.4785 24.0566 36.2574 22.9246 35.8152C21.8015 35.3642 20.9171 34.723 20.2715 33.8917C19.6259 33.0515 19.2677 32.0433 19.197 30.8671L19.1837 30.6549H22.9644L22.991 30.8008C23.0794 31.296 23.3005 31.725 23.6542 32.0876C24.008 32.4413 24.4723 32.7199 25.0471 32.9233C25.622 33.1179 26.272 33.2151 26.9972 33.2151C27.7401 33.2151 28.3768 33.1179 28.9075 32.9233C29.4469 32.7199 29.8626 32.4325 30.1544 32.061C30.4551 31.6896 30.6055 31.2607 30.6055 30.7743V30.761C30.6055 30.1242 30.349 29.6201 29.8361 29.2487C29.332 28.8773 28.4874 28.5721 27.3023 28.3334L25.2727 27.9221C23.439 27.5623 22.0454 26.9533 21.0917 26.0954H32.0666C32.5091 26.3365 32.8887 26.6049 33.2056 26.9007C34.143 27.7585 34.6117 28.9392 34.6117 30.4426V30.4559C34.6117 31.6852 34.3022 32.7508 33.6831 33.6529C33.0729 34.555 32.1885 35.2536 31.03 35.7489ZM19.6491 23.3882C19.6042 23.0991 19.5817 22.7975 19.5817 22.4832V22.4699C19.5905 21.3025 19.9045 20.2855 20.5235 19.4188C21.1514 18.5433 22.0137 17.8623 23.1103 17.3759C24.2158 16.8895 25.4716 16.6463 26.8778 16.6463C28.3547 16.6463 29.6282 16.8806 30.6983 17.3494C31.7773 17.8092 32.6174 18.4593 33.2188 19.2994C33.8202 20.1396 34.1563 21.1168 34.227 22.2311L34.2403 22.4699H30.4596L30.433 22.3107C30.3711 21.8066 30.181 21.3777 29.8626 21.024C29.5531 20.6702 29.1418 20.396 28.6289 20.2015C28.1248 20.0069 27.5411 19.9096 26.8778 19.9096C26.1968 19.9096 25.6087 20.0069 25.1135 20.2015C24.6271 20.396 24.2512 20.6702 23.9859 21.024C23.7206 21.3689 23.5879 21.7668 23.5879 22.2179V22.2311C23.5879 22.682 23.7279 23.0677 24.0079 23.3882L19.6491 23.3882Z" fill="white"/>
</g>
<defs>
<filter id="filter0_d_1_11571" x="0" y="0" width="53" height="53" filterUnits="userSpaceOnUse" color-interpolation-filters="sRGB">
<feFlood flood-opacity="0" result="BackgroundImageFix"/>
<feColorMatrix in="SourceAlpha" type="matrix" values="0 0 0 0 0 0 0 0 0 0 0 0 0 0 0 0 0 0 127 0" result="hardAlpha"/>
<feOffset/>
<feGaussianBlur stdDeviation="3"/>
<feColorMatrix type="matrix" values="0 0 0 0 0 0 0 0 0 0 0 0 0 0 0 0 0 0 0.05 0"/>
<feBlend mode="normal" in2="BackgroundImageFix" result="effect1_dropShadow_1_11571"/>
<feBlend mode="normal" in="SourceGraphic" in2="effect1_dropShadow_1_11571" result="shape"/>
</filter>
</defs>
</svg>
