<svg width="33" height="33" viewBox="0 0 33 33" fill="none" xmlns="http://www.w3.org/2000/svg">
<g clip-path="url(#clip0_1_10920)">
<path d="M7.70785 0C2.73058 0 0 3.41846 0 7.66467V25.1503C0 29.3965 2.73058 32.815 7.70785 32.815H25.292C30.2693 32.815 32.9999 29.3965 32.9999 25.1503V7.66467C32.9999 3.41846 30.2693 0 25.292 0H7.70785Z" fill="#1E1E1E"/>
<path d="M6.6667 7.16743C5.00021 7.16743 4.12494 8.17867 4.12494 9.69495V23.1197C4.12494 24.636 5.00021 25.6473 6.6667 25.6473H26.3331C27.9996 25.6473 28.8748 24.636 28.8748 23.1197V9.69495C28.8748 8.17867 27.9996 7.16743 26.3331 7.16743H6.6667Z" fill="#D9D7CC"/>
<path d="M6.86737 8.20358C5.54828 8.20358 5.15544 8.98968 5.15544 9.96617V16.3923L10.9769 16.403C12.5321 16.4058 13.169 17.028 13.8171 17.8986C13.9821 18.1203 14.1829 18.4208 14.379 18.616C14.9644 19.1987 15.7321 19.4898 16.4999 19.4898C17.2677 19.4898 18.0354 19.1987 18.6209 18.616C18.8169 18.4208 19.0177 18.1203 19.1828 17.8986C19.8308 17.028 20.4677 16.4058 22.0229 16.403L27.8444 16.3923V9.96617C27.8444 8.98968 27.4515 8.20358 26.1324 8.20358H6.86737Z" fill="#F16D5E"/>
<path d="M6.86737 8.20358C5.54828 8.20358 5.15544 8.98968 5.15544 9.96617V12.025C5.15544 11.0485 5.54828 10.2624 6.86737 10.2624H26.1324C27.4515 10.2624 27.8444 11.0485 27.8444 12.025V9.96617C27.8444 8.98968 27.4515 8.20358 26.1324 8.20358H6.86737Z" fill="#4095CA"/>
<g filter="url(#filter0_f_1_10920)">
<path d="M6.86737 10.2625C5.54828 10.2625 5.15544 11.0486 5.15544 12.0251V14.0839C5.15544 13.1075 5.54828 12.3214 6.86737 12.3214H26.1324C27.4515 12.3214 27.8444 13.1075 27.8444 14.0839V12.0251C27.8444 11.0486 27.4515 10.2625 26.1324 10.2625H6.86737Z" fill="black" fill-opacity="0.317757"/>
</g>
<path d="M6.86737 10.2625C5.54828 10.2625 5.15544 11.0486 5.15544 12.0251V14.0839C5.15544 13.1075 5.54828 12.3214 6.86737 12.3214H26.1324C27.4515 12.3214 27.8444 13.1075 27.8444 14.0839V12.0251C27.8444 11.0486 27.4515 10.2625 26.1324 10.2625H6.86737Z" fill="#FFB103"/>
<g filter="url(#filter1_f_1_10920)">
<path d="M6.86737 12.3211C5.54828 12.3211 5.15544 13.1072 5.15544 14.0837V16.1425C5.15544 15.166 5.54828 14.3799 6.86737 14.3799H26.1324C27.4515 14.3799 27.8444 15.166 27.8444 16.1425V14.0837C27.8444 13.1072 27.4515 12.3211 26.1324 12.3211H6.86737Z" fill="black" fill-opacity="0.313726"/>
</g>
<path d="M6.86737 12.3211C5.54828 12.3211 5.15544 13.1072 5.15544 14.0837V16.1425C5.15544 15.166 5.54828 14.3799 6.86737 14.3799H26.1324C27.4515 14.3799 27.8444 15.166 27.8444 16.1425V14.0837C27.8444 13.1072 27.4515 12.3211 26.1324 12.3211H6.86737Z" fill="#50BD3D"/>
<g filter="url(#filter2_f_1_10920)">
<path d="M6.86737 14.38C5.54828 14.38 5.15544 15.1661 5.15544 16.1426V18.2015C5.15544 17.225 5.54828 16.4389 6.86737 16.4389H26.1324C27.4515 16.4389 27.8444 17.225 27.8444 18.2015V16.1426C27.8444 15.1661 27.4515 14.38 26.1324 14.38H6.86737Z" fill="black" fill-opacity="0.313726"/>
</g>
<g filter="url(#filter3_f_1_10920)">
<path d="M6.6667 7.16743C5.00021 7.16743 4.12494 8.17867 4.12494 9.69495V23.1197C4.12494 24.636 5.00021 25.6473 6.6667 25.6473H26.3331C27.9996 25.6473 28.8748 24.636 28.8748 23.1197V9.69495C28.8748 8.17867 27.9996 7.16743 26.3331 7.16743H6.6667ZM6.86734 8.2036H26.1324C27.4515 8.2036 27.8444 8.9897 27.8444 9.96619V16.3923L22.0229 16.403C20.4676 16.4058 19.8308 17.028 19.1827 17.8986C19.0177 18.1203 18.8169 18.4209 18.6208 18.616C18.0354 19.1987 17.2676 19.4898 16.4999 19.4898C15.7321 19.4898 14.9644 19.1987 14.3789 18.616C14.1829 18.4209 13.9821 18.1203 13.817 17.8986C13.1689 17.028 12.5321 16.4059 10.9769 16.403L5.15541 16.3923V9.96619C5.15541 8.9897 5.54826 8.2036 6.86734 8.2036Z" fill="#580900" fill-opacity="0.299065"/>
</g>
<path d="M4.12494 14.8836H5.15541V16.3921H4.12494V14.8836Z" fill="url(#paint0_linear_1_10920)"/>
<path d="M27.8446 14.8836H28.875V16.3921H27.8446V14.8836Z" fill="url(#paint1_linear_1_10920)"/>
</g>
<defs>
<filter id="filter0_f_1_10920" x="-5.36645" y="-0.259361" width="43.7329" height="24.8652" filterUnits="userSpaceOnUse" color-interpolation-filters="sRGB">
<feFlood flood-opacity="0" result="BackgroundImageFix"/>
<feBlend mode="normal" in="SourceGraphic" in2="BackgroundImageFix" result="shape"/>
<feGaussianBlur stdDeviation="5.2249" result="effect1_foregroundBlur_1_10920"/>
</filter>
<filter id="filter1_f_1_10920" x="-5.36645" y="1.79921" width="43.7329" height="24.8652" filterUnits="userSpaceOnUse" color-interpolation-filters="sRGB">
<feFlood flood-opacity="0" result="BackgroundImageFix"/>
<feBlend mode="normal" in="SourceGraphic" in2="BackgroundImageFix" result="shape"/>
<feGaussianBlur stdDeviation="5.2249" result="effect1_foregroundBlur_1_10920"/>
</filter>
<filter id="filter2_f_1_10920" x="-5.36645" y="3.85815" width="43.7329" height="24.8652" filterUnits="userSpaceOnUse" color-interpolation-filters="sRGB">
<feFlood flood-opacity="0" result="BackgroundImageFix"/>
<feBlend mode="normal" in="SourceGraphic" in2="BackgroundImageFix" result="shape"/>
<feGaussianBlur stdDeviation="5.2249" result="effect1_foregroundBlur_1_10920"/>
</filter>
<filter id="filter3_f_1_10920" x="-8.95627" y="-5.91378" width="50.9125" height="44.6423" filterUnits="userSpaceOnUse" color-interpolation-filters="sRGB">
<feFlood flood-opacity="0" result="BackgroundImageFix"/>
<feBlend mode="normal" in="SourceGraphic" in2="BackgroundImageFix" result="shape"/>
<feGaussianBlur stdDeviation="6.4958" result="effect1_foregroundBlur_1_10920"/>
</filter>
<linearGradient id="paint0_linear_1_10920" x1="4.12494" y1="16.3921" x2="4.12494" y2="15.6102" gradientUnits="userSpaceOnUse">
<stop stop-color="#CBC9BE"/>
<stop offset="1" stop-color="#C8C5BB" stop-opacity="0"/>
</linearGradient>
<linearGradient id="paint1_linear_1_10920" x1="27.8446" y1="16.3921" x2="27.8446" y2="15.6102" gradientUnits="userSpaceOnUse">
<stop stop-color="#CBC9BE"/>
<stop offset="1" stop-color="#C8C5BB" stop-opacity="0"/>
</linearGradient>
<clipPath id="clip0_1_10920">
<rect width="32.7738" height="32.5902" fill="white" transform="scale(1.0069)"/>
</clipPath>
</defs>
</svg>
