<svg width="22" height="22" viewBox="0 0 22 22" fill="none" xmlns="http://www.w3.org/2000/svg">
<g clip-path="url(#clip0_1_15703)">
<path fill-rule="evenodd" clip-rule="evenodd" d="M0 11.0614C0 16.5302 3.97191 21.0778 9.16666 22V14.0552H6.41666V11H9.16666V8.55525C9.16666 5.80525 10.9386 4.27808 13.4447 4.27808C14.2386 4.27808 15.0947 4.4 15.8886 4.52191V7.33333H14.4833C13.1386 7.33333 12.8333 8.00525 12.8333 8.86141V11H15.7667L15.2781 14.0552H12.8333V22C18.0281 21.0778 22 16.5312 22 11.0614C22 4.9775 17.05 0 11 0C4.95 0 0 4.9775 0 11.0614Z" fill="#2791B5"/>
</g>
<defs>
<clipPath id="clip0_1_15703">
<rect width="21.5122" height="21.5122" fill="white" transform="scale(1.02268)"/>
</clipPath>
</defs>
</svg>
