<svg width="173" height="173" viewBox="0 0 173 173" fill="none" xmlns="http://www.w3.org/2000/svg">
<path d="M11.5914 168.457L3.30768 160.173L0.28609 163.195C-0.0319725 163.513 -0.154519 163.978 0.285322 164.417C0.725164 164.857 1.18981 164.735 1.50787 164.417L3.30615 162.618L10.368 169.68L8.56977 171.479C8.25171 171.797 8.12916 172.261 8.569 172.701C9.00884 173.141 9.47349 173.018 9.79155 172.7L14.6114 167.88C14.9295 167.562 15.052 167.098 14.6122 166.658L11.5333 163.579C11.179 163.225 10.7634 163.127 10.3107 163.58C9.85812 164.032 9.95566 164.448 10.31 164.802L12.778 167.27L11.5914 168.457Z" fill="white"/>
<path d="M15.0659 159.142L18.5157 155.693C18.9193 155.289 19.1396 154.946 19.1644 154.36C19.1893 153.699 18.8961 153.333 18.4563 152.893L15.9516 150.388C15.5118 149.948 15.1452 149.655 14.485 149.68C13.8982 149.705 13.5557 149.925 13.152 150.329L9.09062 154.39C8.77256 154.708 8.65001 155.173 9.08985 155.613C9.5297 156.053 9.99434 155.93 10.3124 155.612L14.5206 151.404L17.4407 154.324L14.0032 157.761C13.0857 158.679 13.0851 159.608 14.0014 160.524L17.9844 164.507L23.4159 159.076C23.734 158.758 23.8566 158.293 23.4167 157.853C22.9769 157.414 22.5122 157.536 22.1942 157.854L17.986 162.062L15.0659 159.142Z" fill="white"/>
<path d="M23.3251 142.599L25.3533 144.628C26.0375 145.312 25.9761 145.789 25.6335 146.131L23.2358 148.529C22.9178 148.847 22.7952 149.311 23.2351 149.751C23.6749 150.191 24.1396 150.069 24.4576 149.751L26.8553 147.353C27.1979 147.01 27.6747 146.949 28.3589 147.633L30.387 149.661L26.1788 153.869C25.8608 154.188 25.7382 154.652 26.1781 155.092C26.6179 155.532 27.0826 155.409 27.4006 155.091L31.6088 150.883C32.3061 150.186 32.3068 149.134 31.6104 148.438L29.2645 146.092C28.7758 145.603 28.3236 145.347 27.6023 145.384C27.6394 144.663 27.383 144.211 26.8943 143.722L24.5485 141.376C23.852 140.68 22.8007 140.68 22.1034 141.378L17.8952 145.586C17.5771 145.904 17.4545 146.368 17.8944 146.808C18.3342 147.248 18.7989 147.126 19.1169 146.808L23.3251 142.599Z" fill="white"/>
<path d="M33.1034 140.738L28.5339 136.169C28.2284 135.863 27.7762 135.705 27.3113 136.17C26.8465 136.634 27.0051 137.087 27.3106 137.392L33.1018 143.183L36.6984 139.587L39.1908 142.079C39.5818 142.47 39.973 142.519 40.4134 142.079C40.8537 141.638 40.8051 141.247 40.4141 140.856L37.9217 138.364C38.2397 138.045 38.3623 137.581 37.9225 137.141C37.4826 136.701 37.018 136.824 36.6999 137.142L33.169 133.611C32.8635 133.305 32.4113 133.147 31.9464 133.612C31.4815 134.076 31.6402 134.529 31.9456 134.834L35.4766 138.365L33.1034 140.738Z" fill="white"/>
<path d="M47.3533 118.571L50.3504 115.574C50.6685 115.256 50.791 114.791 50.3512 114.352C49.9113 113.912 49.4467 114.034 49.1286 114.352L44.9082 118.573L50.2718 123.936L53.8806 120.328L56.8006 123.248L53.9748 126.074C53.779 126.269 53.3266 126.38 53.0821 126.478L52.5562 126.686C52.3606 126.759 52.2138 126.833 52.067 126.979C51.749 127.297 51.7731 127.86 52.0907 128.177C52.5184 128.605 52.9953 128.348 53.4722 128.164L54.1448 127.907C54.585 127.736 54.854 127.638 55.1721 127.32L57.8879 124.604C58.3282 124.164 58.5974 123.797 58.5367 123.124C58.4882 122.562 58.2561 122.256 57.8773 121.878L55.2627 119.263C54.8351 118.836 54.5052 118.579 53.845 118.604C53.2704 118.616 52.9157 118.849 52.5242 119.24L50.2733 121.491L47.3533 118.571Z" fill="white"/>
<path d="M54.9467 110.978C55.3015 110.623 55.314 110.122 54.9475 109.755C54.6298 109.438 54.0797 109.401 53.7616 109.719L53.0276 110.453C52.5995 110.881 52.8315 111.309 53.1125 111.59L61.2374 119.715C61.7994 120.277 62.2273 120.265 62.8022 119.69L67.2551 115.237C67.8056 114.686 67.8548 114.246 67.2805 113.672L64.5438 110.935C63.9817 110.373 63.6028 110.239 62.9912 110.85L58.9053 114.936L54.9467 110.978ZM63.7236 112.562L65.6052 114.443L62.0086 118.04L60.1271 116.158L63.7236 112.562Z" fill="white"/>
<path d="M67.3478 98.5767L69.0339 100.263C69.5714 100.8 69.5837 100.764 69.5343 101.522L69.3001 104.664C69.263 105.238 69.2874 105.287 69.6906 105.69L72.6351 108.635C73.0261 109.026 73.4173 109.075 73.8577 108.634C74.2981 108.194 74.2494 107.803 73.8584 107.412L71.4882 105.041C71.0606 104.614 71.0606 104.565 71.0976 103.966L71.3319 100.775C71.3812 100.139 71.3201 100.102 70.8925 99.6748L67.3493 96.1316L61.9178 101.563C61.5264 101.955 61.6483 102.517 61.917 102.786L62.5279 103.397C62.7967 103.665 63.359 103.787 63.7505 103.396C64.1419 103.004 64.02 102.442 63.7513 102.173L67.3478 98.5767Z" fill="white"/>
<path d="M76.6992 95.0655L73.7791 92.1454L74.929 90.9955L77.8491 93.9155L76.6992 95.0655ZM71.9457 91.5353C71.5297 91.9512 71.6272 92.4402 71.9449 92.7578L75.4759 96.2888C75.0966 96.668 74.9374 97.096 74.9249 97.5239C74.9124 97.9518 75.1078 98.3673 75.4865 98.7461L78.3944 101.654C79.1397 102.399 80.081 102.411 80.8395 101.652L84.436 98.0558C85.1945 97.2974 85.1828 96.356 84.4376 95.6107L81.5297 92.7029C81.151 92.3242 80.7354 92.1288 80.3075 92.1413C79.8796 92.1538 79.4516 92.313 79.0724 92.6922L75.5414 89.1613C75.2238 88.8436 74.7348 88.7461 74.3189 89.162L71.9457 91.5353ZM79.6177 100.431L76.6976 97.5106L80.2942 93.914L83.2142 96.8341L79.6177 100.431Z" fill="white"/>
<path d="M100.823 79.225C100.469 79.5798 100.456 80.081 100.823 80.4475C101.152 80.7774 101.678 80.8138 102.045 80.4468L102.657 79.8351C103.024 79.4681 102.987 78.9425 102.658 78.6126L94.3738 70.3289C94.0562 70.0112 93.4938 69.9871 93.1513 70.3297L88.3314 75.1495C87.9889 75.4921 88.013 76.0544 88.3306 76.3721L91.4584 79.4998C91.7761 79.8175 92.3384 79.8416 92.681 79.4991L96.8892 75.2909L100.823 79.225ZM92.0708 77.6656L90.1649 75.7596L93.7614 72.1631L95.6674 74.0691L92.0708 77.6656Z" fill="white"/>
<path d="M97.7476 65.7333C97.0748 66.4062 97.0741 67.5065 97.7461 68.1784L104.808 75.2403C105.492 75.9245 106.556 75.9361 107.253 75.2388L110.85 71.6423C111.547 70.945 111.535 69.8813 110.851 69.1971L103.789 62.1353C103.117 61.4633 102.017 61.464 101.344 62.1368L97.7476 65.7333ZM106.031 74.017L98.9694 66.9551L102.566 63.3586L109.628 70.4205L106.031 74.017Z" fill="white"/>
<path d="M106.552 56.9288C105.879 57.6016 105.879 58.7019 106.551 59.3739L113.612 66.4358C114.297 67.12 115.36 67.1316 116.058 66.4343L119.654 62.8377C120.351 62.1404 120.34 61.0768 119.656 60.3926L112.594 53.3307C111.922 52.6587 110.822 52.6594 110.149 53.3323L106.552 56.9288ZM114.836 65.2125L107.774 58.1506L111.37 54.554L118.432 61.6159L114.836 65.2125Z" fill="white"/>
<path d="M115.357 48.1243C114.684 48.7971 114.683 49.8974 115.355 50.5694L122.417 57.6313C123.101 58.3155 124.165 58.327 124.862 57.6297L128.459 54.0332C129.156 53.3359 129.144 52.2723 128.46 51.5881L121.398 44.5262C120.726 43.8542 119.626 43.8549 118.953 44.5277L115.357 48.1243ZM123.64 56.408L116.578 49.3461L120.175 45.7495L127.237 52.8114L123.64 56.408Z" fill="white"/>
<path d="M132.966 30.5152C132.293 31.188 132.292 32.2883 132.964 32.9603L140.026 40.0222C140.71 40.7064 141.774 40.718 142.471 40.0207L146.068 36.4241C146.765 35.7268 146.753 34.6632 146.069 33.979L139.007 26.9171C138.335 26.2452 137.235 26.2458 136.562 26.9187L132.966 30.5152ZM141.249 38.7989L134.188 31.737L137.784 28.1404L144.846 35.2023L141.249 38.7989Z" fill="white"/>
<path d="M141.77 21.7107C141.097 22.3835 141.097 23.4838 141.769 24.1558L148.831 31.2177C149.515 31.9019 150.578 31.9134 151.276 31.2161L154.872 27.6196C155.57 26.9223 155.558 25.8587 154.874 25.1745L147.812 18.1126C147.14 17.4406 146.04 17.4413 145.367 18.1141L141.77 21.7107ZM150.054 29.9944L142.992 22.9325L146.589 19.3359L153.65 26.3978L150.054 29.9944Z" fill="white"/>
<path d="M150.575 12.9061C149.902 13.579 149.901 14.6793 150.573 15.3512L157.635 22.4131C158.319 23.0973 159.383 23.1089 160.08 22.4116L163.677 18.8151C164.374 18.1178 164.363 17.0542 163.678 16.37L156.616 9.30807C155.944 8.63609 154.844 8.63677 154.171 9.30959L150.575 12.9061ZM158.858 21.1898L151.797 14.1279L155.393 10.5314L162.455 17.5933L158.858 21.1898Z" fill="white"/>
<path d="M159.379 4.10162C158.707 4.77444 158.706 5.87474 159.378 6.54672L166.44 13.6086C167.124 14.2928 168.187 14.3044 168.885 13.6071L172.481 10.0105C173.179 9.31323 173.167 8.24963 172.483 7.56543L165.421 0.503537C164.749 -0.168443 163.649 -0.167766 162.976 0.505057L159.379 4.10162ZM167.663 12.3853L160.601 5.3234L164.198 1.72684L171.26 8.78874L167.663 12.3853Z" fill="white"/>
</svg>
