<svg width="10" height="16" viewBox="0 0 10 16" fill="none" xmlns="http://www.w3.org/2000/svg">
<path d="M9.56094 8.03146C9.56215 8.24104 9.52198 8.44878 9.44274 8.6428C9.36349 8.83681 9.24673 9.01328 9.09914 9.16207L2.72953 15.5317C2.58105 15.6802 2.40479 15.7979 2.2108 15.8783C2.01681 15.9586 1.80889 16 1.59892 16C1.38895 16 1.18103 15.9586 0.987038 15.8783C0.793048 15.7979 0.616785 15.6802 0.468312 15.5317C0.319839 15.3832 0.202063 15.207 0.121709 15.013C0.0413562 14.819 -6.38416e-08 14.6111 -6.9891e-08 14.4011C-7.59404e-08 14.1911 0.0413561 13.9832 0.121709 13.7892C0.202063 13.5952 0.319839 13.4189 0.468312 13.2705L5.73917 8.03146L0.675324 2.77653C0.512437 2.63004 0.381528 2.45152 0.290783 2.25213C0.200038 2.05274 0.15141 1.83678 0.14794 1.61774C0.14447 1.3987 0.186231 1.18129 0.270614 0.979129C0.354997 0.776965 0.480187 0.594388 0.638351 0.442814C0.796516 0.29124 0.984254 0.173928 1.18982 0.0982203C1.39539 0.0225133 1.61437 -0.00996357 1.83307 0.00282016C2.05176 0.0156039 2.26547 0.0733748 2.46082 0.172519C2.65617 0.271662 2.82896 0.410045 2.96839 0.579014L9.11507 6.94863C9.39583 7.23984 9.55524 7.62699 9.56094 8.03146Z" fill="#21897E"/>
</svg>
