<svg width="47" height="47" viewBox="0 0 47 47" fill="none" xmlns="http://www.w3.org/2000/svg">
<path d="M15.4876 16.2794C14.9148 20.3286 16.1839 24.5889 19.2974 27.7025C22.411 30.8161 26.6714 32.0852 30.7206 31.5123C30.2207 33.8576 29.0594 36.0908 27.2368 37.9135C22.2184 42.9318 14.0872 42.9369 9.07512 37.9249C4.06307 32.9128 4.06818 24.7816 9.08653 19.7632C10.9091 17.9406 13.1423 16.7793 15.4876 16.2794Z" fill="white"/>
<path d="M31.0393 30.8122C31.7328 26.8342 30.5451 22.5944 27.4754 19.5246C25.8446 17.8939 23.8835 16.7942 21.807 16.2256C21.1962 16.0584 20.5755 15.9371 19.9502 15.8617C19.8642 15.8513 19.7782 15.8418 19.6921 15.8332C18.5253 15.7164 17.3455 15.7588 16.1878 15.9606C15.4944 19.9387 16.6821 24.1785 19.7518 27.2482C22.8215 30.3179 27.0613 31.5056 31.0393 30.8122Z" fill="white"/>
<path d="M19.7632 9.08654C17.9925 10.8573 16.8459 13.0155 16.3237 15.2876C20.4272 14.6498 24.7692 15.9098 27.9296 19.0703C31.0902 22.2308 32.3501 26.5728 31.7123 30.6763C33.9844 30.1541 36.1427 29.0075 37.9135 27.2368C42.9318 22.2184 42.9369 14.0872 37.9249 9.07513C32.9128 4.06308 24.7816 4.06819 19.7632 9.08654Z" fill="white"/>
</svg>
