<svg width="66" height="66" viewBox="0 0 66 66" fill="none" xmlns="http://www.w3.org/2000/svg">
<mask id="mask0_0_3372" style="mask-type:alpha" maskUnits="userSpaceOnUse" x="0" y="0" width="66" height="66">
<path opacity="0.9" d="M46.0909 0.450351C55.5373 0.771487 63.3067 7.99635 64.3123 17.3945L65.1315 25.0514C65.7088 30.4471 65.7058 35.8893 65.1224 41.2844L64.3286 48.626C63.3134 58.015 55.5478 65.2281 46.1095 65.549L32.8436 66L19.7486 65.5548C10.2365 65.2315 2.43579 57.9109 1.50958 48.4385L0.722181 40.3858C0.241873 35.4736 0.241873 30.5264 0.722182 25.6142L1.50958 17.5615C2.43579 8.08906 10.2365 0.768543 19.7486 0.445173L32.8436 -1.44931e-06L46.0909 0.450351Z" fill="#132F38"/>
</mask>
<g mask="url(#mask0_0_3372)">
<g clip-path="url(#clip0_0_3372)">
<path d="M32.5 76C55.4198 76 74 57.4198 74 34.5C74 11.5802 55.4198 -7 32.5 -7C9.58018 -7 -9 11.5802 -9 34.5C-9 57.4198 9.58018 76 32.5 76Z" fill="#F0F0F0"/>
<path d="M32.4993 -7C16.0462 -7 1.82981 2.57499 -4.88281 16.4566H69.8812C63.1688 2.57499 48.9523 -7 32.4993 -7Z" fill="#FF9811"/>
<path d="M32.4993 76.0005C48.9523 76.0005 63.1688 66.4255 69.8814 52.5439H-4.88281C1.82981 66.4255 16.0462 76.0005 32.4993 76.0005Z" fill="#6DA544"/>
<path d="M32.5011 48.9343C40.4732 48.9343 46.9358 42.4717 46.9358 34.4996C46.9358 26.5276 40.4732 20.0649 32.5011 20.0649C24.529 20.0649 18.0664 26.5276 18.0664 34.4996C18.0664 42.4717 24.529 48.9343 32.5011 48.9343Z" fill="#0052B4"/>
<path d="M32.5002 43.5219C37.4828 43.5219 41.5219 39.4828 41.5219 34.5002C41.5219 29.5177 37.4828 25.4785 32.5002 25.4785C27.5177 25.4785 23.4785 29.5177 23.4785 34.5002C23.4785 39.4828 27.5177 43.5219 32.5002 43.5219Z" fill="#F0F0F0"/>
<path d="M32.4995 23.3672L35.2828 29.6794L42.1407 28.9335L38.0659 34.4999L42.1407 40.0662L35.2828 39.3204L32.4995 45.6326L29.7163 39.3204L22.8584 40.0661L26.9332 34.4999L22.8584 28.9335L29.7163 29.6794L32.4995 23.3672Z" fill="#0052B4"/>
</g>
</g>
<defs>
<clipPath id="clip0_0_3372">
<rect width="83" height="83" fill="white" transform="translate(-9 -7)"/>
</clipPath>
</defs>
</svg>
