<svg width="20" height="20" viewBox="0 0 20 20" fill="none" xmlns="http://www.w3.org/2000/svg">
<circle cx="10" cy="10" r="9.25" fill="#2791B5" stroke="white" stroke-width="1.5"/>
<path d="M9.9998 8.7998C9.3494 8.7998 8.7998 9.3494 8.7998 9.9998C8.7998 10.6502 9.3494 11.1998 9.9998 11.1998C10.6502 11.1998 11.1998 10.6502 11.1998 9.9998C11.1998 9.3494 10.6502 8.7998 9.9998 8.7998Z" fill="white"/>
<path d="M13.2 7.2H12.1656L11.0828 6.1172C11.0457 6.07998 11.0016 6.05047 10.9531 6.03035C10.9046 6.01024 10.8525 5.99992 10.8 6H9.2C9.14746 5.99992 9.09543 6.01024 9.04689 6.03035C8.99836 6.05047 8.95428 6.07998 8.9172 6.1172L7.8344 7.2H6.8C6.3588 7.2 6 7.5588 6 8V12.4C6 12.8412 6.3588 13.2 6.8 13.2H13.2C13.6412 13.2 14 12.8412 14 12.4V8C14 7.5588 13.6412 7.2 13.2 7.2ZM10 12C8.916 12 8 11.084 8 10C8 8.916 8.916 8 10 8C11.084 8 12 8.916 12 10C12 11.084 11.084 12 10 12Z" fill="white"/>
</svg>
