<svg width="17" height="21" viewBox="0 0 17 21" fill="none" xmlns="http://www.w3.org/2000/svg">
<path fill-rule="evenodd" clip-rule="evenodd" d="M8.5128 0.00179586C11.4809 0.00179586 13.898 2.41895 13.898 5.39008L13.8979 6.99264C15.7024 7.62063 17.0004 9.33845 17.0004 11.3545V15.7141C17.0004 18.2604 14.9299 20.3309 12.3836 20.3309H4.61679C2.07054 20.3309 0 18.2604 0 15.7141V11.3545C0 9.33883 1.29754 7.62128 3.10145 6.993L3.10215 5.39008C3.10825 3.92637 3.67442 2.57549 4.69597 1.56309C5.71854 0.549671 7.0684 -0.0368299 8.5128 0.00179586ZM12.3836 8.26241H4.61679C2.91116 8.26241 1.5247 9.64887 1.5247 11.3545V15.7141C1.5247 17.4198 2.91116 18.8062 4.61679 18.8062H12.3836C14.0882 18.8062 15.4757 17.4198 15.4757 15.7141V11.3545C15.4757 9.64887 14.0882 8.26241 12.3836 8.26241ZM8.5 11.643C8.92081 11.643 9.26234 11.9845 9.26234 12.4053V14.6629C9.26234 15.0837 8.92081 15.4252 8.5 15.4252C8.07918 15.4252 7.73765 15.0837 7.73765 14.6629V12.4053C7.73765 11.9845 8.07918 11.643 8.5 11.643ZM8.50975 1.5265H8.49349C7.46381 1.5265 6.49918 1.92292 5.77038 2.64562C5.03649 3.37138 4.63092 4.34007 4.62685 5.3728L4.62594 6.73714H12.3724L12.3733 5.39008C12.3733 3.25957 10.6403 1.5265 8.50975 1.5265Z" fill="#1F2C37"/>
</svg>
