<svg width="10" height="10" viewBox="0 0 10 10" fill="none" xmlns="http://www.w3.org/2000/svg">
<circle cx="5" cy="5" r="4.5" transform="rotate(180 5 5)" fill="#0094FF" stroke="white"/>
<path fill-rule="evenodd" clip-rule="evenodd" d="M8.06641 5.00726C8.06641 5.05616 8.04698 5.10305 8.0124 5.13763C7.97783 5.17221 7.93093 5.19163 7.88203 5.19163L3.53338 5.19163L4.69383 6.35172C4.72845 6.38634 4.7479 6.43329 4.7479 6.48225C4.7479 6.53122 4.72845 6.57817 4.69383 6.61279C4.65921 6.64741 4.61225 6.66686 4.56329 6.66686C4.51433 6.66686 4.46738 6.64741 4.43276 6.61279L2.95776 5.1378C2.94059 5.12067 2.92697 5.10032 2.91767 5.07792C2.90838 5.05552 2.90359 5.03151 2.90359 5.00726C2.90359 4.98301 2.90838 4.95899 2.91767 4.9366C2.92697 4.9142 2.94059 4.89385 2.95776 4.87672L4.43275 3.40173C4.46738 3.36711 4.51433 3.34766 4.56329 3.34766C4.61225 3.34766 4.65921 3.36711 4.69383 3.40173C4.72845 3.43635 4.7479 3.4833 4.7479 3.53226C4.7479 3.58122 4.72845 3.62818 4.69383 3.6628L3.53338 4.82289L7.88203 4.82288C7.93093 4.82288 7.97783 4.84231 8.0124 4.87689C8.04698 4.91146 8.06641 4.95836 8.06641 5.00726Z" fill="white"/>
</svg>
