<svg width="19" height="14" viewBox="0 0 19 14" fill="none" xmlns="http://www.w3.org/2000/svg">
<path d="M11.0652 1.65973C11.0652 0.743451 10.3418 0 9.44107 0C8.54694 0.00148977 7.81837 0.743451 7.81691 1.65973C7.81837 2.57452 8.54694 3.31797 9.44107 3.31871C10.3418 3.31797 11.0652 2.57452 11.0652 1.65973Z" fill="#1E357A"/>
<path d="M11.0652 11.5368C11.0652 10.6213 10.3418 9.87782 9.44107 9.87782C8.54694 9.87931 7.81837 10.6213 7.81691 11.5368C7.81837 12.4523 8.54694 13.195 9.44107 13.1965C10.3418 13.195 11.0652 12.4523 11.0652 11.5368Z" fill="#1E357A"/>
<path d="M3.24832 6.61362C3.24832 5.69734 2.52485 4.95389 1.62416 4.95389C0.730033 4.95538 0.00218791 5.69734 0 6.61362C0.00218791 7.52916 0.730033 8.27186 1.62416 8.27335C2.52485 8.27186 3.24832 7.52916 3.24832 6.61362Z" fill="#1E357A"/>
<path d="M19.0001 6.61364C19.0001 5.69736 18.2767 4.95392 17.376 4.95392C16.4818 4.95541 15.7533 5.69736 15.7518 6.61364C15.7533 7.52916 16.4818 8.27112 17.376 8.27335C18.2767 8.27112 19.0001 7.52916 19.0001 6.61364Z" fill="#1E357A"/>
<path d="M16.7835 3.66181V0.553159L9.47795 5.06678L9.43857 5.09062L2.10024 0.550179V3.65809L6.9239 6.61477L2.10024 9.56624V12.6764L9.43929 8.14116L16.7835 12.6764V9.56624L11.9561 6.61477L16.7835 3.66181Z" fill="#1E357A"/>
</svg>
