<svg width="258" height="15" viewBox="0 0 258 15" fill="none" xmlns="http://www.w3.org/2000/svg">
<path d="M5.69749 12.9901L5.69749 0L0.959173 0C0.460403 0 0 0.268231 0 0.95797C0 1.64771 0.460403 1.91594 0.959173 1.91594L3.77914 1.91594L3.77914 12.9901H0.959173C0.460403 12.9901 0 13.2583 0 13.948C0 14.6378 0.460403 14.906 0.959173 14.906H8.51745C9.01622 14.906 9.47663 14.6378 9.47663 13.948V9.11987C9.47663 8.56425 9.22724 8.1619 8.51745 8.1619C7.80767 8.1619 7.55828 8.56425 7.55828 9.11987V12.9901H5.69749Z" fill="white"/>
<path d="M15.7252 8.41097L21.1349 8.41097C21.768 8.41097 22.2092 8.31518 22.6888 7.87451C23.2259 7.37637 23.2835 6.85906 23.2835 6.16932V2.24165C23.2835 1.55191 23.2259 1.03461 22.6888 0.536463C22.2092 0.0957968 21.768 0 21.1349 0L14.766 0C14.2672 0 13.8068 0.268231 13.8068 0.95797C13.8068 1.64771 14.2672 1.91594 14.766 1.91594L21.3651 1.91594V6.49503H15.9746C14.5358 6.49503 13.8068 7.22309 13.8068 8.66004V14.906L22.3243 14.906C22.8231 14.906 23.2835 14.6378 23.2835 13.948C23.2835 13.2583 22.8231 12.9901 22.3243 12.9901L15.7252 12.9901V8.41097Z" fill="white"/>
<path d="M35.172 1.91594V5.0964C35.172 6.16932 34.7499 6.49503 34.2128 6.49503H30.4528C29.9541 6.49503 29.4937 6.76327 29.4937 7.453C29.4937 8.14274 29.9541 8.41097 30.4528 8.41097H34.2128C34.7499 8.41097 35.172 8.73668 35.172 9.80961V12.9901H28.5729C28.0741 12.9901 27.6137 13.2583 27.6137 13.948C27.6137 14.6378 28.0741 14.906 28.5729 14.906H35.172C36.2654 14.906 37.0903 14.0822 37.0903 12.9901V9.31146C37.0903 8.54509 36.9368 7.98947 36.3422 7.453C36.9368 6.91654 37.0903 6.36092 37.0903 5.59454V1.91594C37.0903 0.823854 36.2654 0 35.172 0L28.5729 0C28.0741 0 27.6137 0.268231 27.6137 0.95797C27.6137 1.64771 28.0741 1.91594 28.5729 1.91594L35.172 1.91594Z" fill="white"/>
<path d="M44.298 8.12358V0.95797C44.298 0.478985 44.0678 0 43.3389 0C42.6099 0 42.3797 0.478985 42.3797 0.95797V10.0395L48.0196 10.0395V13.948C48.0196 14.5611 48.2882 14.906 48.9788 14.906C49.6694 14.906 49.938 14.5611 49.938 13.948V10.0395C50.4367 10.0395 50.8971 9.77129 50.8971 9.08155C50.8971 8.39181 50.4367 8.12358 49.938 8.12358V2.58652C49.938 2.10753 49.7078 1.62855 48.9788 1.62855C48.2498 1.62855 48.0196 2.10753 48.0196 2.58652V8.12358L44.298 8.12358Z" fill="white"/>
<path d="M72.8517 1.91594L77.5517 1.91594C78.0504 1.91594 78.5108 1.64771 78.5108 0.95797C78.5108 0.268231 78.0504 0 77.5517 0L70.9334 0V8.41097H76.5925V12.9901H72.1611C71.8542 12.9901 71.413 12.7218 71.1444 12.6069L70.5689 12.3578C70.3579 12.262 70.1852 12.2045 69.955 12.2045C69.4562 12.2045 69.0342 12.6644 69.0342 13.1625C69.0342 13.8331 69.6097 14.0055 70.1277 14.2354L70.8566 14.5611C71.3362 14.7719 71.624 14.906 72.1227 14.906H76.3815C77.0721 14.906 77.5708 14.8294 78.0504 14.2546C78.4533 13.7756 78.5108 13.3541 78.5108 12.7602V8.66004C78.5108 7.98947 78.4533 7.52964 77.9162 7.0315C77.4557 6.59083 76.9953 6.49503 76.3815 6.49503H72.8517V1.91594Z" fill="white"/>
<path d="M84.7594 1.91594C85.3157 1.91594 85.7186 1.53275 85.7186 0.95797C85.7186 0.459826 85.3157 0 84.8169 0L83.6659 0C82.9945 0 82.841 0.517304 82.841 0.95797V13.699C82.841 14.5803 83.1864 14.906 84.088 14.906H91.0708C91.934 14.906 92.3177 14.5995 92.3177 13.699V9.40726C92.3177 8.52593 92.1258 8.12358 91.1667 8.12358H84.7594V1.91594ZM90.3993 10.0395V12.9901H84.7594V10.0395H90.3993Z" fill="white"/>
<path d="M104.206 1.91594V4.55994C104.206 5.40295 104.245 5.38379 103.611 5.93941L100.964 8.21938C100.485 8.64089 100.465 8.69836 100.465 9.33062V13.948C100.465 14.5611 100.734 14.906 101.425 14.906C102.115 14.906 102.384 14.5611 102.384 13.948V10.2311C102.384 9.56054 102.422 9.52222 102.921 9.08155L105.607 6.76326C106.144 6.30344 106.125 6.2268 106.125 5.55622V0L97.6071 0C96.9932 0 96.6479 0.536463 96.6479 0.95797V1.91594C96.6479 2.33745 96.9932 2.87391 97.6071 2.87391C98.2209 2.87391 98.5662 2.33745 98.5662 1.91594L104.206 1.91594Z" fill="white"/>
<path d="M114.291 6.49503V1.91594H116.095V6.49503H114.291ZM113.332 0C112.68 0 112.373 0.459826 112.373 0.95797V6.49503C111.778 6.49503 111.318 6.70579 110.973 7.0315C110.627 7.35721 110.455 7.83619 110.455 8.43013V12.9901C110.455 14.1588 111.184 14.906 112.373 14.906H118.013C119.202 14.906 119.931 14.1588 119.931 12.9901V8.43013C119.931 7.83619 119.759 7.35721 119.413 7.0315C119.068 6.70579 118.608 6.49503 118.013 6.49503V0.95797C118.013 0.459826 117.706 0 117.054 0L113.332 0ZM112.373 12.9901V8.41097H118.013V12.9901H112.373Z" fill="white"/>
<path d="M145.627 12.9901C145.07 12.9901 144.668 13.3733 144.668 13.948C144.668 14.4653 145.051 14.906 145.627 14.906H146.586C147.161 14.906 147.545 14.4653 147.545 13.948V0.95797C147.545 0.459826 147.123 0 146.586 0L139.028 0C138.49 0 138.068 0.459826 138.068 0.95797V5.86277C138.068 6.36092 138.49 6.82074 139.028 6.82074H145.627V12.9901ZM139.987 4.9048V1.91594L145.627 1.91594V4.9048H139.987Z" fill="white"/>
<path d="M153.794 0C152.739 0 151.875 0.862173 151.875 1.91594V12.9901C151.875 14.063 152.7 14.906 153.794 14.906H159.434C160.527 14.906 161.352 14.063 161.352 12.9901V1.91594C161.352 0.862173 160.489 0 159.434 0L153.794 0ZM153.794 12.9901V1.91594L159.434 1.91594V12.9901H153.794Z" fill="white"/>
<path d="M167.6 0C166.545 0 165.682 0.862173 165.682 1.91594V12.9901C165.682 14.063 166.507 14.906 167.6 14.906H173.24C174.334 14.906 175.159 14.063 175.159 12.9901V1.91594C175.159 0.862173 174.295 0 173.24 0L167.6 0ZM167.6 12.9901V1.91594L173.24 1.91594V12.9901H167.6Z" fill="white"/>
<path d="M181.407 0C180.352 0 179.489 0.862173 179.489 1.91594V12.9901C179.489 14.063 180.314 14.906 181.407 14.906H187.047C188.141 14.906 188.966 14.063 188.966 12.9901V1.91594C188.966 0.862173 188.102 0 187.047 0L181.407 0ZM181.407 12.9901V1.91594L187.047 1.91594V12.9901H181.407Z" fill="white"/>
<path d="M209.021 0C207.966 0 207.103 0.862173 207.103 1.91594V12.9901C207.103 14.063 207.928 14.906 209.021 14.906H214.661C215.754 14.906 216.579 14.063 216.579 12.9901V1.91594C216.579 0.862173 215.716 0 214.661 0L209.021 0ZM209.021 12.9901V1.91594L214.661 1.91594V12.9901H209.021Z" fill="white"/>
<path d="M222.828 0C221.773 0 220.909 0.862173 220.909 1.91594V12.9901C220.909 14.063 221.734 14.906 222.828 14.906H228.468C229.561 14.906 230.386 14.063 230.386 12.9901V1.91594C230.386 0.862173 229.523 0 228.468 0L222.828 0ZM222.828 12.9901V1.91594L228.468 1.91594V12.9901H222.828Z" fill="white"/>
<path d="M236.635 0C235.58 0 234.716 0.862173 234.716 1.91594V12.9901C234.716 14.063 235.541 14.906 236.635 14.906L242.275 14.906C243.368 14.906 244.193 14.063 244.193 12.9901V1.91594C244.193 0.862173 243.33 0 242.275 0L236.635 0ZM236.635 12.9901V1.91594L242.275 1.91594V12.9901L236.635 12.9901Z" fill="white"/>
<path d="M250.442 0C249.386 0 248.523 0.862173 248.523 1.91594V12.9901C248.523 14.063 249.348 14.906 250.442 14.906H256.081C257.175 14.906 258 14.063 258 12.9901V1.91594C258 0.862173 257.137 0 256.081 0L250.442 0ZM250.442 12.9901V1.91594L256.081 1.91594V12.9901H250.442Z" fill="white"/>
</svg>
