<svg width="66" height="66" viewBox="0 0 66 66" fill="none" xmlns="http://www.w3.org/2000/svg">
<mask id="mask0_0_2775" style="mask-type:alpha" maskUnits="userSpaceOnUse" x="0" y="0" width="66" height="66">
<mask id="mask1_0_2775" style="mask-type:alpha" maskUnits="userSpaceOnUse" x="0" y="0" width="66" height="66">
<path opacity="0.9" d="M46.0909 0.450351C55.5373 0.771487 63.3067 7.99635 64.3123 17.3945L65.1315 25.0514C65.7088 30.4471 65.7058 35.8893 65.1224 41.2844L64.3286 48.626C63.3134 58.015 55.5478 65.2281 46.1095 65.549L32.8436 66L19.7486 65.5548C10.2365 65.2315 2.43579 57.9109 1.50958 48.4385L0.722181 40.3858C0.241873 35.4736 0.241873 30.5264 0.722182 25.6142L1.50958 17.5615C2.43579 8.08906 10.2365 0.768543 19.7486 0.445173L32.8436 -1.44931e-06L46.0909 0.450351Z" fill="#132F38"/>
</mask>
<g mask="url(#mask1_0_2775)">
<g clip-path="url(#clip0_0_2775)">
<path d="M33.4995 76.0002C56.9716 76.0002 75.9995 56.9723 75.9995 33.5002C75.9995 10.0281 56.9716 -8.99976 33.4995 -8.99976C10.0274 -8.99976 -9.00049 10.0281 -9.00049 33.5002C-9.00049 56.9723 10.0274 76.0002 33.4995 76.0002Z" fill="#F0F0F0"/>
<path d="M75.9997 33.5001C75.9997 15.2266 64.4663 -0.351494 48.2822 -6.35645V73.3568C64.4663 67.3517 75.9997 51.7736 75.9997 33.5001Z" fill="#D80027"/>
<path d="M-9 33.5001C-9 51.7736 2.5336 67.3517 18.7175 73.3566V-6.35645C2.5336 -0.351493 -9 15.2266 -9 33.5001Z" fill="#0052B4"/>
</g>
</g>
</mask>
<g mask="url(#mask0_0_2775)">
<g clip-path="url(#clip1_0_2775)">
<path d="M-5 0H85V70H-5V0Z" fill="#000066"/>
<path fill-rule="evenodd" clip-rule="evenodd" d="M37.1596 57.2395L31.0143 57.7936L31.858 64.1228L27.6252 59.4999L23.3924 64.1228L24.2361 57.7936L18.0908 57.2395L23.3924 53.9874L19.9752 48.6645L25.7408 50.9249L27.6252 44.8436L29.5236 50.9249L35.2893 48.6645L31.8721 53.9874L37.1596 57.2395ZM63.4283 63.0728L61.9377 60.7686L64.4408 61.7457L65.2564 59.1061L66.0721 61.7457L68.5752 60.7686L67.0986 63.0728L69.4049 64.4874L66.733 64.7353L67.0986 67.4915L65.2705 65.4645L63.4143 67.4915L63.7799 64.7353L61.108 64.502L63.4283 63.0728ZM63.4143 21.9332L61.9377 19.6291L64.4408 20.6061L65.2564 17.9666L66.0721 20.6061L68.5752 19.6291L67.0986 21.9332L69.4049 23.3624L66.733 23.5957L67.0986 26.352L65.2705 24.3395L63.4143 26.3374L63.7799 23.5957L61.108 23.3624L63.4143 21.9332ZM48.5502 38.6457L47.0736 36.3416L49.5768 37.3186L50.3924 34.6791L51.2221 37.3186L53.7252 36.3416L52.2346 38.6457L54.5408 40.0603L51.8689 40.3082L52.2486 43.0645L50.3924 41.0374L48.5643 43.0645L48.9158 40.3082L46.2439 40.0749L48.5502 38.6457ZM76.6611 34.5332L75.1564 32.2291L77.6596 33.2061L78.4752 30.5666L79.3049 33.2061L81.808 32.2291L80.3314 34.5332L82.6236 35.9478L79.9518 36.1957L80.3174 38.9374L78.4893 36.9249L76.633 38.9374L76.9986 36.1957L74.3268 35.9478L76.6611 34.5332ZM71.2189 46.6666L69.7705 47.6145L70.1783 45.8791L68.8705 44.7416L70.5721 44.5957L71.2189 42.9624L71.8799 44.6103L73.5814 44.7416L72.2736 45.8791L72.6814 47.6145" fill="white"/>
<path d="M-5 0H40V35H-5V0Z" fill="#000066"/>
<path d="M0.273438 0L17.4297 13.1979L34.5156 0H40V4.52083L23.125 17.5729L40 30.5521V35H34.375L17.5 21.9479L0.695312 35H-5V30.625L11.8047 17.6458L-5 4.66667V0H0.273438Z" fill="white"/>
<path d="M24.8125 20.4896L40 32.0833V35L20.9453 20.4896H24.8125ZM11.875 21.9479L12.2969 24.5L-1.20312 35H-5L11.875 21.9479ZM40 0V0.21875L22.4922 13.9271L22.6328 10.7188L36.4844 0H40ZM-5 0L11.8047 12.8333H7.58594L-5 3.0625V0Z" fill="#C8102E"/>
<path d="M11.9453 0V35H23.1953V0H11.9453ZM-5 11.6667V23.3333H40V11.6667H-5Z" fill="white"/>
<path d="M-5 14.0729V21.0729H40V14.0729H-5ZM14.1953 0V35H20.9453V0H14.1953Z" fill="#C8102E"/>
</g>
</g>
<defs>
<clipPath id="clip0_0_2775">
<rect width="85" height="85" fill="white" transform="translate(-9 -9)"/>
</clipPath>
<clipPath id="clip1_0_2775">
<rect width="90" height="70" fill="white" transform="translate(-5)"/>
</clipPath>
</defs>
</svg>
