<svg width="13" height="11" viewBox="0 0 13 11" fill="none" xmlns="http://www.w3.org/2000/svg">
<path d="M9.39464 6.29373V4.46371H5.28772V2.09222H9.39464V0.269057L12.7247 3.28071L9.39464 6.29373Z" fill="#2B6173"/>
<path d="M9.66978 6.29357C9.66978 5.76033 9.66978 5.22709 9.66978 4.69522C9.66978 4.61982 9.66978 4.54443 9.66978 4.46903C9.66978 4.32099 9.5417 4.19487 9.39134 4.19487C8.92914 4.19487 8.46554 4.19487 8.00334 4.19487C7.26688 4.19487 6.53042 4.19487 5.79257 4.19487C5.62412 4.19487 5.45705 4.19487 5.2886 4.19487C5.38188 4.28672 5.47376 4.37719 5.56704 4.46903C5.56704 4.20173 5.56704 3.93305 5.56704 3.66574C5.56704 3.2408 5.56704 2.81585 5.56704 2.3909C5.56704 2.2922 5.56704 2.1935 5.56704 2.09344C5.47376 2.18528 5.38188 2.27575 5.2886 2.3676C5.7508 2.3676 6.2144 2.3676 6.6766 2.3676C7.41306 2.3676 8.14952 2.3676 8.88737 2.3676C9.05583 2.3676 9.22289 2.3676 9.39134 2.3676C9.5417 2.3676 9.66978 2.24148 9.66978 2.09344C9.66978 1.56019 9.66978 1.02695 9.66978 0.495082C9.66978 0.419688 9.66978 0.344294 9.66978 0.2689C9.51107 0.333327 9.35236 0.397755 9.19504 0.462183C9.57232 0.803512 9.9496 1.14484 10.3255 1.4848C10.9213 2.02353 11.5186 2.56362 12.1144 3.10235C12.2509 3.22572 12.3873 3.34909 12.5251 3.47383C12.5251 3.34498 12.5251 3.21475 12.5251 3.0859C12.1478 3.42723 11.7706 3.76855 11.3947 4.10851C10.7988 4.64724 10.2016 5.18733 9.60574 5.72606C9.4693 5.84943 9.33287 5.9728 9.19504 6.09755C9.08785 6.19487 9.08785 6.38816 9.19504 6.48548C9.31059 6.58966 9.47348 6.58966 9.58903 6.48548C9.96631 6.14415 10.3436 5.80282 10.7195 5.46287C11.3153 4.92414 11.9126 4.38404 12.5084 3.84532C12.6449 3.72195 12.7813 3.59858 12.9191 3.47383C13.0263 3.37651 13.0263 3.18322 12.9191 3.0859C12.5418 2.74457 12.1646 2.40324 11.7887 2.06328C11.1928 1.52455 10.5956 0.984458 9.99972 0.445733C9.86329 0.322361 9.72686 0.198989 9.58903 0.074246C9.41501 -0.0833961 9.1143 0.0235262 9.1143 0.267529C9.1143 0.80077 9.1143 1.33401 9.1143 1.86588C9.1143 1.94128 9.1143 2.01667 9.1143 2.09207C9.20757 2.00022 9.29946 1.90975 9.39273 1.8179C8.93053 1.8179 8.46694 1.8179 8.00473 1.8179C7.26827 1.8179 6.53181 1.8179 5.79396 1.8179C5.62551 1.8179 5.45845 1.8179 5.28999 1.8179C5.13964 1.8179 5.01156 1.94402 5.01156 2.09207C5.01156 2.35937 5.01156 2.62805 5.01156 2.89535C5.01156 3.3203 5.01156 3.74525 5.01156 4.1702C5.01156 4.2689 5.01156 4.36759 5.01156 4.46766C5.01156 4.61571 5.13964 4.74182 5.28999 4.74182C5.7522 4.74182 6.21579 4.74182 6.67799 4.74182C7.41445 4.74182 8.15091 4.74182 8.88877 4.74182C9.05722 4.74182 9.22428 4.74182 9.39273 4.74182C9.29946 4.64998 9.20757 4.55951 9.1143 4.46766C9.1143 5.0009 9.1143 5.53415 9.1143 6.06602C9.1143 6.14141 9.1143 6.21681 9.1143 6.2922C9.1143 6.43613 9.24238 6.57321 9.39273 6.56636C9.5417 6.56088 9.66978 6.4471 9.66978 6.29357Z" fill="#2B6173"/>
<path d="M3.7414 10.1225V8.3034H7.84832V5.91821H3.7414V4.09778L0.272102 7.1108L3.7414 10.1225Z" fill="#2B6173"/>
<path d="M4.02495 10.1236C4.02495 9.59036 4.02495 9.05711 4.02495 8.52524C4.02495 8.44985 4.02495 8.37445 4.02495 8.29906C3.93168 8.3909 3.83979 8.48138 3.74652 8.57322C4.20872 8.57322 4.67231 8.57322 5.13452 8.57322C5.87098 8.57322 6.60744 8.57322 7.34529 8.57322C7.51374 8.57322 7.6808 8.57322 7.84926 8.57322C7.99961 8.57322 8.12769 8.44711 8.12769 8.29906C8.12769 8.03175 8.12769 7.76308 8.12769 7.49577C8.12769 7.07082 8.12769 6.64588 8.12769 6.22093C8.12769 6.12223 8.12769 6.02353 8.12769 5.92346C8.12769 5.77542 7.99961 5.6493 7.84926 5.6493C7.38706 5.6493 6.92346 5.6493 6.46126 5.6493C5.7248 5.6493 4.98834 5.6493 4.25049 5.6493C4.08203 5.6493 3.91497 5.6493 3.74652 5.6493C3.83979 5.74115 3.93168 5.83162 4.02495 5.92346C4.02495 5.39022 4.02495 4.85698 4.02495 4.32511C4.02495 4.24972 4.02495 4.17432 4.02495 4.09893C4.02495 3.98926 3.95534 3.89057 3.85371 3.84807C3.74652 3.8042 3.63514 3.83025 3.55022 3.90427C3.15902 4.24423 2.76643 4.58419 2.37523 4.92415C1.75153 5.46562 1.12923 6.00708 0.505534 6.54718C0.363533 6.67055 0.222923 6.79255 0.080921 6.91592C-0.0276686 7.00914 -0.0262765 7.21065 0.080921 7.30386C0.472122 7.64382 0.864715 7.98378 1.25592 8.32374C1.87961 8.8652 2.50191 9.40667 3.12561 9.94676C3.26761 10.0701 3.40822 10.1921 3.55022 10.3155C3.65881 10.4101 3.8384 10.4293 3.94421 10.3155C4.04166 10.2113 4.06115 10.029 3.94421 9.92757C3.55301 9.58761 3.16041 9.24766 2.76921 8.9077C2.14552 8.36623 1.52321 7.82476 0.89952 7.28467C0.757518 7.1613 0.616908 7.0393 0.474907 6.91592C0.474907 7.04478 0.474907 7.175 0.474907 7.30386C0.866108 6.9639 1.2587 6.62394 1.6499 6.28398C2.2736 5.74252 2.8959 5.20105 3.51959 4.66096C3.66159 4.53758 3.8022 4.41558 3.94421 4.29221C3.7855 4.22778 3.62679 4.16335 3.46947 4.09893C3.46947 4.63217 3.46947 5.16541 3.46947 5.69728C3.46947 5.77267 3.46947 5.84807 3.46947 5.92346C3.46947 6.07151 3.59755 6.19762 3.74791 6.19762C4.21011 6.19762 4.67371 6.19762 5.13591 6.19762C5.87237 6.19762 6.60883 6.19762 7.34668 6.19762C7.51514 6.19762 7.6822 6.19762 7.85065 6.19762C7.75737 6.10578 7.66549 6.01531 7.57221 5.92346C7.57221 6.19077 7.57221 6.45945 7.57221 6.72675C7.57221 7.1517 7.57221 7.57665 7.57221 8.0016C7.57221 8.1003 7.57221 8.19899 7.57221 8.29906C7.66549 8.20722 7.75737 8.11674 7.85065 8.0249C7.38845 8.0249 6.92485 8.0249 6.46265 8.0249C5.72619 8.0249 4.98973 8.0249 4.25188 8.0249C4.08342 8.0249 3.91636 8.0249 3.74791 8.0249C3.59755 8.0249 3.46947 8.15101 3.46947 8.29906C3.46947 8.8323 3.46947 9.36554 3.46947 9.89741C3.46947 9.97281 3.46947 10.0482 3.46947 10.1236C3.46947 10.2675 3.59755 10.4046 3.74791 10.3978C3.89687 10.3909 4.02495 10.2771 4.02495 10.1236Z" fill="#2B6173"/>
</svg>
