<svg width="12" height="12" viewBox="0 0 12 12" fill="none" xmlns="http://www.w3.org/2000/svg">
<circle cx="5.99992" cy="5.99992" r="5.44852" transform="rotate(180 5.99992 5.99992)" fill="#0094FF" stroke="white"/>
<path fill-rule="evenodd" clip-rule="evenodd" d="M9.79419 6.00933C9.79419 6.06982 9.77016 6.12784 9.72738 6.17062C9.68461 6.21339 9.62659 6.23742 9.56609 6.23742L4.18625 6.23742L5.62188 7.6726C5.66471 7.71543 5.68877 7.77352 5.68877 7.83409C5.68877 7.89466 5.66471 7.95275 5.62188 7.99558C5.57905 8.03841 5.52096 8.06247 5.46039 8.06247C5.39982 8.06247 5.34172 8.03841 5.29889 7.99558L3.47414 6.17082C3.45289 6.14963 3.43604 6.12446 3.42454 6.09675C3.41304 6.06904 3.40712 6.03933 3.40712 6.00933C3.40712 5.97933 3.41304 5.94962 3.42454 5.92191C3.43604 5.8942 3.45289 5.86903 3.47414 5.84784L5.29889 4.02308C5.34172 3.98025 5.39981 3.95619 5.46039 3.95619C5.52096 3.95619 5.57905 3.98025 5.62188 4.02308C5.66471 4.06591 5.68877 4.124 5.68877 4.18457C5.68877 4.24514 5.66471 4.30323 5.62188 4.34606L4.18625 5.78123L9.56609 5.78123C9.62659 5.78123 9.68461 5.80526 9.72738 5.84804C9.77016 5.89082 9.79419 5.94883 9.79419 6.00933Z" fill="white"/>
</svg>
