<svg width="66" height="66" viewBox="0 0 66 66" fill="none" xmlns="http://www.w3.org/2000/svg">
<mask id="mask0_0_3403" style="mask-type:alpha" maskUnits="userSpaceOnUse" x="0" y="0" width="66" height="66">
<path opacity="0.9" d="M46.0909 0.450351C55.5373 0.771487 63.3067 7.99635 64.3123 17.3945L65.1315 25.0514C65.7088 30.4471 65.7058 35.8893 65.1224 41.2844L64.3286 48.626C63.3134 58.015 55.5478 65.2281 46.1095 65.549L32.8436 66L19.7486 65.5548C10.2365 65.2315 2.43579 57.9109 1.50958 48.4385L0.722181 40.3858C0.241873 35.4736 0.241873 30.5264 0.722182 25.6142L1.50958 17.5615C2.43579 8.08906 10.2365 0.768543 19.7486 0.445173L32.8436 -1.44931e-06L46.0909 0.450351Z" fill="#132F38"/>
</mask>
<g mask="url(#mask0_0_3403)">
<g clip-path="url(#clip0_0_3403)">
<path d="M34.5003 -7C56.8677 -7 75.0003 11.1326 75.0003 33.5C75.0003 55.8674 56.8677 74 34.5003 74C34.5003 72.2392 29.2178 33.5 29.2178 33.5L34.5003 -7Z" fill="#F0F0F0"/>
<path d="M34.501 74C12.1336 74 -5.99902 55.8674 -5.99902 33.5C-5.99902 11.1326 12.1336 -7 34.501 -7" fill="#496E2D"/>
<path d="M43.2025 25.7314L39.8796 30.3106L34.498 28.5653L37.8263 33.1406L34.5037 37.7198L39.8833 35.9683L43.2116 40.5434L43.2081 34.8859L48.5878 33.1342L43.2063 31.3893L43.2025 25.7314Z" fill="#D80027"/>
<path d="M37.8601 44.9458C31.539 44.9458 26.4145 39.8213 26.4145 33.5001C26.4145 27.179 31.539 22.0544 37.8601 22.0544C39.831 22.0544 41.6856 22.5528 43.3047 23.4302C40.7646 20.9462 37.2911 19.4131 33.458 19.4131C25.6779 19.4131 19.3711 25.72 19.3711 33.5C19.3711 41.2799 25.678 47.5868 33.458 47.5868C37.2912 47.5868 40.7647 46.0537 43.3047 43.5698C41.6856 44.4475 39.831 44.9458 37.8601 44.9458Z" fill="#D80027"/>
</g>
</g>
<defs>
<clipPath id="clip0_0_3403">
<rect width="81" height="81" fill="white" transform="translate(-6 -7)"/>
</clipPath>
</defs>
</svg>
