<svg width="66" height="66" viewBox="0 0 66 66" fill="none" xmlns="http://www.w3.org/2000/svg">
<mask id="mask0_0_3358" style="mask-type:alpha" maskUnits="userSpaceOnUse" x="0" y="0" width="66" height="66">
<path opacity="0.9" d="M46.0909 0.450351C55.5373 0.771487 63.3067 7.99635 64.3123 17.3945L65.1315 25.0514C65.7088 30.4471 65.7058 35.8893 65.1224 41.2844L64.3286 48.626C63.3134 58.015 55.5478 65.2281 46.1095 65.549L32.8436 66L19.7486 65.5548C10.2365 65.2315 2.43579 57.9109 1.50958 48.4385L0.722181 40.3858C0.241873 35.4736 0.241873 30.5264 0.722182 25.6142L1.50958 17.5615C2.43579 8.08906 10.2365 0.768543 19.7486 0.445173L32.8436 -1.44931e-06L46.0909 0.450351Z" fill="#132F38"/>
</mask>
<g mask="url(#mask0_0_3358)">
<g clip-path="url(#clip0_0_3358)">
<path d="M37.5 74C60.4198 74 79 55.4198 79 32.5C79 9.58018 60.4198 -9 37.5 -9C14.5802 -9 -4 9.58018 -4 32.5C-4 55.4198 14.5802 74 37.5 74Z" fill="#D80027"/>
<path d="M18.7115 16.2568L22.2941 27.2803H33.885L24.515 34.1051L28.0977 45.1285L18.7115 38.3199L9.32539 45.1285L12.9242 34.1051L3.53809 27.2803H15.1289L18.7115 16.2568Z" fill="#FFDA44"/>
<path d="M45.2 55.2765L42.4603 51.9046L38.4076 53.4771L40.7582 49.8296L38.0186 46.4415L42.2172 47.5601L44.584 43.9126L44.8109 48.2571L49.0258 49.3757L44.9568 50.9319L45.2 55.2765Z" fill="#FFDA44"/>
<path d="M50.6469 45.3878L51.9437 41.2378L48.3936 38.7251L52.7381 38.6603L54.0187 34.5103L55.4291 38.6278L59.7736 38.5792L56.2883 41.173L57.6824 45.2905L54.1322 42.7778L50.6469 45.3878Z" fill="#FFDA44"/>
<path d="M57.9908 21.4602L56.0779 25.367L59.1904 28.3984L54.8945 27.7824L52.9816 31.673L52.2359 27.3934L47.9238 26.7773L51.782 24.751L51.0363 20.4551L54.1488 23.4865L57.9908 21.4602Z" fill="#FFDA44"/>
<path d="M45.3133 9.62646L44.9891 13.9548L49.0256 15.5921L44.7945 16.6296L44.4865 20.9741L42.2008 17.278L37.9697 18.3155L40.7742 14.9923L38.4723 11.3124L42.5088 12.9497L45.3133 9.62646Z" fill="#FFDA44"/>
</g>
</g>
<defs>
<clipPath id="clip0_0_3358">
<rect width="83" height="83" fill="white" transform="translate(-4 -9)"/>
</clipPath>
</defs>
</svg>
