<svg width="20" height="21" viewBox="0 0 20 21" fill="none" xmlns="http://www.w3.org/2000/svg">
<path d="M10 0C15.523 0 20 4.477 20 10C20 15.523 15.523 20 10 20C8.38224 20.0021 6.78829 19.6102 5.35601 18.858L1.06601 19.975C0.922665 20.0123 0.772053 20.0116 0.6291 19.9728C0.486147 19.934 0.355816 19.8585 0.251024 19.7538C0.146232 19.6491 0.0706184 19.5188 0.0316757 19.3759C-0.00726696 19.233 -0.00818607 19.0824 0.0290095 18.939L1.14501 14.65C0.390809 13.2162 -0.00221966 11.6201 9.42907e-06 10C9.42907e-06 4.477 4.47701 0 10 0ZM11.252 11H6.75001L6.64801 11.007C6.4685 11.0317 6.304 11.1206 6.18492 11.2571C6.06584 11.3937 6.00024 11.5688 6.00024 11.75C6.00024 11.9312 6.06584 12.1063 6.18492 12.2429C6.304 12.3794 6.4685 12.4683 6.64801 12.493L6.75001 12.5H11.252L11.353 12.493C11.5325 12.4683 11.697 12.3794 11.8161 12.2429C11.9352 12.1063 12.0008 11.9312 12.0008 11.75C12.0008 11.5688 11.9352 11.3937 11.8161 11.2571C11.697 11.1206 11.5325 11.0317 11.353 11.007L11.252 11ZM13.25 7.5H6.75001L6.64801 7.507C6.4685 7.5317 6.304 7.62055 6.18492 7.75714C6.06584 7.89372 6.00024 8.0688 6.00024 8.25C6.00024 8.4312 6.06584 8.60628 6.18492 8.74286C6.304 8.87945 6.4685 8.9683 6.64801 8.993L6.75001 9H13.25L13.352 8.993C13.5315 8.9683 13.696 8.87945 13.8151 8.74286C13.9342 8.60628 13.9998 8.4312 13.9998 8.25C13.9998 8.0688 13.9342 7.89372 13.8151 7.75714C13.696 7.62055 13.5315 7.5317 13.352 7.507L13.25 7.5Z" fill="white"/>
</svg>
