<svg width="12" height="18" viewBox="0 0 12 18" fill="none" xmlns="http://www.w3.org/2000/svg">
<path d="M6.00395 11.6809C7.67264 11.6809 8.79628 10.4314 8.79628 8.64535V3.03551C8.79628 1.24104 7.67264 0 6.00395 0C4.32687 0 3.20322 1.24104 3.20322 3.03551V8.64535C3.20322 10.4314 4.32687 11.6809 6.00395 11.6809ZM0 8.77951C0 12.0666 2.17182 14.3726 5.36666 14.6409V16.5947H2.25567C1.90349 16.5947 1.61838 16.8798 1.61838 17.232C1.61838 17.5842 1.90349 17.8609 2.25567 17.8609H9.74383C10.096 17.8609 10.3811 17.5842 10.3811 17.232C10.3811 16.8798 10.096 16.5947 9.74383 16.5947H6.63285V14.6409C9.83607 14.3726 11.9995 12.0666 11.9995 8.77951V7.07728C11.9995 6.72509 11.7228 6.44837 11.3706 6.44837C11.0184 6.44837 10.7333 6.72509 10.7333 7.07728V8.7292C10.7333 11.5886 8.87175 13.4837 6.00395 13.4837C3.12775 13.4837 1.2662 11.5886 1.2662 8.7292V7.07728C1.2662 6.72509 0.989477 6.44837 0.628905 6.44837C0.276718 6.44837 0 6.72509 0 7.07728V8.77951Z" fill="black" fill-opacity="0.6"/>
</svg>
