<svg width="20" height="20" viewBox="0 0 20 20" fill="none" xmlns="http://www.w3.org/2000/svg">
<path d="M17 4.12602C18.7252 4.57006 20 6.13616 20 8V16C20 18.2091 18.2091 20 16 20H4C1.79086 20 0 18.2091 0 16V8C0 5.79086 1.79086 4 4 4H11V3C11 1.34315 12.3431 0 14 0C15.6569 0 17 1.34315 17 3V4.12602ZM17 6.26756V13.4142L14.7778 15.6364C14.3482 16.066 13.6518 16.066 13.2222 15.6364L11 13.4142V6H4C2.89543 6 2 6.89543 2 8V16C2 17.1046 2.89543 18 4 18H16C17.1046 18 18 17.1046 18 16V8C18 7.25972 17.5978 6.61337 17 6.26756ZM15 3C15 2.44772 14.5523 2 14 2C13.4477 2 13 2.44772 13 3V12.5858L14 13.5858L15 12.5858V3ZM9 14C9.55229 14 10 14.4477 10 15C10 15.5523 9.55229 16 9 16H5C4.44772 16 4 15.5523 4 15C4 14.4477 4.44772 14 5 14H9ZM7 11C7.55228 11 8 11.4477 8 12C8 12.5523 7.55228 13 7 13H5C4.44772 13 4 12.5523 4 12C4 11.4477 4.44772 11 5 11H7Z" fill="#004852"/>
</svg>
