<svg width="66" height="66" viewBox="0 0 66 66" fill="none" xmlns="http://www.w3.org/2000/svg">
<mask id="mask0_0_2821" style="mask-type:alpha" maskUnits="userSpaceOnUse" x="0" y="0" width="66" height="66">
<path d="M46.0909 0.450351C55.5373 0.771487 63.3067 7.99635 64.3123 17.3945L65.1315 25.0514C65.7088 30.4471 65.7058 35.8893 65.1224 41.2844L64.3286 48.626C63.3134 58.015 55.5478 65.2281 46.1095 65.549L32.8436 66L19.7486 65.5548C10.2365 65.2315 2.43579 57.9109 1.50958 48.4385L0.722181 40.3858C0.241873 35.4736 0.241873 30.5264 0.722182 25.6142L1.50958 17.5615C2.43579 8.08906 10.2365 0.768543 19.7486 0.445173L32.8436 -1.44931e-06L46.0909 0.450351Z" fill="#132F38"/>
</mask>
<g mask="url(#mask0_0_2821)">
<g clip-path="url(#clip0_0_2821)">
<path d="M-12.333 0H78.3337V68H-12.333V0Z" fill="#003399"/>
<path d="M32.9986 30.9668L31.9912 34.3248L33.6702 34.6606L32.9986 30.9668Z" fill="#FFCC00"/>
<path d="M32.9985 30.9668L34.0059 34.3248L32.3268 34.6606L32.9985 30.9668Z" fill="#FFCC00"/>
<path d="M36.1931 33.2872L32.6882 33.3668L32.8876 35.0674L36.1931 33.2872Z" fill="#FFCC00"/>
<path d="M36.1926 33.287L33.3102 35.2828L32.472 33.7897L36.1926 33.287Z" fill="#FFCC00"/>
<path d="M34.9731 37.0423L33.8143 33.7335L32.2586 34.4487L34.9731 37.0423Z" fill="#FFCC00"/>
<path d="M34.9732 37.0421L32.1844 34.9176L33.3454 33.659L34.9732 37.0421Z" fill="#FFCC00"/>
<path d="M29.8103 33.2872L33.3153 33.3668L33.1158 35.0674L29.8103 33.2872Z" fill="#FFCC00"/>
<path d="M29.8108 33.287L32.6932 35.2828L33.5314 33.7897L29.8108 33.287Z" fill="#FFCC00"/>
<path d="M31.0294 37.0423L32.1882 33.7335L33.7439 34.4487L31.0294 37.0423Z" fill="#FFCC00"/>
<path d="M31.0292 37.0421L33.818 34.9176L32.6571 33.659L31.0292 37.0421Z" fill="#FFCC00"/>
<path d="M32.9986 30.9668L31.9912 34.3248L33.6702 34.6606L32.9986 30.9668Z" fill="#FFCC00"/>
<path d="M32.9985 30.9668L34.0059 34.3248L32.3268 34.6606L32.9985 30.9668Z" fill="#FFCC00"/>
<path d="M36.1931 33.2872L32.6882 33.3668L32.8876 35.0674L36.1931 33.2872Z" fill="#FFCC00"/>
<path d="M36.1926 33.287L33.3102 35.2828L32.472 33.7897L36.1926 33.287Z" fill="#FFCC00"/>
<path d="M34.9731 37.0423L33.8143 33.7335L32.2586 34.4487L34.9731 37.0423Z" fill="#FFCC00"/>
<path d="M34.9732 37.0421L32.1844 34.9176L33.3454 33.659L34.9732 37.0421Z" fill="#FFCC00"/>
<path d="M29.8103 33.2872L33.3153 33.3668L33.1158 35.0674L29.8103 33.2872Z" fill="#FFCC00"/>
<path d="M29.8108 33.287L32.6932 35.2828L33.5314 33.7897L29.8108 33.287Z" fill="#FFCC00"/>
<path d="M31.0294 37.0423L32.1882 33.7335L33.7439 34.4487L31.0294 37.0423Z" fill="#FFCC00"/>
<path d="M31.0292 37.0421L33.818 34.9176L32.6571 33.659L31.0292 37.0421Z" fill="#FFCC00"/>
<path d="M32.9986 30.9663L31.9912 34.3243L33.6702 34.6601L32.9986 30.9663Z" fill="#FFCC00"/>
<path d="M32.9985 30.9663L34.0059 34.3243L32.3268 34.6601L32.9985 30.9663Z" fill="#FFCC00"/>
<path d="M36.1931 33.2867L32.6882 33.3663L32.8876 35.0669L36.1931 33.2867Z" fill="#FFCC00"/>
<path d="M36.1926 33.2865L33.3102 35.2823L32.472 33.7892L36.1926 33.2865Z" fill="#FFCC00"/>
<path d="M34.9731 37.0418L33.8143 33.733L32.2586 34.4482L34.9731 37.0418Z" fill="#FFCC00"/>
<path d="M34.9732 37.0416L32.1844 34.9171L33.3454 33.6585L34.9732 37.0416Z" fill="#FFCC00"/>
<path d="M29.8103 33.2867L33.3153 33.3663L33.1158 35.0669L29.8103 33.2867Z" fill="#FFCC00"/>
<path d="M29.8108 33.2865L32.6932 35.2823L33.5314 33.7892L29.8108 33.2865Z" fill="#FFCC00"/>
<path d="M31.0294 37.0418L32.1882 33.733L33.7439 34.4482L31.0294 37.0418Z" fill="#FFCC00"/>
<path d="M31.0292 37.0416L33.818 34.9171L32.6571 33.6585L31.0292 37.0416Z" fill="#FFCC00"/>
<path d="M21.1996 19.746L23.9884 17.6214L22.8275 16.3629L21.1996 19.746Z" fill="#FFCC00"/>
<path d="M21.1998 19.7459L22.3586 16.4371L23.9143 17.1523L21.1998 19.7459Z" fill="#FFCC00"/>
<path d="M19.9783 15.9897L22.8607 17.9854L23.6989 16.4924L19.9783 15.9897Z" fill="#FFCC00"/>
<path d="M19.9778 15.9898L23.4827 16.0694L23.2833 17.77L19.9778 15.9898Z" fill="#FFCC00"/>
<path d="M23.1734 13.6685L22.166 17.0265L23.845 17.3623L23.1734 13.6685Z" fill="#FFCC00"/>
<path d="M23.1733 13.6685L24.1807 17.0265L22.5017 17.3623L23.1733 13.6685Z" fill="#FFCC00"/>
<path d="M25.1461 19.745L22.3573 17.6205L23.5182 16.3619L25.1461 19.745Z" fill="#FFCC00"/>
<path d="M25.1459 19.745L23.9871 16.4361L22.4314 17.1514L25.1459 19.745Z" fill="#FFCC00"/>
<path d="M26.3664 15.9911L23.4841 17.9869L22.6459 16.4938L26.3664 15.9911Z" fill="#FFCC00"/>
<path d="M26.366 15.9913L22.861 16.0709L23.0605 17.7715L26.366 15.9913Z" fill="#FFCC00"/>
<path d="M17.6772 27.2147L16.5184 23.9059L14.9627 24.6211L17.6772 27.2147Z" fill="#FFCC00"/>
<path d="M17.6773 27.2145L14.8885 25.0899L16.0495 23.8314L17.6773 27.2145Z" fill="#FFCC00"/>
<path d="M13.7299 27.2143L16.5187 25.0897L15.3577 23.8311L13.7299 27.2143Z" fill="#FFCC00"/>
<path d="M13.73 27.2142L14.8888 23.9054L16.4446 24.6206L13.73 27.2142Z" fill="#FFCC00"/>
<path d="M12.5095 23.4604L15.3919 25.4561L16.2301 23.9631L12.5095 23.4604Z" fill="#FFCC00"/>
<path d="M12.51 23.4605L16.015 23.5401L15.8155 25.2407L12.51 23.4605Z" fill="#FFCC00"/>
<path d="M18.8977 23.4608L16.0153 25.4566L15.1771 23.9636L18.8977 23.4608Z" fill="#FFCC00"/>
<path d="M18.8972 23.461L15.3923 23.5406L15.5917 25.2412L18.8972 23.461Z" fill="#FFCC00"/>
<path d="M15.7045 21.1392L16.7119 24.4972L15.0329 24.833L15.7045 21.1392Z" fill="#FFCC00"/>
<path d="M15.7047 21.1392L14.6973 24.4972L16.3763 24.833L15.7047 21.1392Z" fill="#FFCC00"/>
<path d="M18.8982 43.6568L15.3932 43.7364L15.5927 45.437L18.8982 43.6568Z" fill="#FFCC00"/>
<path d="M18.8977 43.6566L16.0153 45.6524L15.1771 44.1594L18.8977 43.6566Z" fill="#FFCC00"/>
<path d="M17.6835 47.4117L16.5247 44.1029L14.969 44.8181L17.6835 47.4117Z" fill="#FFCC00"/>
<path d="M17.6837 47.4115L14.8949 45.287L16.0558 44.0284L17.6837 47.4115Z" fill="#FFCC00"/>
<path d="M13.7353 47.4113L16.5241 45.2867L15.3631 44.0282L13.7353 47.4113Z" fill="#FFCC00"/>
<path d="M13.7354 47.4112L14.8942 44.1024L16.4499 44.8176L13.7354 47.4112Z" fill="#FFCC00"/>
<path d="M15.7089 41.335L16.7163 44.693L15.0373 45.0288L15.7089 41.335Z" fill="#FFCC00"/>
<path d="M15.7091 41.335L14.7017 44.693L16.3807 45.0288L15.7091 41.335Z" fill="#FFCC00"/>
<path d="M12.5144 43.6554L16.0194 43.735L15.8199 45.4356L12.5144 43.6554Z" fill="#FFCC00"/>
<path d="M12.5149 43.6552L15.3973 45.651L16.2355 44.1579L12.5149 43.6552Z" fill="#FFCC00"/>
<path d="M26.1863 50.4166L22.6813 50.4962L22.8808 52.1968L26.1863 50.4166Z" fill="#FFCC00"/>
<path d="M26.1858 50.4164L23.3034 52.4122L22.4652 50.9191L26.1858 50.4164Z" fill="#FFCC00"/>
<path d="M24.9672 54.1708L23.8084 50.8619L22.2527 51.5771L24.9672 54.1708Z" fill="#FFCC00"/>
<path d="M24.9674 54.1706L22.1785 52.046L23.3395 50.7874L24.9674 54.1706Z" fill="#FFCC00"/>
<path d="M21.02 54.1713L23.8088 52.0467L22.6478 50.7882L21.02 54.1713Z" fill="#FFCC00"/>
<path d="M21.0201 54.1712L22.1789 50.8624L23.7346 51.5776L21.0201 54.1712Z" fill="#FFCC00"/>
<path d="M22.997 48.0947L24.0044 51.4528L22.3254 51.7886L22.997 48.0947Z" fill="#FFCC00"/>
<path d="M22.9972 48.0947L21.9897 51.4528L23.6688 51.7886L22.9972 48.0947Z" fill="#FFCC00"/>
<path d="M19.8025 50.4151L23.3074 50.4947L23.108 52.1953L19.8025 50.4151Z" fill="#FFCC00"/>
<path d="M19.803 50.4149L22.6854 52.4107L23.5236 50.9177L19.803 50.4149Z" fill="#FFCC00"/>
<path d="M33.0004 30.9663L34.0078 34.3243L32.3288 34.6601L33.0004 30.9663Z" fill="#FFCC00"/>
<path d="M33.0006 30.9663L31.9932 34.3243L33.6722 34.6601L33.0006 30.9663Z" fill="#FFCC00"/>
<path d="M29.8078 33.2867L33.3128 33.3663L33.1133 35.0669L29.8078 33.2867Z" fill="#FFCC00"/>
<path d="M29.8084 33.2865L32.6907 35.2823L33.529 33.7892L29.8084 33.2865Z" fill="#FFCC00"/>
<path d="M31.0269 37.0418L32.1857 33.733L33.7414 34.4482L31.0269 37.0418Z" fill="#FFCC00"/>
<path d="M31.0268 37.0416L33.8156 34.9171L32.6546 33.6585L31.0268 37.0416Z" fill="#FFCC00"/>
<path d="M36.1951 33.2867L32.6901 33.3663L32.8896 35.0669L36.1951 33.2867Z" fill="#FFCC00"/>
<path d="M36.1946 33.2865L33.3122 35.2823L32.474 33.7892L36.1946 33.2865Z" fill="#FFCC00"/>
<path d="M34.975 37.0418L33.8162 33.733L32.2605 34.4482L34.975 37.0418Z" fill="#FFCC00"/>
<path d="M34.9752 37.0416L32.1864 34.9171L33.3473 33.6585L34.9752 37.0416Z" fill="#FFCC00"/>
<path d="M44.8013 19.7458L42.0125 17.6212L43.1735 16.3626L44.8013 19.7458Z" fill="#FFCC00"/>
<path d="M44.8012 19.7457L43.6424 16.4369L42.0867 17.1521L44.8012 19.7457Z" fill="#FFCC00"/>
<path d="M46.0227 15.9901L43.1403 17.9859L42.3021 16.4929L46.0227 15.9901Z" fill="#FFCC00"/>
<path d="M46.0222 15.9903L42.5173 16.0699L42.7167 17.7705L46.0222 15.9903Z" fill="#FFCC00"/>
<path d="M42.8295 13.6685L43.8369 17.0265L42.1579 17.3623L42.8295 13.6685Z" fill="#FFCC00"/>
<path d="M42.8297 13.6685L41.8223 17.0265L43.5013 17.3623L42.8297 13.6685Z" fill="#FFCC00"/>
<path d="M40.853 19.7445L43.6418 17.62L42.4808 16.3614L40.853 19.7445Z" fill="#FFCC00"/>
<path d="M40.8531 19.7445L42.0119 16.4356L43.5676 17.1509L40.8531 19.7445Z" fill="#FFCC00"/>
<path d="M39.6326 15.9906L42.515 17.9864L43.3532 16.4934L39.6326 15.9906Z" fill="#FFCC00"/>
<path d="M39.6321 15.9908L43.137 16.0704L42.9376 17.771L39.6321 15.9908Z" fill="#FFCC00"/>
<path d="M48.3238 27.2145L49.4826 23.9056L51.0383 24.6208L48.3238 27.2145Z" fill="#FFCC00"/>
<path d="M48.3237 27.2143L51.1125 25.0897L49.9515 23.8311L48.3237 27.2143Z" fill="#FFCC00"/>
<path d="M52.2706 27.2145L49.4818 25.0899L50.6427 23.8314L52.2706 27.2145Z" fill="#FFCC00"/>
<path d="M52.2704 27.2145L51.1117 23.9056L49.5559 24.6208L52.2704 27.2145Z" fill="#FFCC00"/>
<path d="M53.4909 23.4606L50.6086 25.4564L49.7704 23.9633L53.4909 23.4606Z" fill="#FFCC00"/>
<path d="M53.4905 23.4608L49.9855 23.5404L50.185 25.241L53.4905 23.4608Z" fill="#FFCC00"/>
<path d="M47.1013 23.4606L49.9837 25.4564L50.8219 23.9633L47.1013 23.4606Z" fill="#FFCC00"/>
<path d="M47.1008 23.4608L50.6058 23.5404L50.4063 25.241L47.1008 23.4608Z" fill="#FFCC00"/>
<path d="M50.2974 21.1399L49.29 24.4979L50.9691 24.8337L50.2974 21.1399Z" fill="#FFCC00"/>
<path d="M50.2973 21.1399L51.3047 24.4979L49.6257 24.8337L50.2973 21.1399Z" fill="#FFCC00"/>
<path d="M47.1003 43.6563L50.6053 43.7359L50.4058 45.4365L47.1003 43.6563Z" fill="#FFCC00"/>
<path d="M47.0999 43.6562L49.9822 45.6519L50.8205 44.1589L47.0999 43.6562Z" fill="#FFCC00"/>
<path d="M48.3199 47.4112L49.4787 44.1024L51.0344 44.8176L48.3199 47.4112Z" fill="#FFCC00"/>
<path d="M48.3198 47.411L51.1086 45.2865L49.9476 44.0279L48.3198 47.411Z" fill="#FFCC00"/>
<path d="M52.2681 47.4108L49.4793 45.2862L50.6403 44.0277L52.2681 47.4108Z" fill="#FFCC00"/>
<path d="M52.268 47.4107L51.1092 44.1019L49.5535 44.8171L52.268 47.4107Z" fill="#FFCC00"/>
<path d="M50.2935 41.3362L49.2861 44.6942L50.9651 45.03L50.2935 41.3362Z" fill="#FFCC00"/>
<path d="M50.2934 41.3362L51.3008 44.6942L49.6218 45.03L50.2934 41.3362Z" fill="#FFCC00"/>
<path d="M53.4895 43.6566L49.9846 43.7362L50.184 45.4368L53.4895 43.6566Z" fill="#FFCC00"/>
<path d="M53.49 43.6564L50.6076 45.6522L49.7694 44.1591L53.49 43.6564Z" fill="#FFCC00"/>
<path d="M39.8117 50.4161L43.3167 50.4957L43.1172 52.1963L39.8117 50.4161Z" fill="#FFCC00"/>
<path d="M39.8123 50.4159L42.6946 52.4117L43.5329 50.9186L39.8123 50.4159Z" fill="#FFCC00"/>
<path d="M41.0308 54.1703L42.1896 50.8614L43.7453 51.5767L41.0308 54.1703Z" fill="#FFCC00"/>
<path d="M41.0307 54.1701L43.8195 52.0455L42.6585 50.7869L41.0307 54.1701Z" fill="#FFCC00"/>
<path d="M44.9781 54.1708L42.1893 52.0462L43.3503 50.7877L44.9781 54.1708Z" fill="#FFCC00"/>
<path d="M44.978 54.1708L43.8192 50.8619L42.2634 51.5771L44.978 54.1708Z" fill="#FFCC00"/>
<path d="M43.0011 48.0942L41.9937 51.4523L43.6727 51.7881L43.0011 48.0942Z" fill="#FFCC00"/>
<path d="M43.0009 48.0942L44.0083 51.4523L42.3293 51.7881L43.0009 48.0942Z" fill="#FFCC00"/>
<path d="M46.1956 50.4146L42.6906 50.4942L42.8901 52.1948L46.1956 50.4146Z" fill="#FFCC00"/>
<path d="M46.195 50.4145L43.3127 52.4102L42.4745 50.9172L46.195 50.4145Z" fill="#FFCC00"/>
</g>
</g>
<defs>
<clipPath id="clip0_0_2821">
<rect width="90.6667" height="68" fill="white" transform="translate(-12.333)"/>
</clipPath>
</defs>
</svg>
