<svg width="16" height="16" viewBox="0 0 16 16" fill="none" xmlns="http://www.w3.org/2000/svg">
<path d="M6.47218 12.9444C7.87772 12.9444 9.17384 12.4899 10.2343 11.7324L14.2237 15.7218C14.4088 15.9069 14.6529 15.9995 14.9138 15.9995C15.4609 15.9995 15.848 15.5787 15.848 15.04C15.848 14.7875 15.7638 14.5435 15.5787 14.3667L11.6146 10.3942C12.4478 9.30008 12.9444 7.94505 12.9444 6.47218C12.9444 2.91206 10.0323 0 6.47218 0C2.92048 0 0 2.90365 0 6.47218C0 10.0323 2.91206 12.9444 6.47218 12.9444ZM6.47218 11.5472C3.69478 11.5472 1.39712 9.24958 1.39712 6.47218C1.39712 3.69478 3.69478 1.39712 6.47218 1.39712C9.24958 1.39712 11.5472 3.69478 11.5472 6.47218C11.5472 9.24958 9.24958 11.5472 6.47218 11.5472Z" fill="black" fill-opacity="0.6"/>
</svg>
