<svg width="290" height="165" viewBox="0 0 290 165" fill="none" xmlns="http://www.w3.org/2000/svg">
<g opacity="0.1">
<rect x="1.55496" y="32.5362" width="285.687" height="132.079" stroke="#FFAE58" stroke-width="0.768751"/>
<line x1="0.385038" y1="164.999" x2="0.385038" y2="32.1509" stroke="#FFAE58" stroke-width="0.768751"/>
<line x1="58.182" y1="164.999" x2="58.182" y2="32.1509" stroke="#FFAE58" stroke-width="0.768751"/>
<line x1="115.978" y1="164.999" x2="115.978" y2="32.1509" stroke="#FFAE58" stroke-width="0.768751"/>
<line x1="173.776" y1="164.999" x2="173.776" y2="32.1509" stroke="#FFAE58" stroke-width="0.768751"/>
<line x1="231.573" y1="164.999" x2="231.573" y2="32.1509" stroke="#FFAE58" stroke-width="0.768751"/>
<line x1="289.37" y1="132.848" x2="289.37" y2="1.52929e-05" stroke="#FFAE58" stroke-width="0.768751"/>
<line x1="29.2835" y1="164.999" x2="29.2835" y2="32.1509" stroke="#FFAE58" stroke-width="0.768751"/>
<line x1="87.0795" y1="164.999" x2="87.0795" y2="32.1509" stroke="#FFAE58" stroke-width="0.768751"/>
<line x1="144.877" y1="164.999" x2="144.877" y2="32.1509" stroke="#FFAE58" stroke-width="0.768751"/>
<line x1="202.674" y1="164.999" x2="202.674" y2="32.1509" stroke="#FFAE58" stroke-width="0.768751"/>
<line x1="260.471" y1="132.848" x2="260.471" y2="1.52929e-05" stroke="#FFAE58" stroke-width="0.768751"/>
<line x1="1.17058" y1="62.6607" x2="287.626" y2="62.6607" stroke="#FFAE58" stroke-width="0.768751"/>
<line x1="1.17058" y1="93.5558" x2="287.626" y2="93.5558" stroke="#FFAE58" stroke-width="0.768751"/>
<line x1="1.17058" y1="124.451" x2="287.626" y2="124.451" stroke="#FFAE58" stroke-width="0.768751"/>
<line x1="1.17058" y1="164.615" x2="287.626" y2="164.615" stroke="#FFAE58" stroke-width="0.768751"/>
</g>
</svg>
