<svg width="15" height="15" viewBox="0 0 15 15" fill="none" xmlns="http://www.w3.org/2000/svg">
<path d="M4.94285 5.19555C4.76004 6.48786 5.16506 7.84752 6.15876 8.84122C7.15246 9.83492 8.51213 10.2399 9.80444 10.0571C9.64491 10.8056 9.27427 11.5183 8.69259 12.1C7.09098 13.7016 4.49591 13.7033 2.89632 12.1037C1.29672 10.5041 1.29835 7.90901 2.89996 6.3074C3.48164 5.72572 4.19436 5.35509 4.94285 5.19555Z" fill="#F2F4F5"/>
<path d="M9.90617 9.83367C10.1275 8.56409 9.74842 7.21096 8.76873 6.23127C8.24826 5.7108 7.62241 5.35985 6.95967 5.17838C6.76475 5.12501 6.56664 5.08629 6.36708 5.06224C6.33965 5.05893 6.31218 5.0559 6.2847 5.05315C5.91234 5.01585 5.53579 5.02941 5.16632 5.09381C4.94501 6.3634 5.32407 7.71653 6.30376 8.69623C7.28346 9.67593 8.63658 10.055 9.90617 9.83367Z" fill="#F2F4F5"/>
<path d="M6.3074 2.89996C5.74228 3.46508 5.37636 4.15389 5.20969 4.87901C6.5193 4.67547 7.90505 5.07759 8.91371 6.08626C9.92239 7.09493 10.3245 8.48069 10.121 9.7903C10.8461 9.62364 11.5349 9.25771 12.1 8.69259C13.7016 7.09099 13.7033 4.49591 12.1037 2.89632C10.5041 1.29672 7.909 1.29836 6.3074 2.89996Z" fill="#F2F4F5"/>
</svg>
