<svg width="9" height="9" viewBox="0 0 9 9" fill="none" xmlns="http://www.w3.org/2000/svg">
<g clip-path="url(#clip0_1_10708)">
<path d="M2.333 5.6258C2.45955 5.63978 2.58608 5.68189 2.69854 5.73806C2.811 5.79424 2.92344 5.87854 3.02181 5.97691C3.12018 6.07528 3.20448 6.18772 3.26066 6.30018C3.31683 6.41264 3.35894 6.53917 3.37292 6.66572C3.40094 6.83444 3.55554 6.9609 3.7243 6.93267C3.89306 6.90444 4.01971 6.74968 3.9917 6.58096C3.9637 6.38411 3.90755 6.21541 3.82331 6.01859C3.73906 5.82178 3.6126 5.66718 3.47207 5.52665C3.33154 5.38612 3.16287 5.27373 2.98013 5.17541C2.81144 5.09115 2.61461 5.03503 2.41776 5.00703C2.24904 4.97901 2.09428 5.10566 2.06605 5.27442C2.03782 5.44318 2.16428 5.59778 2.333 5.6258Z" fill="#F2F4F5"/>
<path d="M2.69935 4.44438C3.1352 4.54253 3.55692 4.76726 3.89419 5.10453C4.23146 5.4418 4.45618 5.86352 4.55434 6.29937C4.58236 6.46809 4.7651 6.56641 4.93386 6.53818C5.11669 6.49588 5.20117 6.32709 5.17315 6.15836C5.04694 5.61003 4.78009 5.08991 4.34445 4.65427C3.92286 4.23268 3.38869 3.95178 2.84036 3.82557C2.67163 3.79755 2.48877 3.8961 2.46054 4.06486C2.43231 4.23362 2.51657 4.4023 2.69935 4.44438Z" fill="#F2F4F5"/>
<path d="M3.09386 3.20669C3.72654 3.36097 4.31693 3.69809 4.80878 4.18994C5.30063 4.68179 5.62368 5.28625 5.79203 5.90486C5.84817 6.07357 6.00279 6.17191 6.18562 6.12961C6.3544 6.07325 6.45293 5.91851 6.41086 5.73573C6.22852 4.99057 5.84928 4.30178 5.27311 3.72561C4.69694 3.14944 4.00815 2.7702 3.26299 2.58786C3.09428 2.53172 2.92547 2.64432 2.86911 2.8131C2.82681 2.99593 2.92515 3.15055 3.09386 3.20669Z" fill="#F2F4F5"/>
<path d="M3.48836 1.96901C4.3038 2.19348 5.091 2.61484 5.73744 3.26128C6.38388 3.90772 6.81931 4.68085 7.02971 5.51036C7.08585 5.67907 7.24047 5.7774 7.4233 5.7351C7.59208 5.67875 7.69061 5.52401 7.64854 5.34123C7.39601 4.41331 6.91845 3.54178 6.1877 2.81102C5.45694 2.08027 4.58541 1.60271 3.65749 1.35018C3.48878 1.29404 3.31997 1.40664 3.26362 1.57542C3.20726 1.7442 3.31965 1.91287 3.48836 1.96901Z" fill="#F2F4F5"/>
</g>
<defs>
<clipPath id="clip0_1_10708">
<rect width="6.29786" height="6.28996" fill="white" transform="translate(0 4.50262) scale(1.01108) rotate(-45)"/>
</clipPath>
</defs>
</svg>
