<svg width="18" height="14" viewBox="0 0 18 14" fill="none" xmlns="http://www.w3.org/2000/svg">
<path d="M6.71818 13.5138H6.71903H6.72959V13.5139L6.73288 13.5138C6.91489 13.5115 7.09447 13.4717 7.26034 13.3967C7.42593 13.3218 7.57429 13.2136 7.69612 13.0788C7.69632 13.0785 7.69653 13.0783 7.69673 13.0781L17.3454 2.52162C17.4713 2.39667 17.5707 2.24761 17.6378 2.08333L17.3933 1.98354L17.6378 2.08332C17.7058 1.9167 17.739 1.73793 17.7354 1.558C17.7318 1.37807 17.6915 1.20077 17.6168 1.037C17.5422 0.873223 17.4349 0.726434 17.3015 0.605643C17.1681 0.484853 17.0114 0.392612 16.841 0.334584C16.6707 0.276557 16.4903 0.253969 16.3109 0.268208C16.1315 0.282447 15.9569 0.333212 15.7978 0.417386C15.6413 0.500169 15.5032 0.613547 15.3915 0.750753L6.70592 10.2522L2.54918 5.82302C2.30936 5.56745 1.97784 5.41761 1.62754 5.40647C1.27724 5.39533 0.936866 5.5238 0.681291 5.76362C0.425716 6.00344 0.275877 6.33496 0.264737 6.68526C0.253597 7.03556 0.382068 7.37593 0.621888 7.63151L0.62205 7.63168L5.75433 13.0913C5.75455 13.0916 5.75477 13.0918 5.75499 13.092C5.87797 13.2244 6.02683 13.3302 6.19234 13.4028C6.35815 13.4754 6.53714 13.5132 6.71818 13.5138Z" fill="#83CBE3" stroke="#83CBE3" stroke-width="0.5"/>
</svg>
