<svg width="12" height="13" viewBox="0 0 12 13" fill="none" xmlns="http://www.w3.org/2000/svg">
<mask id="mask0_1_13218" style="mask-type:alpha" maskUnits="userSpaceOnUse" x="0" y="0" width="12" height="13">
<path opacity="0.9" d="M5.96482 11.6179L5.98198 11.6185L5.99914 11.6179L8.02962 11.5489C9.7255 11.4912 11.1208 10.1952 11.3032 8.50815L11.4247 7.38445C11.5179 6.52277 11.5184 5.65358 11.4262 4.7918L11.3008 3.61984C11.1201 1.93118 9.7241 0.633008 8.02677 0.575306L5.99914 0.506375L5.98198 0.505792L5.96482 0.506375L3.9605 0.574513C2.25136 0.632617 0.849728 1.94797 0.683305 3.64998L0.562786 4.88253C0.486073 5.66707 0.486073 6.45723 0.562786 7.24177L0.683305 8.47432C0.849727 10.1763 2.25135 11.4917 3.96049 11.5498L5.96482 11.6179Z" fill="#132F38" stroke="white"/>
</mask>
<g mask="url(#mask0_1_13218)">
<g clip-path="url(#clip0_1_13218)">
<path d="M6.00628 12.491C9.55665 12.491 12.4348 9.61288 12.4348 6.06251C12.4348 2.51214 9.55665 -0.365998 6.00628 -0.365998C2.45591 -0.365998 -0.42223 2.51214 -0.42223 6.06251C-0.42223 9.61288 2.45591 12.491 6.00628 12.491Z" fill="#F0F0F0"/>
<path d="M0.906186 2.14765C0.401222 2.80464 0.0204586 3.56187 -0.20125 4.38449H3.14303L0.906186 2.14765Z" fill="#0052B4"/>
<path d="M12.213 4.38545C11.9913 3.56286 11.6105 2.80562 11.1056 2.14864L8.86879 4.38545H12.213Z" fill="#0052B4"/>
<path d="M-0.20125 7.73923C0.0204837 8.56183 0.401247 9.31906 0.906186 9.97603L3.14296 7.73923H-0.20125Z" fill="#0052B4"/>
<path d="M9.91982 0.962443C9.26283 0.457479 8.50562 0.0767152 7.683 -0.145018V3.19924L9.91982 0.962443Z" fill="#0052B4"/>
<path d="M2.0924 11.1618C2.74939 11.6668 3.50663 12.0475 4.32922 12.2693V8.92502L2.0924 11.1618Z" fill="#0052B4"/>
<path d="M4.3292 -0.145018C3.5066 0.0767152 2.74937 0.457479 2.0924 0.962418L4.3292 3.19921V-0.145018Z" fill="#0052B4"/>
<path d="M7.683 12.2693C8.5056 12.0475 9.26283 11.6668 9.91979 11.1618L7.683 8.92502V12.2693Z" fill="#0052B4"/>
<path d="M8.86879 7.73923L11.1056 9.97605C11.6105 9.31909 11.9913 8.56183 12.213 7.73923H8.86879Z" fill="#0052B4"/>
<path d="M12.3804 5.22402H6.84482L6.8448 -0.311582C6.57031 -0.347315 6.29046 -0.365998 6.00628 -0.365998C5.72204 -0.365998 5.44225 -0.347315 5.16779 -0.311582V5.22397L-0.367813 5.22399C-0.403547 5.49848 -0.42223 5.77832 -0.42223 6.06251C-0.42223 6.34674 -0.403547 6.62654 -0.367813 6.901H5.16774L5.16776 12.4366C5.44225 12.4723 5.72204 12.491 6.00628 12.491C6.29046 12.491 6.57031 12.4724 6.84477 12.4366V6.90105L12.3804 6.90103C12.4161 6.62654 12.4348 6.34674 12.4348 6.06251C12.4348 5.77832 12.4161 5.49848 12.3804 5.22402Z" fill="#D80027"/>
<path d="M7.683 7.73926L10.5516 10.6079C10.6836 10.476 10.8094 10.3381 10.9295 10.1952L8.47356 7.73923H7.683V7.73926Z" fill="#D80027"/>
<path d="M4.32869 7.73923H4.32864L1.46005 10.6078C1.59193 10.7398 1.72982 10.8656 1.87275 10.9857L4.32869 8.52971V7.73923Z" fill="#D80027"/>
<path d="M4.32969 4.38596V4.38591L1.46107 1.51726C1.32914 1.64915 1.20328 1.78704 1.0832 1.92997L3.53916 4.38594H4.32969V4.38596Z" fill="#D80027"/>
<path d="M7.683 4.38595L10.5516 1.51728C10.4198 1.38534 10.2819 1.25949 10.1389 1.13943L7.683 3.59539V4.38595Z" fill="#D80027"/>
</g>
<rect x="-0.92223" y="-0.865998" width="13.857" height="13.857" stroke="white"/>
</g>
<defs>
<clipPath id="clip0_1_13218">
<rect x="-0.42223" y="-0.365998" width="12.857" height="12.857" fill="white"/>
</clipPath>
</defs>
</svg>
