<svg width="19" height="19" viewBox="0 0 19 19" fill="none" xmlns="http://www.w3.org/2000/svg">
<path opacity="0.4" d="M9.5 0C4.26175 0 0 4.26175 0 9.5C0 14.7382 4.26175 19 9.5 19C14.7382 19 19 14.7382 19 9.5C19 4.26175 14.7382 0 9.5 0ZM12.9396 11.9065C13.0104 11.9737 13.0669 12.0544 13.106 12.1437C13.145 12.2331 13.1658 12.3294 13.167 12.427C13.1683 12.5245 13.15 12.6213 13.1132 12.7116C13.0765 12.802 13.022 12.8841 12.953 12.953C12.8841 13.022 12.802 13.0765 12.7116 13.1132C12.6213 13.15 12.5245 13.1683 12.427 13.167C12.3294 13.1658 12.2331 13.145 12.1437 13.106C12.0544 13.0669 11.9737 13.0104 11.9065 12.9396L9.5 10.5336L7.09349 12.9396C6.95533 13.0709 6.77135 13.143 6.5808 13.1406C6.39024 13.1381 6.20818 13.0613 6.07342 12.9266C5.93867 12.7918 5.86188 12.6098 5.85944 12.4192C5.857 12.2286 5.9291 12.0447 6.06036 11.9065L8.46642 9.5L6.06036 7.09349C5.9291 6.95533 5.857 6.77135 5.85944 6.5808C5.86188 6.39024 5.93867 6.20818 6.07342 6.07342C6.20818 5.93867 6.39024 5.86188 6.5808 5.85944C6.77135 5.857 6.95533 5.9291 7.09349 6.06036L9.5 8.46642L11.9065 6.06036C12.0447 5.9291 12.2286 5.857 12.4192 5.85944C12.6098 5.86188 12.7918 5.93867 12.9266 6.07342C13.0613 6.20818 13.1381 6.39024 13.1406 6.5808C13.143 6.77135 13.0709 6.95533 12.9396 7.09349L10.5336 9.5L12.9396 11.9065Z" fill="#2B6173"/>
</svg>
